<?xml version="1.0" encoding="UTF-8"?> <svg xmlns="http://www.w3.org/2000/svg" id="logo" viewBox="0 0 120 60"><defs><style>.cls-1{fill:#fff;}</style></defs><path class="cls-1" d="M31,37.67l2.69,0c.21,0,.48.09.51-.27a17.91,17.91,0,0,1,.93,2.57A27.67,27.67,0,0,0,42.57,50.3a27.14,27.14,0,0,0,15.11,6.42,23.44,23.44,0,0,0,5.42-.13A26.83,26.83,0,0,0,83.84,42.16a47.51,47.51,0,0,0,2-4.8c0,.36.26.3.48.3H89A30.2,30.2,0,0,1,63.27,59.81,29.1,29.1,0,0,1,52,58.89,30,30,0,0,1,31.14,38.2C31.09,38,31,37.85,31,37.67Z"></path><polygon class="cls-1" points="86.65 26.77 86.65 26.77 86.65 26.76 86.65 26.77"></polygon><path class="cls-1" d="M89.6,25.16a28.8,28.8,0,0,0-5.36-12.83A30.16,30.16,0,0,0,56.65.18,29,29,0,0,0,45,4a30.17,30.17,0,0,0-11.8,12.47,30.56,30.56,0,0,0-2.95,9.31c.84,0,1.67,0,2.51,0,.51,0,.62.15.54.63a21.22,21.22,0,0,0-.23,4.64,19.3,19.3,0,0,0,.82,5.33l-.24-1.55c-.07-.51-.15-1-.22-1.54a26.45,26.45,0,0,1,1.06-11.55,27.61,27.61,0,0,1,4.6-8.52,25,25,0,0,1,5.12-4.85A26,26,0,0,1,56.62,3.46a26.79,26.79,0,0,1,12,1.19,23.46,23.46,0,0,1,6.21,3A27,27,0,0,1,86.33,25.09c0,.09,0,.19,0,.29l.06.41a2.23,2.23,0,0,1,.22,1c0-1,0-1,1.07-1l2,0C89.68,25.57,89.63,25.36,89.6,25.16Z"></path><path class="cls-1" d="M34.06,36.93a.4.4,0,0,1,.12.45A.42.42,0,0,1,34.06,36.93Z"></path><path class="cls-1" d="M33.91,36.39a.41.41,0,0,1,.13.46A.45.45,0,0,1,33.91,36.39Z"></path><path class="cls-1" d="M93.26,32.38a.78.78,0,0,1,0-1c1-1.59,2.06-3.2,3.08-4.8.14-.22.37-.42.34-.79h-7l-2,0H86.43a2.89,2.89,0,0,1,.22,1h0c.06.37,0,.74.13,1.43a25.61,25.61,0,0,1-1,9.17c0,.36.26.3.48.3H96.84C95.6,35.82,94.45,34.09,93.26,32.38Z"></path><path class="cls-1" d="M47.29,31.69a3.1,3.1,0,0,1,1.85-2.9,3.22,3.22,0,0,1,3.41.45c.18.14.55.3.17.63s-.39.55-.83.17a2.13,2.13,0,0,0-3.52,1.75,2,2,0,0,0,1.21,2,2.08,2.08,0,0,0,2.34-.32c.51-.47.63,0,.85.25s-.05.43-.22.56a3.18,3.18,0,0,1-3.52.39A3.08,3.08,0,0,1,47.29,31.69Z"></path><path class="cls-1" d="M68.65,30.71a8.85,8.85,0,0,1,.89-.22,1.66,1.66,0,0,1,2,1.56c.06.8,0,1.62,0,2.43,0,.47-.29.36-.55.37s-.54,0-.52-.41q0-1,0-2c0-.49-.16-.93-.79-.94a1,1,0,0,0-1.1.92,19.44,19.44,0,0,0,0,2c0,.41-.18.45-.5.42s-.61.11-.61-.4c0-1.93,0-3.85,0-5.78,0-.48.31-.35.56-.36s.57-.1.54.37C68.62,29.35,68.65,30,68.65,30.71Z"></path><path class="cls-1" d="M59.6,32.66a13,13,0,0,0,0,1.53c.08.62-.23.74-.72.64a2.14,2.14,0,0,0-1.06.11,1.74,1.74,0,0,1-2.25-1.63c-.07-.8,0-1.62,0-2.44,0-.43.27-.32.51-.34s.47,0,.46.4c0,.67,0,1.35,0,2s.18,1,.79,1a1,1,0,0,0,1.2-1,17,17,0,0,0,0-2c0-.46.22-.45.55-.46s.57,0,.54.47S59.6,32.1,59.6,32.66Z"></path><path class="cls-1" d="M67.09,34.2a2.5,2.5,0,0,1-3.19.36,2.36,2.36,0,0,1-.83-2.78,2.48,2.48,0,0,1,3.81-.84c.11.11.31.24.08.37s-.33.71-.82.36A1.39,1.39,0,0,0,65,31.42,1.23,1.23,0,0,0,64,33a1.27,1.27,0,0,0,1.78.8C66.5,33.41,66.73,33.83,67.09,34.2Z"></path><path class="cls-1" d="M53.41,31.57c0-.95,0-1.9,0-2.85,0-.52.3-.42.58-.41s.66-.15.66.42c0,1.9,0,3.8,0,5.71,0,.57-.37.39-.66.41s-.59.06-.57-.43C53.44,33.47,53.41,32.52,53.41,31.57Z"></path><path class="cls-1" d="M60.69,33.07V32c0-.31.1-.68-.45-.6C60,31.39,60,31.2,60,31s-.1-.48.13-.47c.85,0,.56-.59.53-.95,0-.55.17-.64.67-.63s.6.12.58.58-.25,1.08.64,1c.24,0,.14.29.15.46s0,.39-.3.34c-.56-.1-.51.27-.5.63,0,.72,0,1.44,0,2.15,0,.53-.1.71-.68.72s-.55-.36-.55-.74Z"></path><path class="cls-1" d="M62.8,18.84a14.14,14.14,0,0,0-.63,2.24c0,.13,0,.36-.22.38s-.24-.22-.28-.39A8.8,8.8,0,0,0,61,19.15c0,.64,0,1.28,0,1.91,0,.16.06.41-.24.41s-.23-.24-.22-.4c0-1.07,0-2.13.08-3.2,0-.17-.1-.43.25-.46s.34.22.39.45A17.44,17.44,0,0,0,62,20.37c.18-.8.35-1.6.54-2.4.06-.24,0-.61.45-.55s.22.4.23.61c0,1,0,1.94,0,2.92,0,.17.19.53-.23.51s-.2-.36-.2-.54C62.78,20.3,62.8,19.67,62.8,18.84Z"></path><ellipse class="cls-1" cx="60" cy="37.58" rx="29.34" ry="0.06"></ellipse><ellipse class="cls-1" cx="60" cy="25.73" rx="29.33" ry="0.05"></ellipse><path class="cls-1" d="M71.62,19.64c0-.6,0-1.2,0-1.8,0-.17-.07-.4.22-.42s.27.25.27.44c0,1.05,0,2.09,0,3.14,0,.15.13.39-.15.46s-.28-.18-.35-.34a15.07,15.07,0,0,0-1-2.06c0,.66,0,1.31,0,2,0,.18.11.45-.25.44s-.25-.22-.25-.4V17.8c0-.15-.06-.34.19-.37s.27.12.34.28c.27.65.56,1.3.84,1.95Z"></path><path class="cls-1" d="M52.12,43.44a7.58,7.58,0,0,1,.08-1.17c.13-.59.6-.74,1.13-.68a.83.83,0,0,1,.81.88c0,.14.08.34-.19.36s-.28-.08-.3-.28-.16-.59-.56-.54-.41.39-.41.69c0,.63,0,1.26,0,1.88,0,.25.1.46.4.48a.44.44,0,0,0,.54-.32c.07-.26.18-.55,0-.78s-.45.06-.35-.26.31-.14.48-.14.43-.09.44.19c0,.51,0,1,0,1.53,0,.11-.08.21-.16.17-.48-.31-1,.36-1.53-.15s-.3-1.08-.34-1.65a1.33,1.33,0,0,1,0-.2Z"></path><path class="cls-1" d="M54.8,19.43c0,.37,0,.74,0,1.12a.44.44,0,0,0,.44.51c.36,0,.5-.19.53-.51,0-.11,0-.23,0-.35s.05-.26.24-.25a.25.25,0,0,1,.29.22,1.17,1.17,0,0,1-.68,1.3,1,1,0,0,1-1.38-.77,8.21,8.21,0,0,1,0-2.57c.1-.62.64-.89,1.35-.72a1.06,1.06,0,0,1,.7,1.21c0,.18-.13.21-.27.23s-.26-.06-.26-.24a2.16,2.16,0,0,0,0-.35.42.42,0,0,0-.5-.44.45.45,0,0,0-.46.5v1.11Z"></path><path class="cls-1" d="M78.39,21.5c-.51,0-.8-.33-.93-.86a.26.26,0,0,1,.2-.37c.22-.08.28,0,.32.23s.15.54.51.56a.38.38,0,0,0,.43-.27.74.74,0,0,0-.25-.81,13.06,13.06,0,0,1-1-1,1,1,0,0,1-.13-1.18,1,1,0,0,1,1.75.08c.07.18.23.38-.05.54s-.33-.12-.39-.29a.45.45,0,0,0-.72-.27.5.5,0,0,0,0,.79,10.13,10.13,0,0,0,.77.7,1.67,1.67,0,0,1,.58.93A1,1,0,0,1,78.39,21.5Z"></path><path class="cls-1" d="M75,19.41c0-.49,0-1,0-1.47s.13-.59.56-.53c.11,0,.24,0,.34,0s.66-.21.68.2-.4.2-.61.2-.43.17-.36.43-.28.76.29.91c.18.05.49-.1.49.22s-.29.18-.45.18c-.42,0-.34.3-.34.54,0,.49-.19,1.14.72,1,.14,0,.28,0,.28.21s-.16.18-.29.19h-.07c-1.23.1-1.23.1-1.23-1.09Z"></path><path class="cls-1" d="M55.49,52.72h1a.19.19,0,0,1,.22.2.19.19,0,0,1-.21.21,12.89,12.89,0,0,1-1.39,0c-.4,0-.19-.34-.09-.51.31-.52.64-1,1-1.52a1.4,1.4,0,0,0,.29-.7c0-.28.07-.6-.28-.69s-.48.21-.51.5-.11.35-.35.3-.16-.25-.15-.39a.91.91,0,0,1,1.81-.1,1.61,1.61,0,0,1-.29,1.18Z"></path><path class="cls-1" d="M61.15,52.72H62c.16,0,.35,0,.33.22s-.21.2-.35.19c-.48,0-1.16.23-1.38-.1s.35-.82.56-1.24.51-.78.69-1.2.2-.75-.25-.88-.51.23-.51.56-.15.24-.33.24-.21-.19-.19-.35c.07-.55.34-.91.94-.9a.84.84,0,0,1,.91.84,1.57,1.57,0,0,1-.29,1Z"></path><path class="cls-1" d="M55.91,11.92c0-.35,0-.7,0-1.05s.15-.79-.49-.72c-.13,0-.18-.11-.17-.24s.13-.16.25-.16h1.38c.12,0,.24,0,.25.17a.2.2,0,0,1-.24.24c-.46-.06-.4.25-.4.53,0,.9,0,1.8,0,2.7,0,.22,0,.42-.3.42s-.27-.24-.27-.43C55.9,12.89,55.91,12.4,55.91,11.92Z"></path><path class="cls-1" d="M41.93,19.51V21.1c0,.19,0,.37-.27.38s-.26-.18-.26-.37c0-.81,0-1.62,0-2.43,0-.3.07-.66-.45-.47-.11,0-.27,0-.25-.13.1-.47.59-.45.9-.63s.34.14.34.39Z"></path><path class="cls-1" d="M66.88,43.39a7.85,7.85,0,0,1,0,.84c-.05.53,0,1,.72.84.17,0,.26.07.25.24s-.15.14-.26.15h-.07c-1.17.11-1.17.11-1.17-1.07v-2.3c0-.19-.07-.45.26-.46s.27.24.27.44C66.88,42.51,66.88,43,66.88,43.39Z"></path><path class="cls-1" d="M55.23,43.57c0-.52,0-1,0-1.54,0-.17-.06-.39.24-.4s.3.2.3.42c0,.79,0,1.58,0,2.37,0,.43,0,.74.57.65.16,0,.42-.06.4.23s-.25.15-.4.16c-1.1.07-1.1.07-1.1-1.06Z"></path><path class="cls-1" d="M73.83,19.52v1.59c0,.2,0,.37-.27.37s-.29-.17-.29-.37V17.78c0-.21,0-.36.29-.37s.27.18.27.37Z"></path><path class="cls-1" d="M65.25,31.89c.53,0,.84.3.85.77a.77.77,0,0,1-.85.81.73.73,0,0,1-.8-.77A.74.74,0,0,1,65.25,31.89Z"></path><path class="cls-1" d="M60.16,10.79c0-.77-.36-1.07-1.07-1.08a1,1,0,0,0-1.12,1,14.44,14.44,0,0,0,0,2.08,1,1,0,0,0,1.1,1c.66,0,1-.31,1.06-1,0-.34,0-.69,0-1h0C60.17,11.44,60.18,11.12,60.16,10.79Zm-.58,2.11c0,.29-.14.48-.46.49s-.55-.13-.55-.47c0-.76,0-1.52,0-2.28a.47.47,0,0,1,.55-.49c.36,0,.48.22.48.54v1h0C59.59,12.12,59.6,12.51,59.58,12.9Z"></path><path class="cls-1" d="M59.5,18.44c-.08-.8-.43-1.09-1.17-1.06s-1,.36-1,1.15c0,.3,0,.6,0,.9h0a11.78,11.78,0,0,0,0,1.19.92.92,0,0,0,1,.89,1,1,0,0,0,1.08-.85A8.69,8.69,0,0,0,59.5,18.44Zm-.59,2.17a.44.44,0,0,1-.5.45.46.46,0,0,1-.52-.51V19.38h0c0-.35,0-.7,0-1a.45.45,0,0,1,.51-.51.44.44,0,0,1,.51.44A15.23,15.23,0,0,1,58.91,20.61Z"></path><path class="cls-1" d="M48.4,18.31a1,1,0,0,0-2,0q0,1.11,0,2.22a.88.88,0,0,0,1,1c.61,0,1-.3,1-1,0-.35,0-.7,0-1A11.59,11.59,0,0,0,48.4,18.31Zm-.55,2.29c0,.24-.12.45-.42.46s-.41-.19-.43-.44a12.13,12.13,0,0,1,0-2.41.38.38,0,0,1,.41-.38.4.4,0,0,1,.44.42c0,.42,0,.83,0,1.25S47.87,20.23,47.85,20.6Z"></path><path class="cls-1" d="M51.5,19.49h0c0-.41,0-.83,0-1.24a.88.88,0,0,0-1-.87.87.87,0,0,0-1,.87,23,23,0,0,0,0,2.35,1,1,0,0,0,2,0C51.52,20.23,51.5,19.86,51.5,19.49Zm-.58,1.18a.37.37,0,0,1-.4.39.41.41,0,0,1-.43-.45c0-.2,0-.39,0-.59V18.83c0-.19,0-.39,0-.59a.42.42,0,0,1,.84,0C51,19.05,50.94,19.86,50.92,20.67Z"></path><path class="cls-1" d="M62.43,43.76a.56.56,0,0,1,0-.72.92.92,0,0,0-.14-1.16,1.53,1.53,0,0,0-1.46-.22c-.45.1-.16.58-.21.89a6.28,6.28,0,0,0,0,1v1c0,.92,0,.86.93.91A1.1,1.1,0,0,0,62.43,43.76Zm-1-1.74a.52.52,0,0,1,.58.6c0,.37-.17.6-.58.61s-.26-.36-.34-.57C61.21,42.44,60.88,42,61.44,42Zm.05,3c-.71,0-.31-.52-.35-.8s-.25-.65.32-.62a.58.58,0,0,1,.62.61C62.08,44.78,62,45.06,61.49,45.06Z"></path><path class="cls-1" d="M45.33,19.45a10.28,10.28,0,0,0,0-1.11c-.07-.56-.34-.95-1-1a.91.91,0,0,0-1,.91,10.86,10.86,0,0,0,0,2.28.92.92,0,0,0,1,.94c.65,0,.9-.41,1-1a8.21,8.21,0,0,0,0-1.11Zm-.56,1.11c0,.27-.14.5-.46.5a.42.42,0,0,1-.42-.46c0-.79,0-1.57,0-2.35a.4.4,0,0,1,.45-.42c.3,0,.4.21.42.45s0,.78,0,1.17h0C44.77,19.82,44.79,20.19,44.77,20.56Z"></path><path class="cls-1" d="M59.57,43.58a9,9,0,0,0,0-1,1,1,0,0,0-1.05-1,.94.94,0,0,0-1,1,18,18,0,0,0,0,1.94.9.9,0,0,0,1,1,.93.93,0,0,0,1.06-.94,7.81,7.81,0,0,0,0-1Zm-.56,1a.43.43,0,0,1-.49.45c-.31,0-.48-.16-.48-.46V42.46a.44.44,0,0,1,.5-.45.43.43,0,0,1,.48.47c0,.36,0,.73,0,1.1h0C59,43.93,59,44.27,59,44.62Z"></path><path class="cls-1" d="M65.24,50.05a.84.84,0,0,0-.9-.79.86.86,0,0,0-.94.83,8.22,8.22,0,0,0,0,1.11h0a11.37,11.37,0,0,0,.06,1.18.84.84,0,0,0,.91.78.81.81,0,0,0,.91-.76A8.81,8.81,0,0,0,65.24,50.05Zm-.5,2.2c0,.25-.1.47-.39.49a.41.41,0,0,1-.44-.43c0-.74,0-1.48,0-2.21a.41.41,0,0,1,.39-.42.4.4,0,0,1,.43.43c0,.37,0,.74,0,1.11S64.75,51.91,64.74,52.25Z"></path><path class="cls-1" d="M66.41,18.38c-.06-.79-.39-1-1.52-1-.89,0-.41.64-.49,1a5.15,5.15,0,0,0,0,1v1.68c0,.2,0,.36.29.36s.3-.13.3-.35,0-.74,0-1.12.09-.43.43-.46C66.18,19.49,66.46,19.13,66.41,18.38Zm-1.11.78c-.53,0-.23-.43-.34-.66.1-.26-.2-.71.4-.68s.5.31.51.66S65.76,19.17,65.3,19.16Z"></path><path class="cls-1" d="M69.11,21.15c-.25-1.15-.5-2.31-.74-3.47a.29.29,0,0,0-.32-.27c-.24,0-.32.12-.37.33-.23,1.13-.47,2.26-.71,3.4,0,.12-.11.29.11.32s.34.05.39-.18.06-.32.08-.48c0-.31.23-.36.49-.35s.47,0,.48.35a3.89,3.89,0,0,0,.09.47c0,.25.22.21.37.19S69.12,21.28,69.11,21.15ZM68,20.06c-.21,0-.35,0-.28-.32S67.9,19,68,18.5a4.18,4.18,0,0,1,.33,1.24C68.41,20,68.27,20.06,68,20.06Z"></path><path class="cls-1" d="M65.41,45.08C65.19,44,65,43,64.74,42c0-.22-.12-.34-.35-.33s-.28.14-.32.31c-.22,1.06-.44,2.13-.68,3.25,0,.06-.13.23.11.27s.39-.07.4-.34.14-.71.66-.63.27.43.34.66.13.35.38.31S65.44,45.22,65.41,45.08Zm-1-1c-.18,0-.31,0-.27-.27s.12-.66.19-1.07c.3.38.23.75.34,1.07S64.6,44.08,64.42,44.09Z"></path><path class="cls-1" d="M59.58,51.24h0c0-.37,0-.74,0-1.11a.85.85,0,0,0-.89-.87.8.8,0,0,0-.93.81,19.44,19.44,0,0,0,0,2.29.81.81,0,0,0,.94.8.83.83,0,0,0,.87-.81A8.21,8.21,0,0,0,59.58,51.24Zm-.53,1.14a.37.37,0,0,1-.36.36.39.39,0,0,1-.43-.36c0-.39,0-.78-.08-1.22s0-.74.09-1.12a.37.37,0,0,1,.43-.36.38.38,0,0,1,.35.36A8.34,8.34,0,0,1,59.05,52.38Z"></path><path class="cls-1" d="M63.24,10.69c-.05-.77-.38-.95-1.51-.95-.84,0-.4.59-.46.92a5.87,5.87,0,0,0,0,1.11c0,.51,0,1,0,1.52,0,.19-.16.5.25.51s.27-.33.29-.54a3.84,3.84,0,0,0,0-.83c0-.42.09-.55.53-.56C63,11.86,63.3,11.43,63.24,10.69Zm-1.13.81c-.58,0-.12-.49-.34-.63.14-.28-.22-.74.4-.72s.53.33.55.69S62.55,11.5,62.11,11.5Z"></path><path class="cls-1" d="M34.35,37.38h0c0,.36-.3.27-.51.27-.89,0-2,0-2.86,0l-7.82,0v-.14a42.5,42.5,0,0,0,2.57-3.68c.43-.63,1.12-1.25,1.18-1.92s-.69-1.35-1.12-2c-.88-1.33-1.63-2.74-2.63-4V25.8l7.12,0c.84,0,1.85,0,2.68,0,.52,0,.62.15.54.63a21.86,21.86,0,0,0-.23,4.64,20.08,20.08,0,0,0,.82,5.33h0"></path></svg> 