<?xml version="1.0" encoding="UTF-8"?> <svg xmlns="http://www.w3.org/2000/svg" id="logo" viewBox="0 0 120 60"><defs><style>.cls-1,.cls-3{fill:#fff;}.cls-2{fill:#e0e0e0;}.cls-2,.cls-3{opacity:0.7;}</style></defs><path class="cls-1" d="M59.55,9.28c0-.37,0-.75,0-1.12a.37.37,0,0,0-.39-.39c-.26,0-.47.06-.5.35a10.59,10.59,0,0,0,0,2.18c0,.27.19.39.46.39a.41.41,0,0,0,.45-.47c0-.31,0-.63,0-.94Z"></path><path class="cls-1" d="M59.92,37.34c-6.54,0-13.07,0-19.6,0-.61,0-.8-.15-.75-.76a15.89,15.89,0,0,0,0-2.07c0-.52.17-.68.64-.61a2.09,2.09,0,0,0,.25,0H79.52c.89,0,.89,0,.89.87,0,.63,0,1.26,0,1.88s-.12.68-.65.67c-3.06,0-6.11,0-9.17,0H59.92Z"></path><path class="cls-1" d="M49,28.56a1.71,1.71,0,0,0,1,1.58,1.8,1.8,0,0,0,2-.22c.46-.41.66-.09.87.18s-.16.45-.33.58a2.9,2.9,0,0,1-3.91-.38,3.07,3.07,0,0,1,.06-4A3,3,0,0,1,52.57,26c.18.14.64.22.31.63s-.42.5-.84.14A1.79,1.79,0,0,0,50,26.56,2,2,0,0,0,49,28.56Z"></path><path class="cls-1" d="M67.2,27.43c.33-.08.61-.18.9-.22a1.49,1.49,0,0,1,1.74,1.39c.06.73,0,1.46,0,2.19,0,.4-.22.37-.48.37s-.5,0-.48-.36q0-.91,0-1.83c0-.44-.14-.84-.71-.84a.87.87,0,0,0-1,.83,15.77,15.77,0,0,0,0,1.82c0,.38-.18.4-.46.38s-.54.08-.54-.38c0-1.71,0-3.43,0-5.15,0-.46.27-.37.53-.37s.5-.06.47.36C67.17,26.2,67.2,26.79,67.2,27.43Z"></path><path class="cls-1" d="M59.06,29.19a9.68,9.68,0,0,0,0,1.32c.09.63-.24.71-.72.63a1.36,1.36,0,0,0-.72,0,1.55,1.55,0,0,1-2.19-1.41c-.07-.72,0-1.46,0-2.19,0-.39.26-.29.47-.31s.41,0,.4.31c0,.6,0,1.21,0,1.82s.14.92.73,1a.94.94,0,0,0,1.08-.95,12.78,12.78,0,0,0,0-1.75c0-.43.21-.41.51-.42s.5,0,.48.43S59.06,28.69,59.06,29.19Z"></path><path class="cls-1" d="M65.79,27.84c-.31.38-.56.71-1.15.32a1.14,1.14,0,0,0-1.37,1.76,1.3,1.3,0,0,0,1.49.3c.18-.09.31-.34.59-.11.5.4.52.53,0,.86a2.23,2.23,0,0,1-2.91-.61,2,2,0,0,1,.33-2.72A2.22,2.22,0,0,1,65.79,27.84Z"></path><path class="cls-1" d="M60,29.54v-1c0-.29.06-.6-.41-.53-.22,0-.22-.17-.2-.31s-.1-.43.13-.41c.66,0,.51-.42.47-.74-.06-.55.1-.74.67-.69.37,0,.44.14.45.48s-.26,1,.59.95c.2,0,.1.28.12.43s-.07.33-.29.29c-.44-.07-.45.19-.44.52,0,.73,0,1.46,0,2.19,0,.47-.25.43-.55.43s-.61.07-.56-.42A11.78,11.78,0,0,0,60,29.54Z"></path><path class="cls-1" d="M54.58,28.18c0,.86,0,1.71,0,2.57,0,.48-.28.4-.57.41s-.55.05-.54-.43q0-2.53,0-5.07c0-.5.28-.39.56-.4s.57-.07.55.41C54.55,26.51,54.58,27.34,54.58,28.18Z"></path><path class="cls-1" d="M64.85,29.13c0,.47-.28.71-.68.72a.62.62,0,0,1-.7-.64.61.61,0,0,1,.67-.66A.64.64,0,0,1,64.85,29.13Z"></path><path class="cls-1" d="M79.61,43.75l-39.11,0c-.13,0-.25,0-.38,0-.44,0-.5.2-.39.54s.33.89.5,1.34c.73,1.25,2,1.79,3.18,2.48q7,4.17,14.07,8.31a4.55,4.55,0,0,0,5,0Q70.2,51.82,78,47.26a4.92,4.92,0,0,0,1.78-1.64c.15-.37.32-.73.44-1.1C80.43,43.75,80.42,43.75,79.61,43.75Zm-22.39,5.9-.81,1.26h.81a.17.17,0,0,1,.19.19c0,.14-.09.17-.2.17H57c-.37,0-.91.17-1.06-.08s.27-.68.44-1,.62-.75.64-1.27c0-.22.05-.49-.27-.54s-.37.16-.39.39-.11.33-.32.26-.13-.27-.1-.41a.72.72,0,0,1,.81-.61c.48,0,.66.31.73.72A1.39,1.39,0,0,1,57.22,49.65Zm2.59,1a.7.7,0,0,1-.8.62.71.71,0,0,1-.73-.71c0-.31,0-.62,0-.93s0-.63,0-.94A.69.69,0,0,1,59,48a.7.7,0,0,1,.84.63A6.41,6.41,0,0,1,59.81,50.68Zm2.1.22c.13,0,.25,0,.26.19s-.12.18-.24.18h-.07c-.39-.05-1,.2-1.16-.13s.31-.67.48-1,.6-.72.62-1.21c0-.22.06-.49-.27-.54s-.37.14-.4.37-.09.33-.31.28-.14-.27-.12-.41a.72.72,0,0,1,.81-.62.7.7,0,0,1,.73.7,1.43,1.43,0,0,1-.3,1c-.25.38-.49.76-.77,1.21Zm1.75.37c-.22,0-.22-.14-.22-.29,0-.67,0-1.33,0-2,0-.14.09-.36-.21-.35-.11,0-.27.11-.31-.08s.13-.21.26-.28c.72-.4.72-.4.72.41V51C63.9,51.16,63.86,51.27,63.66,51.27Z"></path><path class="cls-2" d="M68.36,40.71v.82a.37.37,0,0,1-.39.4.36.36,0,0,1-.37-.36c0-.58,0-1.16,0-1.75a.36.36,0,0,1,.45-.33c.23,0,.29.21.29.41s0,.54,0,.81Z"></path><path class="cls-2" d="M65.42,40c0-.22-.08-.5.27-.5s.39.24.39.52-.09.46-.38.46S65.51,40.12,65.42,40Z"></path><path class="cls-2" d="M59.8,40.71c0-.27,0-.54,0-.81s0-.4.23-.42a.4.4,0,0,1,.46.34,6,6,0,0,1,0,1.79.39.39,0,0,1-.46.33c-.29,0-.23-.24-.23-.42s0-.54,0-.81Z"></path><path class="cls-2" d="M52.81,40.17c.06.25.11.5.16.76s0,.24-.18.25-.29,0-.26-.24.11-.52.16-.78Z"></path><path class="cls-1" d="M59.41,49.69c0,.27,0,.55,0,.82s-.09.42-.36.42-.35-.22-.35-.43c0-.58,0-1.17,0-1.75,0-.22.11-.42.39-.39s.31.19.32.39S59.41,49.38,59.41,49.69Z"></path><path class="cls-1" d="M65.78,15.24a4.52,4.52,0,0,0-.29,1.09c0,.12-.08.27.05.34a.55.55,0,0,0,.36,0c.21-.07.08-.24.06-.36C65.91,16,65.85,15.62,65.78,15.24Z"></path><path class="cls-1" d="M57.09,14.69a.39.39,0,0,0-.45.41c0,.33,0,.66,0,1h0c0,.38,0,.75,0,1.13s.21.38.47.38a.37.37,0,0,0,.42-.36,11.24,11.24,0,0,0,0-2.17A.39.39,0,0,0,57.09,14.69Z"></path><path class="cls-1" d="M47.28,14.68a.37.37,0,0,0-.41.38c0,.7,0,1.41,0,2.12a.39.39,0,0,0,.37.42c.27,0,.37-.17.4-.39s0-.7.07-1,0-.76-.07-1.14A.35.35,0,0,0,47.28,14.68Z"></path><path class="cls-1" d="M61.87,7.77c-.57,0-.21.42-.37.66.18.15-.18.57.36.55s.51-.29.5-.64S62.28,7.77,61.87,7.77Z"></path><path class="cls-1" d="M50.43,15.34a2.17,2.17,0,0,0,0-.26.37.37,0,0,0-.39-.4.39.39,0,0,0-.39.4c0,.71,0,1.42,0,2.12a.39.39,0,0,0,.4.4c.28,0,.36-.21.38-.41,0-.35,0-.71,0-1.06S50.44,15.6,50.43,15.34Z"></path><path class="cls-1" d="M63.29,14.68c-.49,0-.26.36-.34.63.15.14-.21.59.34.58s.53-.23.52-.61S63.71,14.68,63.29,14.68Z"></path><path class="cls-1" d="M80.38,3.74c0-.87,0-.89-.86-.89h-39c-.89,0-.9,0-.9.86,0,6.11,0,12.23,0,18.34,0,.58.15.73.73.73,6.55,0,13.1,0,19.65,0s13.18,0,19.77,0c.56,0,.7-.15.7-.7C80.38,16,80.39,9.85,80.38,3.74ZM45.1,15.17c0,.31,0,.62,0,.94v1.56c0,.14,0,.3-.2.3s-.27-.11-.27-.31V15.41c0-.24.07-.55-.37-.38-.09,0-.21.05-.26-.09a.2.2,0,0,1,.16-.28c.31,0,.54-.48.84-.3S45.07,14.89,45.1,15.17Zm3,2.06a.79.79,0,0,1-.83.77.81.81,0,0,1-.91-.76,7.09,7.09,0,0,1,0-1.13h0a8.34,8.34,0,0,1,0-1,.84.84,0,0,1,.92-.83.8.8,0,0,1,.84.82A10.11,10.11,0,0,1,48.13,17.23Zm2.77,0a.78.78,0,0,1-.82.77.8.8,0,0,1-.91-.74,8.84,8.84,0,0,1,0-2.24.79.79,0,0,1,.92-.73.78.78,0,0,1,.83.76c0,.35,0,.7,0,1.06h0C50.9,16.48,50.93,16.86,50.9,17.23Zm3.67.75c-.68.13-1.13-.13-1.18-.77a15,15,0,0,1,0-2.12c0-.6.42-.85,1-.8a.86.86,0,0,1,.82,1c0,.18,0,.33-.25.34s-.24-.16-.24-.33a1.06,1.06,0,0,0,0-.25.38.38,0,0,0-.43-.35c-.25,0-.41.12-.42.37s0,.75,0,1.12h0c0,.34,0,.67,0,1a.39.39,0,0,0,.43.42c.3,0,.4-.17.44-.42s0-.25,0-.38.09-.21.24-.2a.22.22,0,0,1,.25.2A1,1,0,0,1,54.57,18Zm1.2-10.21c-.09,0-.12-.09-.13-.18s0-.17.13-.18H57.2a.15.15,0,0,1,.16.15c0,.12,0,.22-.17.2-.53-.07-.42.31-.42.6,0,.77,0,1.54,0,2.31,0,.18,0,.38-.26.38s-.24-.22-.24-.39c0-.41,0-.83,0-1.25s0-.58,0-.87S56.49,7.69,55.77,7.77Zm2.28,9.48a.85.85,0,0,1-1,.75.83.83,0,0,1-.93-.81c0-.35,0-.71,0-1.06h0c0-.27,0-.55,0-.82,0-.7.31-1,.92-1s1,.23,1.05,1A7.52,7.52,0,0,1,58.05,17.25Zm.06-7.11a13.1,13.1,0,0,1,0-1.88c0-.64.36-.89,1-.88s.91.27,1,.91c0,.31,0,.63,0,.94h0c0,.29,0,.59,0,.88,0,.68-.34,1-1,1A.88.88,0,0,1,58.11,10.14ZM61.25,18c-.28,0-.2-.22-.2-.37,0-.6,0-1.21,0-2a10.88,10.88,0,0,0-.54,1.86c0,.17,0,.49-.27.48s-.18-.28-.23-.45A4.25,4.25,0,0,0,59.45,16v1.66c0,.17,0,.35-.24.33s-.17-.21-.17-.33c0-1,0-2,.06-3,0-.18,0-.38.26-.38s.28.18.32.37l.51,2.26h.13l.48-2.18c.05-.22.05-.47.39-.44s.21.3.22.47c0,.94,0,1.88,0,2.82C61.46,17.76,61.53,18,61.25,18Zm.3-7.95a1,1,0,0,1,0,.43c-.06.21.23.61-.26.6s-.21-.37-.23-.57c0-.41,0-.83,0-1.25a6.25,6.25,0,0,1,0-1.06c.05-.27-.32-.75.36-.77,1,0,1.34.13,1.41.79s-.15,1.12-.68,1.12S61.48,9.55,61.55,10Zm2.72,5.5c-.08.44-.33.75-.8.72s-.53.19-.5.56,0,.59,0,.88,0,.29-.22.29-.29-.08-.29-.29c0-.52,0-1,0-1.57s0-1,0-1.44c0-.27.1-.34.36-.36C63.94,14.23,64.45,14.65,64.27,15.52ZM66.53,18a.25.25,0,0,1-.3-.24c0-.14,0-.28-.07-.43s-.23-.25-.43-.25-.38,0-.41.26-.08.32-.11.49-.2.18-.33.16-.12-.16-.1-.27c.22-1,.44-2.08.65-3.13a.27.27,0,0,1,.29-.25.28.28,0,0,1,.32.23l.66,3.13C66.71,17.81,66.78,18,66.53,18Zm2.74,0c-.18.05-.25-.08-.31-.23-.27-.64-.54-1.28-.82-1.91l-.15,0c0,.59,0,1.19,0,1.78,0,.16,0,.35-.23.34s-.18-.18-.18-.31v-3c0-.13-.07-.31.17-.33s.25.13.3.26A14.81,14.81,0,0,0,69,16.47v-1.8c0-.15-.07-.36.21-.35s.2.22.2.37q0,1.47,0,2.94C69.37,17.75,69.43,17.91,69.27,18ZM71,17.64c0,.18,0,.33-.25.33s-.25-.15-.25-.32v-3c0-.17,0-.34.24-.34s.26.15.26.33v3Zm1.52-2.16c0,.33.09.45.42.42.13,0,.32-.05.32.18s-.15.17-.27.17c-.89,0-.35.66-.44,1s.27.33.51.35.37-.06.36.21S73.16,18,73,18C72,18.05,72,18,72,17c0-.63,0-1.26,0-1.88s0-1,.63-.76h.57c.1,0,.2,0,.21.16s-.09.24-.23.21C72.43,14.55,72.46,15,72.47,15.48Zm3.43,2.06A.82.82,0,0,1,75,18c-.48,0-.73-.31-.85-.79-.05-.18,0-.27.18-.33s.24,0,.27.21.14.49.46.51a.34.34,0,0,0,.37-.19.68.68,0,0,0-.16-.75c-.32-.31-.66-.59-1-.91a.93.93,0,0,1-.11-1.07.82.82,0,0,1,.86-.39.73.73,0,0,1,.73.49c.06.16.18.36-.08.48s-.26-.15-.32-.28a.42.42,0,0,0-.66-.23.41.41,0,0,0,0,.66c.31.34.68.62,1,1A1,1,0,0,1,75.9,17.54Z"></path><path class="cls-3" d="M85.29,39.33v-.12c-.61,0-1.21,0-1.82,0-.36,0-.49-.13-.46-.48a4.13,4.13,0,0,0,0-.5q0-18.58,0-37.17C83,.71,83,.36,83,0H36.93c0,.48,0,1,0,1.44q0,18.42,0,36.82a4.34,4.34,0,0,0,0,.51c0,.36-.13.47-.47.46-.53,0-1.07,0-1.74,0,.68,1,1.23,1.93,1.88,2.76a.73.73,0,0,1-.05,1.07c-.53.69-1,1.41-1.56,2.12-.23.31-.21.47.23.45s1,0,1.45,0a.47.47,0,0,1,.53.39,5.54,5.54,0,0,0,2.71,3.15c3.18,1.81,6.34,3.65,9.51,5.47,2.77,1.6,5.53,3.23,8.33,4.77a4.74,4.74,0,0,0,4.81-.12c5.68-3.24,11.33-6.55,17-9.8a6.24,6.24,0,0,0,3.25-3.57c.09-.29.3-.29.54-.29h2v-.13a28.29,28.29,0,0,1-2.09-2.77.35.35,0,0,1,0-.41A25.86,25.86,0,0,1,85.29,39.33Zm-3,6.79a5,5,0,0,1-2,2.43L62.55,58.84a4.83,4.83,0,0,1-5.12,0C55.22,57.58,53,56.32,50.81,55c-3.52-2-7-4.09-10.55-6.1a5.61,5.61,0,0,1-2.6-2.71c-.22-.52-.1-.66.44-.63.71,0,1.42,0,2.13,0-.17-.45-.35-.89-.5-1.34s0-.59.39-.54c.13,0,.25,0,.38,0l39.11,0c.81,0,.82,0,.56.77-.12.37-.29.73-.44,1.1.76,0,1.51,0,2.26,0C82.44,45.59,82.48,45.75,82.32,46.12ZM39.57,34.52c0-.52.17-.68.64-.61a2.09,2.09,0,0,0,.25,0H79.52c.89,0,.89,0,.89.87,0,.63,0,1.26,0,1.88s-.12.68-.65.67c-3.06,0-6.11,0-9.17,0H59.92c-6.54,0-13.07,0-19.6,0-.61,0-.8-.15-.75-.76A15.89,15.89,0,0,0,39.57,34.52Zm35.54,6.29c-.31,0-.4.14-.39.42s0,.42,0,.63,0,.36-.24.34-.2-.18-.2-.32V40.69h0V39.56c0-.18,0-.35.26-.33s.19.18.2.32,0,.38,0,.56.1.37.36.38.44-.09.42-.4a5.19,5.19,0,0,1,0-.56c0-.15,0-.3.22-.31s.24.13.24.29c0,.79,0,1.58,0,2.38,0,.15,0,.3-.21.31s-.23-.14-.23-.29,0-.46,0-.69S75.41,40.81,75.11,40.81Zm-1.88-.39c0,.46,0,.92,0,1.38,0,.14.07.38-.18.39s-.19-.22-.2-.37c0-.57,0-1.13,0-1.69a1,1,0,0,0,0-.24v0c0-.06,0-.1,0-.15s0,0,0,0a.05.05,0,0,1,0,0l-.05-.08h0l0-.06c-.12-.09-.27-.08-.32-.14-.06-.38,1.51-.32,1.51-.06,0,.08-.12,0-.26.1a.72.72,0,0,0-.21.16A1.36,1.36,0,0,0,73.23,40.42Zm-1.42-.81-.36,2.22c0,.16,0,.37-.26.36S71,42,71,41.85c-.1-.51-.2-1-.29-1.53h-.11c-.09.51-.18,1-.3,1.52,0,.15,0,.38-.27.36s-.16-.21-.18-.34c-.12-.68-.25-1.36-.35-2,0-.18-.16-.5.09-.54s.22.28.25.47c.06.41.12.83.18,1.31a3.2,3.2,0,0,0,.35-1.29c0-.19,0-.49.25-.52s.21.3.25.47c.11.46.19.93.3,1.43a9,9,0,0,0,.31-1.56c0-.15,0-.39.24-.34S71.83,39.47,71.81,39.61Zm-4.62,1c0-.25,0-.5,0-.75,0-.5.3-.71.73-.75a.71.71,0,0,1,.84.58,4.89,4.89,0,0,1,0,2c-.1.48-.49.57-.93.53a.64.64,0,0,1-.62-.71c0-.29,0-.59,0-.88Zm-.75,1.19c0,.11.21.28,0,.36s-.29-.07-.34-.26-.17-.6-.25-.9c0-.12-.1-.19-.22-.18s-.16.12-.16.22c0,.28,0,.55,0,.82s0,.32-.21.3-.17-.16-.17-.28V40.72h0a6.4,6.4,0,0,1,0-.76c0-.25-.16-.62.17-.72a1,1,0,0,1,1.06.14.68.68,0,0,1,.17.86C66.07,40.79,66.29,41.3,66.44,41.83Zm-3.36-.48c0,.26.08.5.39.57a.33.33,0,0,0,.41-.28c.06-.25.21-.55-.19-.68,0,0-.06-.08-.13-.17.47-.12.82-.16.75.47,0,.06,0,.13,0,.19-.09.23.21.66-.21.69-1.18.09-1.38,0-1.41-.72,0-.52,0-1.05,0-1.57s.38-.68.81-.71a.67.67,0,0,1,.76.58c0,.14.1.31-.11.36s-.2-.09-.24-.21-.2-.44-.49-.38-.32.32-.33.54C63.06,40.47,63.07,40.91,63.08,41.35Zm-2.16.13a1,1,0,0,1-1.38.71c-.19-.11-.13-.29-.13-.45,0-.62,0-1.25,0-1.87,0-.3-.14-.7.44-.68s1,0,1.08.66a6.46,6.46,0,0,1,0,.88h0C60.92,41,60.94,41.23,60.92,41.48ZM58,40c0,.26,0,.51.38.48.11,0,.22,0,.23.16a.16.16,0,0,1-.15.17c-.71,0-.42.53-.44.86s.38.24.59.33a.33.33,0,0,1,.1.06c-.75.4-1.09.22-1.1-.57a10.75,10.75,0,0,0-.06-1.88c-.06-.29,0-.44.36-.42a1.91,1.91,0,0,1,.9.13C58.49,39.55,57.89,39.35,58,40Zm-1.29,2.19c-.16,0-.2-.12-.25-.23l-.61-1.41-.12,0v1.35c0,.13,0,.27-.19.27s-.17-.15-.17-.27c0-.8,0-1.59,0-2.39,0-.12,0-.28.15-.29s.2.13.26.25A10.47,10.47,0,0,0,56.52,41c0-.45,0-.9,0-1.34,0-.15-.06-.39.2-.38s.17.2.17.34c0,.78,0,1.55,0,2.33C56.88,42,56.9,42.17,56.73,42.19Zm-2.1-1.46h0c0,.38,0,.75,0,1.13,0,.17,0,.35-.24.35s-.22-.16-.22-.31c0-.79,0-1.58,0-2.38,0-.15,0-.3.22-.31s.26.16.26.34ZM53.46,42.2c-.17,0-.28,0-.31-.21s0-.52-.38-.52-.38.24-.41.5a.23.23,0,0,1-.29.24c-.19,0-.13-.17-.13-.29.17-.79.34-1.58.52-2.36,0-.16,0-.35.28-.36s.28.21.32.38c.16.77.32,1.55.47,2.32C53.56,42,53.65,42.15,53.46,42.2Zm-2.71,0c-.38,0-.28-.35-.24-.52a6.19,6.19,0,0,0,.11-1.42c0-1.06-.62-.74-.62-.94,0-.38,1.61-.34,1.61-.07s-.62-.12-.6,1.3c0,.4,0,.79,0,1.19C51,41.94,51.09,42.22,50.75,42.21ZM49,41.07c-.26-.25-.52-.49-.76-.75a.69.69,0,0,1-.06-.82.67.67,0,0,1,.74-.36.65.65,0,0,1,.61.46c0,.12.09.25,0,.33s-.22,0-.3-.12-.29-.48-.57-.2,0,.47.17.67c.38.35.86.64.82,1.21s-.18.72-.63.74-.75-.06-.81-.56c0-.12-.11-.24.07-.31s.24,0,.29.17c.11.32.34.49.6.25S49.24,41.28,49,41.07Zm-1.53-.54h0c0,.3,0,.59,0,.88s-.11.79-.65.83-.82-.14-.91-.7a15.7,15.7,0,0,1-.06-2.06c0-.17.06-.28.26-.27s.21.16.21.31c0,.61,0,1.21,0,1.82,0,.27,0,.55.36.57s.41-.3.41-.59c0-.54,0-1.08,0-1.63,0-.17-.09-.45.18-.45s.2.3.21.48S47.5,40.26,47.5,40.53Zm-2.65.74c-.26-.3-.58-.54-.84-.84a.78.78,0,0,1,0-1.08.65.65,0,0,1,.9-.12.53.53,0,0,1,.32.5c0,.26-.15.28-.32.1s-.08-.15-.13-.21a.28.28,0,0,0-.44-.06.39.39,0,0,0,0,.56c.27.34.68.56.89,1,.31.6,0,1.15-.64,1.15a.66.66,0,0,1-.61-.32c-.11-.16-.24-.37-.06-.5s.27.1.36.24.24.37.49.21A.36.36,0,0,0,44.85,41.27Zm37.27-2.05c-.27,0-.38-.11-.35-.38s0-.29,0-.43c0-1,0-1-.94-1.08-.33,0-.31-.2-.31-.41,0-.88,0-1.76,0-2.64,0-.41-.1-.54-.52-.53-1.68,0-3.35,0-5,0q-17.39,0-34.79,0c-.6,0-.8.15-.75.76s0,1.51,0,2.26c0,.42-.09.64-.55.55-.67-.13-.84.2-.75.79a2.8,2.8,0,0,1,0,.5c0,.29.12.61-.42.62s-.47-.31-.47-.64q0-14.79,0-29.59c0-2.66,0-5.32,0-8,0-.51.12-.65.65-.65,7.34,0,14.69,0,22,0s14.65,0,22,0c.58,0,.71.15.71.72q0,18.75,0,37.5C82.65,39,82.68,39.29,82.12,39.22Z"></path></svg> 