<?xml version="1.0" encoding="UTF-8"?> <svg xmlns="http://www.w3.org/2000/svg" id="logo" viewBox="0 0 120 60"><defs><style>.cls-1{fill:#fff;}</style></defs><path class="cls-1" d="M55.57,8.06V8c0-1-.11-2,.9-2.67a5.59,5.59,0,0,1,3.62-1.13,5.3,5.3,0,0,1,3.4,1.48A1.63,1.63,0,0,1,64,6.85c0,.81,0,1.63,0,2.45,0,.38-.15.5-.52.5q-3.72,0-7.44,0c-.42,0-.56-.16-.53-.56s0-.79,0-1.19Z"></path><path class="cls-1" d="M51.91,23c-.34,1.33-.67,2.66-1,4-.1.41-.15.8-.77.77a.75.75,0,0,1-.84-.69c-.42-1.73-.91-3.45-1.34-5.17-.05-.2-.32-.58.13-.64s.87-.25,1,.4c.29,1.2.58,2.4.88,3.61.05.22.12.45.24.86.41-1.58.79-3,1.13-4.36.09-.35.17-.57.59-.54s.69,0,.8.5c.26,1.23.59,2.46.88,3.69,0,.17,0,.38.27.47.34-1.35.7-2.69,1-4.05.12-.57.43-.71.89-.58s.19.52.13.78c-.44,1.68-.91,3.35-1.34,5a.73.73,0,0,1-.85.67c-.52,0-.66-.22-.75-.68-.28-1.36-.62-2.71-.93-4.06Z"></path><path class="cls-1" d="M71.22,21.37c0-.62,0-1.19,0-1.76s.21-.63.66-.62.62.1.62.57c0,2.51,0,5,0,7.52a.62.62,0,0,1-1,.57c-.33-.22-.49-.11-.75,0a2.77,2.77,0,0,1-2.22-.1,1.68,1.68,0,0,1-1.08-1.61V23.48a2.25,2.25,0,0,1,2.9-2.35C70.58,21.19,70.85,21.27,71.22,21.37Zm0,3.08V23.5A1.23,1.23,0,0,0,70,22.2a1.1,1.1,0,0,0-1.31,1.05,14.31,14.31,0,0,0-.07,2.45c0,.7.4,1,1,1a1.34,1.34,0,0,0,1.62-1.5Z"></path><path class="cls-1" d="M46.79,23.75c0,1.32.16,1.22-1.24,1.22-.53,0-1.06,0-1.58,0-.29,0-.78-.23-.82.32s-.16,1.14.53,1.44a1.39,1.39,0,0,0,1.84-.56.7.7,0,0,1,1-.29c.43.2.13.6,0,.88a2.52,2.52,0,0,1-2.79,1A1.92,1.92,0,0,1,42,25.93,22,22,0,0,1,42,23a1.85,1.85,0,0,1,1.47-1.77C45,20.81,47,21.3,46.79,23.75Zm-2.4.32h.86c.19,0,.38,0,.4-.27A1.43,1.43,0,0,0,45,22.23a1.25,1.25,0,0,0-1.47.11,1.32,1.32,0,0,0-.37,1.51c.18.47.74.13,1.12.22Z"></path><path class="cls-1" d="M61.59,25c0,.69,0,1.37,0,2.06,0,.21.12.53-.22.58s-.65.18-.79-.15-.35-.26-.6-.13a3.11,3.11,0,0,1-1.45.32,1.81,1.81,0,0,1-1.62-1,1.71,1.71,0,0,1,1.47-2.67c.37-.05.75,0,1.11-.05s.89.33,1-.32-.19-1.5-.81-1.59a1.36,1.36,0,0,0-1.43.42,2.31,2.31,0,0,1-.14.19.76.76,0,0,1-1,.1c-.28-.21,0-.54.11-.78a2.7,2.7,0,0,1,3.06-.82,1.9,1.9,0,0,1,1.37,2c0,.61,0,1.21,0,1.82ZM59.51,25c-1.15,0-1.64.27-1.62.85s.47.91,1.06.93c.84,0,1.5-.45,1.5-1C60.46,25,60,24.89,59.51,25Z"></path><path class="cls-1" d="M76,27.85a2.6,2.6,0,0,1-2.15-.93c-.18-.26-.52-.62-.13-.88a.74.74,0,0,1,1,.17,1.67,1.67,0,0,0,2,.36.76.76,0,0,0,.47-.68.68.68,0,0,0-.5-.73c-.45-.13-.92-.22-1.38-.32-1.14-.26-1.74-.92-1.69-1.87a1.93,1.93,0,0,1,1.84-1.83,2.34,2.34,0,0,1,2.4.85c.16.21.47.53.19.75a.67.67,0,0,1-1-.11,1.31,1.31,0,0,0-1.49-.45.84.84,0,0,0-.78.85c0,.5.3.7.71.8s.77.16,1.16.24c1.08.21,1.62.76,1.65,1.7a1.88,1.88,0,0,1-1.6,2C76.51,27.79,76.24,27.82,76,27.85Z"></path><path class="cls-1" d="M63.78,21.19c.15,0,.42,0,.44.09.29.93.75.21,1.13.12s.6-.2.91-.26.62-.22.67.25.14.84-.5.82a.11.11,0,0,0-.08,0c-1.95.43-1.95.43-1.95,2.4,0,.84,0,1.68,0,2.52,0,.47-.18.59-.61.58s-.62-.09-.62-.56c0-1.79,0-3.58,0-5.37C63.17,21.35,63.3,21.12,63.78,21.19Z"></path><path class="cls-1" d="M67.09,35.94c-.12-.75.24-1,.92-1.06s.91.42.9,1.08-.23,1-.91,1S67,36.63,67.09,35.94Z"></path><path class="cls-1" d="M57.91,37.25c0,.48,0,1,0,1.43,0,.66-.37.89-.94.89s-1-.15-1-.84c0-1,0-2,0-3,0-.68.45-.75,1-.75s1,.13,1,.77Z"></path><path class="cls-1" d="M67.24,43.75c-.07-.38,0-.76.76-.69s1.11.12,1.09,1-.58.8-1.17.86C67,45,67.3,44.38,67.24,43.75Z"></path><path class="cls-1" d="M88.9,23.81c.17-.25.43-.46.44-.85-1.21,0-2.39,0-3.58,0-.5,0-.68-.1-.61-.65.22-1.8.38-3.62.61-5.43.07-.56,0-.79-.64-.76-1.29.05-2.59,0-3.88,0-.63,0-.84-.11-.84-.8,0-3.49,0-7,0-10.46,0-.51-.12-.67-.65-.66-1.34,0-2.69,0-4,0A2,2,0,0,1,74,3.67a2,2,0,0,0-1-.53,11.58,11.58,0,0,0-3-.23,2.32,2.32,0,0,0-2.3,1A9.68,9.68,0,0,0,52,4.06c-.27-.4-.54-.84-1-.94-1.7-.35-3.5-.54-5,.38a5.22,5.22,0,0,1-3.09.76c-.87,0-1.75,0-2.61,0-.64,0-.72.19-.72.75,0,3.49,0,7,0,10.47,0,.53-.1.72-.68.7-1.32,0-2.64,0-4,0-.65,0-.79.16-.71.78.24,1.76.38,3.52.61,5.27.08.61,0,.84-.7.8-.94-.06-1.9,0-2.85,0-.19,0-.45-.14-.56.12s.12.33.22.48c1.11,1.67,2.18,3.37,3.36,5a1.57,1.57,0,0,1,.1,2.15,15.66,15.66,0,0,0-1,1.82c-.54,1.07-1.08,2.14-1.66,3.27h7.33c.27,0,.55-.1.61.38a22.5,22.5,0,0,0,3.1,9c4,6.69,9.91,11.25,16.79,14.68a.83.83,0,0,0,.82,0c.43-.23.88-.43,1.31-.66a42.68,42.68,0,0,0,11.85-9.08A25.21,25.21,0,0,0,80.17,36.6c.1-.7.33-.83,1-.82,2.31,0,4.63,0,7,0a1.52,1.52,0,0,0-.29-.76c-.82-1.62-1.64-3.25-2.5-4.85a.9.9,0,0,1,.07-1.12C86.57,27.33,87.74,25.57,88.9,23.81ZM76.15,5.55a15.62,15.62,0,0,0,2.37,0c.52,0,.61.16.6.63,0,1.58,0,3.16,0,4.74s0,3.06,0,4.59c0,.48-.11.63-.6.62s-.62-.13-.62-.62c0-2.58,0-5.16,0-7.74,0-.55-.13-.77-.7-.7-.31,0-.63,0-.94,0-.52.06-.75,0-.85-.66S75.4,5.49,76.15,5.55ZM70.31,7.28a4.42,4.42,0,0,0-.63,0c-.56,0-.83-.22-.83-.8,0-2.5-.16-2,2-2.08,2.84-.32,3.62,1.5,3,3.88a14.79,14.79,0,0,1-4,6.77c-.19.19-.37.43-.67.29s-.25-.44-.25-.7c0-.53,0-1.06,0-1.58a2,2,0,0,1,.56-1.51A7.64,7.64,0,0,0,71.13,8.4C71.35,7.61,71.12,7.31,70.31,7.28ZM48.23,4.39a13.62,13.62,0,0,0,1.43,0c.76-.07,1.09.22,1,1a3.68,3.68,0,0,0,0,.47c0,.24,0,.48,0,.71,0,.56-.23.73-.76.74-1.65,0-1.76.25-1.23,1.82a7.71,7.71,0,0,0,1.48,2.4,2.06,2.06,0,0,1,.5,1.51c0,.61,0,1.22,0,1.82s-.24.66-.66.31a12.45,12.45,0,0,1-2.43-2.89A13.7,13.7,0,0,1,45.61,7.7C45.15,5.66,46.16,4.41,48.23,4.39ZM40.8,6.32c0-.62.17-.85.79-.76a7.37,7.37,0,0,0,.94,0h.64c1,0,1,0,.93,1,0,.39-.16.47-.51.48C42,7.14,42,7.15,42,8.7c0,2.27,0,4.54,0,6.81,0,.55-.19.62-.67.64s-.59-.21-.58-.65C40.82,12.44,40.83,9.38,40.8,6.32Zm-5.38,28c.4-.54.72-.92,1-1.34s.35-.32.56-.1c.43.44.84.91,1.31,1.44ZM74.81,46.45a36.21,36.21,0,0,1-8.49,8.4,43.64,43.64,0,0,1-5.84,3.57.84.84,0,0,1-.88.08C53.24,55.19,47.73,50.92,44,44.69a21.72,21.72,0,0,1-3.19-12c0-.48.19-.57.61-.54s.7-.09.69.53C41.9,40,45.34,45.62,50.53,50.37a39.64,39.64,0,0,0,8.58,5.87,1.64,1.64,0,0,0,1.67,0,35.65,35.65,0,0,0,13-10.75,20.62,20.62,0,0,0,4-11.74,5,5,0,0,0,0-.87c-.11-.66.21-.78.79-.76s.49.2.5.57A22.36,22.36,0,0,1,74.81,46.45ZM50.62,39.24c.07.42.42.22.64.23.58,0,1.17,0,1.75,0,.42,0,.77,0,.77.61s-.36.53-.73.52H51.46a2.54,2.54,0,0,1-.78,0c-.46-.12-1.16.4-1.36-.34-.36-1.35,0-2.3.92-2.69a13.09,13.09,0,0,1,1.45-.61c.84-.23.77-.88.65-1.46S51.59,35,51.1,35a.64.64,0,0,0-.63.76c.05.67-.41.5-.78.54-.56.06-.5-.3-.5-.65a1.53,1.53,0,0,1,1.45-1.74,4.36,4.36,0,0,1,1-.1c1.19.06,2,.58,2.05,1.47.14,1.55-.14,2.25-1.39,2.64-.45.14-.87.37-1.31.55A.65.65,0,0,0,50.62,39.24Zm-1.42,3.9c.22.86.44,1.73.67,2.6H50c.21-.81.4-1.62.64-2.42.06-.23,0-.61.36-.62s.33.34.4.58c.21.81.41,1.63.67,2.66a19.51,19.51,0,0,0,.76-2.64c.06-.23,0-.65.37-.57s.08.42,0,.61c-.23,1-.5,2.1-.77,3.14,0,.22,0,.53-.36.54s-.34-.35-.4-.58c-.23-.86-.44-1.73-.7-2.8l-.74,2.81c-.06.22,0,.52-.34.56s-.33-.3-.38-.5c-.3-1.09-.58-2.19-.85-3.29,0-.18-.2-.46.12-.52S49.15,42.93,49.2,43.14ZM54.13,43c0-.15.07-.27.22-.27s.22.17.22.32c0,.63,0,1.26,0,1.89h0c0,.6,0,1.21,0,1.81,0,.16,0,.33-.24.3s-.21-.14-.21-.28Zm5.09-5.72c0,.61,0,1.22,0,1.82a1.43,1.43,0,0,1-1,1.43,3.72,3.72,0,0,1-2.63-.07,1.36,1.36,0,0,1-.89-1.36c0-1.22,0-2.43,0-3.65A1.47,1.47,0,0,1,55.76,34a3.89,3.89,0,0,1,2.34,0,1.4,1.4,0,0,1,1.1,1.38c0,.63,0,1.27,0,1.9Zm4.05-.55h0c0,.69,0,1.38,0,2.06s.18.78.75.72c.38,0,.83-.11.82.53,0,.37-.1.59-.53.59-1.16,0-2.33,0-3.49,0-.41,0-.47-.23-.47-.56s.06-.54.46-.58c1.13-.13,1.13-.15,1.13-1.3,0-.74,0-1.48,0-2.22s-.08-.88-.76-.65c-.5.17-1,.17-.85-.61a.44.44,0,0,1,.41-.46c.68-.1,1.36-.21,2-.35.41-.08.51.09.5.46C63.26,35.13,63.27,35.92,63.27,36.71Zm7,2.38a1.38,1.38,0,0,1-.85,1.32,3.44,3.44,0,0,1-2.69,0,1.28,1.28,0,0,1-.82-1c0-.3-.26-.76.24-.86s.9-.28,1,.47c.08.58.62.57,1.07.53a.71.71,0,0,0,.71-.78c0-.63.1-1.09-.86-.85A1.73,1.73,0,0,1,66,37.19a3.12,3.12,0,0,1,0-2.67.77.77,0,0,1,.53-.44,4.36,4.36,0,0,1,2.4-.16,1.52,1.52,0,0,1,1.32,1.61c0,.58,0,1.16,0,1.74h0C70.24,37.88,70.26,38.48,70.24,39.09ZM69,45.58c.21.45.39.9.58,1.35-.68-.13-.75-.68-.93-1.1a.83.83,0,0,0-1-.57c-.58.09-.21.54-.3.82s.22.91-.23.9-.19-.61-.21-.94c0-.94,0-1.9,0-2.84,0-.38.12-.53.5-.51s.68,0,1,0,1,.08,1.12.68.34,1.29-.39,1.7C68.78,45.23,68.85,45.37,69,45.58ZM65.8,42.86c0,.17-.13.21-.26.21a6.33,6.33,0,0,1-.87,0c-.55-.07-.78.06-.76.7s.17.82.79.79c.32,0,.93-.22.93.19s-.64.19-1,.16c-.66-.06-.8.22-.76.8s-.09,1,.73.93c.41,0,1.2-.18,1.18.17s-.75.09-1.15.22a.42.42,0,0,1-.16,0c-1,0-1,0-1-1V44.88h0c0-.18,0-.37,0-.55,0-1.73.3-2,2-1.66C65.64,42.7,65.79,42.69,65.8,42.86ZM63.4,53.25a.78.78,0,0,0-1,0,.87.87,0,0,0-.32-1,.88.88,0,0,0,.87-.63c.07.51.41.55.74.67A.87.87,0,0,0,63.4,53.25Zm-1.52-7.53c0-.81,0-1.63,0-2.44,0-.21-.13-.56.21-.58s.23.34.23.54c0,1.11,0,2.22,0,3.33,0,.16.1.39-.17.45s-.33-.13-.42-.3l-1.6-2.81-.15,0v2.66c0,.17.06.43-.22.42s-.23-.24-.23-.42V43.11c0-.16,0-.35.17-.4s.32.12.42.29A23.41,23.41,0,0,0,61.88,45.72ZM59.9,51a1.67,1.67,0,0,0,1.65,1.21,1.64,1.64,0,0,0-.61,1.89,1.49,1.49,0,0,0-1.94,0,1.62,1.62,0,0,0-.51-1.82C59.13,52,59.76,51.92,59.9,51Zm-2.31,2.3a.79.79,0,0,0-1,0,.84.84,0,0,0-.27-1c.34-.12.67-.16.75-.67.2.43.42.63.86.63A.86.86,0,0,0,57.59,53.25Zm.25-6.57-1.13-2c-.08-.13-.12-.35-.32-.29s-.24.24-.24.44c0,.58,0,1.17,0,1.75,0,.17,0,.41-.22.43s-.23-.25-.23-.4c0-1.19,0-2.38,0-3.57,0-.15,0-.33.19-.37s.28.11.36.25l1.79,3c0-1,0-1.9,0-2.77,0-.17-.05-.43.2-.45s.28.26.28.46v3.4c0,.18,0,.4-.2.46S57.94,46.86,57.84,46.68ZM38.24,30.9c-.67,0-1-.12-1-.87-.24-2.45-.58-4.9-.88-7.35-.18-1.49-.27-3-.54-4.46-.15-.8.14-.82.74-.82,5.23,0,10.46,0,15.69,0,.7,0,1-.12.68-.84a2.73,2.73,0,0,1-.07-.86c0-3,0-6.08,0-9.11a3.82,3.82,0,0,1,1.41-3.12,8.3,8.3,0,0,1,11.45.32,3.53,3.53,0,0,1,1.1,2.55c0,1.79,0,3.59,0,5.38,0,.69-.29.93-1,.93-3.16,0-6.33,0-9.5,0-.64,0-.87.18-.79.8a2.89,2.89,0,0,1,0,.72c-.38,2.89,1.84,3.85,4,4a4.41,4.41,0,0,0,4.38-2.13,2.5,2.5,0,0,1,2.6-.36.87.87,0,0,1,.29.86c0,.26-.13.51-.22.88H82.75c1.68,0,1.65,0,1.44,1.67-.39,3.1-.74,6.21-1.11,9.31-.08.68-.2,1.36-.28,2,0,.35-.2.45-.51.45s-.48,0-.71,0Zm43.65,3.42c.47-.53.88-1,1.31-1.44.21-.22.39-.18.56.1s.59.8,1,1.34Z"></path></svg> 