<?xml version="1.0" encoding="UTF-8"?> <svg xmlns="http://www.w3.org/2000/svg" id="logo" viewBox="0 0 120 60"><defs><style>.cls-1{fill:none;stroke:#fff;stroke-miterlimit:10;}.cls-2{fill:#fff;}</style></defs><g id="Layer_2" data-name="Layer 2"><g id="Bild"><line class="cls-1" x1="29.58" y1="6.04" x2="29.58" y2="53.57"></line><path class="cls-2" d="M39.2,17H37.05V9l-2.46,1.22V8l3.2-1.58h1.4Z"></path><path class="cls-2" d="M40.79,11.73c0-3.22,1.68-5.45,4.16-5.45s4.16,2.23,4.16,5.45S47.43,17.17,45,17.17,40.79,15,40.79,11.73Zm2.15,0c0,2,.58,3.49,2,3.49s2-1.53,2-3.49-.61-3.49-2-3.49S42.94,9.77,42.94,11.73Z"></path><path class="cls-2" d="M50.21,11.73c0-3.22,1.69-5.45,4.17-5.45s4.16,2.23,4.16,5.45-1.68,5.44-4.16,5.44S50.21,15,50.21,11.73Zm2.16,0c0,2,.58,3.49,2,3.49s2-1.53,2-3.49-.61-3.49-2-3.49S52.37,9.77,52.37,11.73Z"></path><path class="cls-2" d="M59.64,11.73c0-3.22,1.69-5.45,4.17-5.45S68,8.51,68,11.73s-1.69,5.44-4.16,5.44S59.64,15,59.64,11.73Zm2.15,0c0,2,.59,3.49,2,3.49s2-1.53,2-3.49-.6-3.49-2-3.49-2,1.53-2,3.49Z"></path><path class="cls-2" d="M39.56,22.23v5.58h-.72V25.27H35.68v2.55H35V22.23h.72v2.4h3.16v-2.4Z"></path><path class="cls-2" d="M41.17,23a.45.45,0,0,1-.44-.43.44.44,0,0,1,.44-.44h0a.44.44,0,0,1,.45.43h0A.45.45,0,0,1,41.17,23Zm.34,4.83h-.68v-4h.68Z"></path><path class="cls-2" d="M45.39,27.27a1.44,1.44,0,0,1-1.13.55,1.87,1.87,0,0,1-1.81-2.07,1.86,1.86,0,0,1,1.81-2.06,1.44,1.44,0,0,1,1.13.53v-.45h.69v3.71a1.84,1.84,0,0,1-2,1.95,2.23,2.23,0,0,1-1.3-.36v-.74a1.8,1.8,0,0,0,1.3.5,1.21,1.21,0,0,0,1.29-1.11v-.45Zm0-2.36a1.19,1.19,0,0,0-1-.63c-.76,0-1.21.61-1.21,1.46s.45,1.44,1.21,1.44a1.18,1.18,0,0,0,1-.62Z"></path><path class="cls-2" d="M47.29,21.9H48v2.38a1.53,1.53,0,0,1,1.2-.59,1.34,1.34,0,0,1,1.42,1.48v2.65H49.9V25.27a.84.84,0,0,0-.89-.95,1.1,1.1,0,0,0-1,.75v2.74h-.67Z"></path><path class="cls-2" d="M51.5,25.11h2.19v.64H51.5Z"></path><path class="cls-2" d="M58.43,26.83V25.5H57.2v-.6h1.89v2.19a2.55,2.55,0,0,1-2,.8A2.61,2.61,0,0,1,54.51,25a2.68,2.68,0,0,1,2.7-2.88,2.51,2.51,0,0,1,1.61.5v.76a2.27,2.27,0,0,0-1.61-.62,2,2,0,0,0-2,2.24,2,2,0,0,0,3.2,1.81Z"></path><path class="cls-2" d="M62.27,24.45a.83.83,0,0,0-.46-.11,1,1,0,0,0-.94.76v2.7H60.2V23.75h.67v.54a1.13,1.13,0,0,1,1-.6.91.91,0,0,1,.4.06Z"></path><path class="cls-2" d="M64.56,27.89a1.89,1.89,0,0,1-1.86-2.1,1.87,1.87,0,1,1,3.72,0A1.9,1.9,0,0,1,64.56,27.89Zm0-3.6c-.73,0-1.16.61-1.16,1.5s.43,1.51,1.16,1.51,1.17-.62,1.17-1.51S65.29,24.29,64.56,24.29Z"></path><path class="cls-2" d="M70.74,26.85l.9-3.08h.67l-1.19,4.05h-.68l-.83-3.07-.85,3.07h-.67l-1.2-4.05h.68l.89,3.08.83-3.08h.61Z"></path><path class="cls-2" d="M74.21,27.81h-.68V24.35h-.85v-.58h.85V22.7h.68v1.07h.93v.58h-.93Z"></path><path class="cls-2" d="M76,21.9h.68v2.38a1.49,1.49,0,0,1,1.19-.59,1.34,1.34,0,0,1,1.42,1.48v2.65h-.69V25.27a.84.84,0,0,0-.89-.95,1.09,1.09,0,0,0-1,.75v2.74H76Z"></path><path class="cls-2" d="M84.79,22.14a2.23,2.23,0,0,1,1.5.48v.76a2,2,0,0,0-1.49-.6A2,2,0,0,0,82.89,25a2,2,0,0,0,1.91,2.23,2.12,2.12,0,0,0,1.49-.6v.76a2.23,2.23,0,0,1-1.5.48A2.64,2.64,0,0,1,82.17,25,2.64,2.64,0,0,1,84.79,22.14Z"></path><path class="cls-2" d="M88.93,27.89a1.89,1.89,0,0,1-1.86-2.1,1.87,1.87,0,1,1,3.72,0A1.9,1.9,0,0,1,88.93,27.89Zm0-3.6c-.73,0-1.17.61-1.17,1.5s.44,1.51,1.17,1.51,1.16-.63,1.16-1.51S89.66,24.29,88.93,24.29Z"></path><path class="cls-2" d="M95.83,23.69c.82,0,1.27.57,1.27,1.44v2.68h-.69V25.24c0-.56-.25-.94-.77-.94a1,1,0,0,0-.89.72v2.79h-.68V25.24c0-.56-.24-.94-.76-.94a1,1,0,0,0-.9.72v2.79h-.67v-4h.67v.47a1.27,1.27,0,0,1,1.1-.55,1.18,1.18,0,0,1,1.09.64A1.47,1.47,0,0,1,95.83,23.69Z"></path><path class="cls-2" d="M98.93,29.36h-.67V23.77h.67v.47a1.42,1.42,0,0,1,1.14-.55,1.88,1.88,0,0,1,1.82,2.1,1.88,1.88,0,0,1-1.82,2.1,1.43,1.43,0,0,1-1.14-.55Zm0-2.75a1.16,1.16,0,0,0,1,.67c.77,0,1.23-.63,1.23-1.48s-.46-1.49-1.23-1.49a1.17,1.17,0,0,0-1,.68Z"></path><path class="cls-2" d="M105.07,25.12c0-.5-.37-.81-1-.81a2.06,2.06,0,0,0-1.15.36V24a2.4,2.4,0,0,1,1.25-.34,1.35,1.35,0,0,1,1.53,1.39v2.74h-.68V27.5a1.56,1.56,0,0,1-1,.38,1.35,1.35,0,0,1-1.5-1.29c0-.8.67-1.27,1.54-1.27a1.68,1.68,0,0,1,1,.34Zm0,1.27a1,1,0,0,0-.94-.5c-.49,0-1,.21-1,.7s.47.72,1,.72a1,1,0,0,0,.94-.5Z"></path><path class="cls-2" d="M106.9,23.77h.68v.51a1.46,1.46,0,0,1,1.19-.59,1.33,1.33,0,0,1,1.42,1.47v2.65h-.69V25.27a.84.84,0,0,0-.89-.95,1.1,1.1,0,0,0-1,.75v2.74h-.67Z"></path><path class="cls-2" d="M111.68,23a.44.44,0,0,1-.44-.43.45.45,0,0,1,.45-.45.44.44,0,1,1,0,.88Zm.34,4.83h-.67v-4H112Z"></path><path class="cls-2" d="M113.64,25.91A1.29,1.29,0,0,0,115,27.29a1.75,1.75,0,0,0,1.15-.38v.63a1.93,1.93,0,0,1-1.23.35,1.88,1.88,0,0,1-2-2.07,1.88,1.88,0,0,1,1.8-2.13c1.08,0,1.66.79,1.66,2v.25Zm0-.54h2.09c0-.59-.34-1.1-1-1.1S113.81,24.62,113.68,25.37Z"></path><path class="cls-2" d="M117.16,26.76a2,2,0,0,0,1.33.54c.44,0,.84-.17.84-.57s-.23-.46-.59-.58l-.55-.19c-.61-.2-1-.5-1-1.15s.62-1.14,1.42-1.14a2.1,2.1,0,0,1,1.21.36v.71a1.78,1.78,0,0,0-1.21-.48c-.42,0-.77.18-.77.53s.22.43.6.57l.62.21a1.18,1.18,0,0,1,1,1.14c0,.75-.67,1.18-1.51,1.18a2.18,2.18,0,0,1-1.33-.41Z"></path><path class="cls-2" d="M37.73,32l2.14,5.59H38.69l-.5-1.35H36.11l-.49,1.35H34.45L36.58,32Zm-1.28,3.24h1.34l-.67-1.85Z"></path><path class="cls-2" d="M40.33,36.23a2.26,2.26,0,0,0,1.4.56c.34,0,.6-.1.6-.33s-.18-.31-.46-.41l-.39-.1c-.71-.2-1.16-.53-1.16-1.23s.68-1.28,1.59-1.28a2.32,2.32,0,0,1,1.31.37v1a2,2,0,0,0-1.25-.5c-.31,0-.55.12-.55.33s.16.29.44.39l.46.13c.77.22,1.13.58,1.13,1.24,0,.82-.73,1.26-1.69,1.26a2.54,2.54,0,0,1-1.44-.41Z"></path><path class="cls-2" d="M44.77,33a.65.65,0,1,1,.67-.64.63.63,0,0,1-.65.64Zm.56,4.6H44.21V33.52h1.13Z"></path><path class="cls-2" d="M48.55,35.06c0-.4-.33-.64-.91-.64a2,2,0,0,0-1.11.34v-1a2.79,2.79,0,0,1,1.35-.34c1.12,0,1.75.58,1.75,1.57v2.59H48.55v-.21a1.64,1.64,0,0,1-1,.29,1.36,1.36,0,0,1-1.51-1.33A1.41,1.41,0,0,1,47.64,35a1.82,1.82,0,0,1,.91.24Zm0,1.14a.76.76,0,0,0-.71-.36c-.34,0-.72.15-.72.5s.36.5.72.5a.75.75,0,0,0,.71-.34Z"></path><path class="cls-2" d="M50.43,34.72h2.21v1H50.45Z"></path><path class="cls-2" d="M54.66,35.65v1.94H53.51V32h2.27a1.83,1.83,0,1,1,0,3.65ZM55.71,33H54.66v1.67h1.05A.84.84,0,1,0,55.86,33Z"></path><path class="cls-2" d="M60.52,35.06c0-.4-.33-.64-.91-.64a2,2,0,0,0-1.11.34v-1a2.79,2.79,0,0,1,1.35-.34C61,33.43,61.6,34,61.6,35v2.59H60.52v-.21a1.67,1.67,0,0,1-1,.29A1.36,1.36,0,0,1,58,36.34,1.41,1.41,0,0,1,59.61,35a1.82,1.82,0,0,1,.91.24Zm0,1.14a.76.76,0,0,0-.71-.36c-.36,0-.73.15-.73.5s.37.5.73.5a.75.75,0,0,0,.71-.34Z"></path><path class="cls-2" d="M64.35,33.43a1.86,1.86,0,0,1,1.1.32v1a1.42,1.42,0,0,0-1-.37,1.15,1.15,0,0,0-1.06,1.24,1.14,1.14,0,0,0,1.06,1.06,1.47,1.47,0,0,0,1-.37v1a1.79,1.79,0,0,1-1.1.31,2.13,2.13,0,0,1,0-4.25Z"></path><path class="cls-2" d="M66.81,33a.65.65,0,1,1,0-1.29.66.66,0,0,1,.63.65.65.65,0,0,1-.66.64Zm.57,4.6H66.24V33.52h1.13Z"></path><path class="cls-2" d="M70.73,32.66a.6.6,0,0,0-.39-.11.51.51,0,0,0-.56.45.21.21,0,0,0,0,.11v.41h.85v.92h-.85v3.15H68.67V34.44H68v-.92h.68V33a1.35,1.35,0,0,1,1.24-1.45h.2a1.45,1.45,0,0,1,.62.11Z"></path><path class="cls-2" d="M71.87,33a.64.64,0,0,1-.62-.67.65.65,0,1,1,.63.67Zm.56,4.6H71.3V33.52h1.13Z"></path><path class="cls-2" d="M75.25,33.43a1.89,1.89,0,0,1,1.1.32v1a1.45,1.45,0,0,0-1-.37,1.15,1.15,0,0,0,0,2.3,1.45,1.45,0,0,0,1-.37v1a1.81,1.81,0,0,1-1.1.31,2.13,2.13,0,1,1,0-4.25Z"></path><path class="cls-2" d="M41.82,51.88v1.91H34.59v-.07l3.08-4c1-1.28,1.69-2.14,1.69-3.24a1.35,1.35,0,0,0-1.54-1.38,4.68,4.68,0,0,0-3,1.38V44.31a5,5,0,0,1,3.37-1.26,3,3,0,0,1,3.35,3.13c0,1.4-.89,2.65-1.91,4L38.4,51.88Z"></path><path class="cls-2" d="M42.74,48.51c0-3.22,1.68-5.46,4.16-5.46s4.16,2.24,4.16,5.46S49.38,54,46.9,54,42.74,51.72,42.74,48.51Zm2.15,0c0,2,.58,3.49,2,3.49s2-1.53,2-3.49-.61-3.5-2-3.5-2,1.53-2,3.5Z"></path><path class="cls-2" d="M59.21,51.88v1.91H52v-.07l3.08-4c1-1.28,1.69-2.14,1.69-3.24a1.34,1.34,0,0,0-1.53-1.38,4.68,4.68,0,0,0-3,1.38V44.31a5.05,5.05,0,0,1,3.35-1.26A3,3,0,0,1,59,46.18c0,1.4-.9,2.65-1.91,4l-1.29,1.69Z"></path><path class="cls-2" d="M60.13,48.51c0-3.22,1.68-5.46,4.16-5.46s4.17,2.24,4.17,5.46S66.77,54,64.29,54,60.13,51.72,60.13,48.51Zm2.15,0c0,2,.58,3.49,2,3.49s2-1.53,2-3.49-.6-3.5-2-3.5S62.28,46.54,62.28,48.51Z"></path><path class="cls-2" d="M1.57,50.87c-.05-.29-.19-.46-.43-.46s-.34.11-.34.29c0,.57,1.42.8,1.42,1.89a1,1,0,0,1-1.06,1,1.11,1.11,0,0,1-1.16-1l.67-.19c0,.31.16.58.5.58a.31.31,0,0,0,.34-.28v0c0-.63-1.42-.87-1.42-1.86a1,1,0,0,1,1-1h0a1.12,1.12,0,0,1,1.11,1Z"></path><path class="cls-2" d="M2.53,50.48v-.62H3v-1h.77v1h.5v.62h-.5v2.1c0,.19.08.3.25.3h.25v.65a1.17,1.17,0,0,1-.37,0c-.57,0-.89-.26-.89-.81V50.49Z"></path><path class="cls-2" d="M4.63,50.93a1.1,1.1,0,0,1,1.08-1.14h.13c.71,0,1.11.34,1.11,1v2.34a2.45,2.45,0,0,0,0,.38H6.27a2.36,2.36,0,0,0,0-.28,1.26,1.26,0,0,1-.89.33.73.73,0,0,1-.77-.69v-.12c0-.8.53-1.24,1.62-1.65v-.22c0-.31-.12-.47-.37-.47s-.42.2-.44.52Zm1.56.72c-.68.4-.86.65-.86,1s.12.34.35.34a.67.67,0,0,0,.51-.34Z"></path><path class="cls-2" d="M7.43,50.48v-.62h.4v-1h.76v1h.53v.62H8.61v2.1c0,.19.08.3.26.3h.25v.65a1.23,1.23,0,0,1-.38,0c-.57,0-.89-.26-.89-.81V50.49Z"></path><path class="cls-2" d="M9.6,49.56v-.67h.76v.67Zm0,3.95V49.86h.76V53.5Z"></path><path class="cls-2" d="M12.49,50.87c-.05-.29-.19-.46-.43-.46s-.34.11-.34.29c0,.57,1.42.8,1.42,1.89a1,1,0,0,1-1.06,1,1.1,1.1,0,0,1-1.16-1l.67-.19c.05.31.16.58.5.58a.3.3,0,0,0,.34-.27v0c0-.63-1.42-.87-1.42-1.86a1,1,0,0,1,1-1h0a1.12,1.12,0,0,1,1.11,1Z"></path><path class="cls-2" d="M13.43,50.48v-.62h.41v-1h.76v1h.51v.62H14.6v2.1c0,.19.08.3.26.3h.25v.65a1.26,1.26,0,0,1-.38,0c-.57,0-.89-.26-.89-.81V50.49Z"></path><path class="cls-2" d="M15.53,50.93a1.1,1.1,0,0,1,1.08-1.14h.13c.71,0,1.11.34,1.11,1v2.34a1.65,1.65,0,0,0,0,.38h-.72a2.36,2.36,0,0,0,0-.28,1.26,1.26,0,0,1-.89.33.72.72,0,0,1-.77-.69.24.24,0,0,1,0-.12c0-.8.53-1.24,1.62-1.65v-.22c0-.31-.13-.47-.38-.47s-.41.2-.43.52Zm1.56.72c-.67.4-.86.65-.86,1a.3.3,0,0,0,.34.34.67.67,0,0,0,.51-.34Z"></path><path class="cls-2" d="M23.86,48.89H19.49a.16.16,0,0,0-.16.16v3h0a3.1,3.1,0,0,0,1-.17,2.26,2.26,0,0,0,.66-.61l.17-.25.07-.09,0-.07.16-.23a3.24,3.24,0,0,1,1-.93A3.48,3.48,0,0,1,24,49.37h0V49A.17.17,0,0,0,23.86,48.89ZM23,50.62a2,2,0,0,0-.65.6l-.18.25-.05.08-.05.07-.17.23a3.17,3.17,0,0,1-1,.93,3.55,3.55,0,0,1-1.51.31v.33a.17.17,0,0,0,.16.17h4.37a.17.17,0,0,0,.17-.16h0v-3H24a3.18,3.18,0,0,0-1,.16Z"></path><path class="cls-2" d="M.18,6V29.56H23.7V6Zm10.88,6.47h-.44c-.23-2.29-.68-2.69-2.74-2.69H6.26v4.39H7.54c1.4,0,1.47-.23,1.58-1.32h.4v3.19h-.4c-.11-1.1-.18-1.3-1.58-1.3H6.26v3.78c0,.78.21.95,1.64.95V20h-5v-.46c1,0,1.41-.05,1.41-.91V10.68c0-.85-.37-.9-1.41-.9V9.3H9.56a7.56,7.56,0,0,0,1.5-.09Zm10.64,0h-.44c-.23-2.29-.67-2.69-2.73-2.69H18v8.73c0,.83.34,1,1.65,1V20H14.32v-.44c1.32,0,1.66-.13,1.66-1V9.83h-.57c-2.05,0-2.5.39-2.73,2.7h-.45V9.21a7.61,7.61,0,0,0,1.51.09H20.2a7.56,7.56,0,0,0,1.5-.09Z"></path><path class="cls-2" d="M1.07,33.76c0,.21.06.26.46.26v.13H.18V34c.27,0,.36,0,.36-.26V31.58c0-.24-.09-.26-.36-.26v-.13H2a3,3,0,0,0,.42,0V32H2.37c-.07-.61-.22-.68-.78-.68H1.07v1.22h.41c.39,0,.41-.07.44-.37H2v.9H1.92c0-.31,0-.38-.44-.38H1.07Z"></path><path class="cls-2" d="M2.74,34.15V34c.27,0,.36,0,.36-.26V31.58c0-.24-.09-.26-.36-.26v-.13H4v.13c-.26,0-.36,0-.36.26v2.18c0,.24.1.26.36.26v.13Z"></path><path class="cls-2" d="M6.9,34.2l-2-2.51v2.06c0,.24.17.27.44.27v.13H4.24V34c.28,0,.44,0,.44-.27V31.46a.48.48,0,0,0-.44-.14v-.13h1l1.55,2v-1.6c0-.24-.16-.27-.44-.27v-.13H7.39v.13c-.28,0-.44,0-.44.27V34.2Z"></path><path class="cls-2" d="M8.35,34.15H7.28V34c.29,0,.42,0,.5-.28l1-2.58H9l1,2.6c.1.23.14.26.34.26v.13H9.17V34c.38,0,.41,0,.33-.26L9.2,33H8.25L8,33.74c-.09.23,0,.28.37.28Zm0-1.35h.81l-.42-1Z"></path><path class="cls-2" d="M13.2,34.2l-2-2.52v2.06c0,.24.17.28.45.28v.13h-1V34c.26,0,.41,0,.41-.28V31.47a.57.57,0,0,0-.51-.15v-.13h1l1.55,2v-1.6c0-.24-.17-.27-.44-.27v-.13h1.07v.13c-.28,0-.43,0-.43.27V34.2Z"></path><path class="cls-2" d="M16.2,31.18h.08l0,.89H16.2a.77.77,0,0,0-.77-.78h-.06c-.55,0-1,.47-1,1.2a1.3,1.3,0,0,0,1.19,1.45,1,1,0,0,0,.74-.34l.08.09a1.29,1.29,0,0,1-1.07.49,1.49,1.49,0,0,1-1.5-1.47v0a1.52,1.52,0,0,1,1.47-1.55h.06a2.54,2.54,0,0,1,.71.17C16.14,31.31,16.17,31.27,16.2,31.18Z"></path><path class="cls-2" d="M16.66,34.15V34c.27,0,.36,0,.36-.26V31.58c0-.24-.09-.26-.36-.26v-.13h1.27v.13c-.27,0-.36,0-.36.26v2.18c0,.24.09.26.36.26v.13Z"></path><path class="cls-2" d="M19.14,34.15h-1V34a.37.37,0,0,0,.44-.28h0l1-2.58h.27l1,2.6c.1.23.14.26.34.26v.13H20V34c.38,0,.41,0,.33-.26L20,33H19l-.27.77c-.09.23,0,.28.38.28Zm-.05-1.35h.82l-.43-1Z"></path><path class="cls-2" d="M21.4,34.15V34c.26,0,.36,0,.36-.26V31.58c0-.24-.1-.26-.36-.26v-.13h1.26v.13c-.26,0-.36,0-.36.26v2.2c0,.2.1.22.26.22h.16c.57,0,.76-.08.91-.74h.11l-.09.87Z"></path><path class="cls-2" d="M2.85,35.76v.88H2.76c-.07-.63-.22-.71-.79-.71H1.79v2.42c0,.23.09.27.46.27v.13H.78v-.13c.37,0,.46,0,.46-.27V35.93H1.06c-.56,0-.72.08-.78.71H.17v-.88a2,2,0,0,0,.42,0H2.44A1.85,1.85,0,0,0,2.85,35.76Z"></path><path class="cls-2" d="M3.14,38.75v-.13c.27,0,.37,0,.37-.26V36.18c0-.24-.1-.26-.37-.26v-.14H4.41v.14c-.26,0-.36,0-.36.26v2.18c0,.23.1.26.36.26v.13Z"></path><path class="cls-2" d="M8.24,35.78v.14c-.27,0-.39,0-.36.25l.22,2.2c0,.22.12.25.38.25v.13H7.22v-.13c.26,0,.35,0,.33-.25l-.24-2.3-.93,2.74h0l-.9-2.74-.23,2.31c0,.23.14.25.41.25v.13h-1v-.13c.27,0,.36,0,.38-.25l.23-2.2c0-.23-.1-.25-.36-.25V35.8h1l.62,2,.68-2Z"></path><path class="cls-2" d="M10.61,37.66H10.5c0-.3-.05-.36-.44-.36H9.61v1.08c0,.19.1.22.26.22h.26c.57,0,.76-.09.91-.74h.11l-.1.87H8.7V38.6c.27,0,.36,0,.36-.26V36.18c0-.24-.09-.26-.36-.26v-.14h2.24v.74h-.11c-.07-.52-.2-.59-.79-.59H9.6v1.21h.46c.41,0,.41-.06.44-.36h.11Z"></path><path class="cls-2" d="M13,38.14c0-.27-.17-.41-.47-.57L12,37.32c-.33-.19-.56-.39-.56-.76a.85.85,0,0,1,.89-.83h0a2.09,2.09,0,0,1,.64.17c.06,0,.09,0,.12-.13h.09l0,.84h-.11a.79.79,0,0,0-.76-.72.46.46,0,0,0-.51.4v0c0,.29.22.4.45.53l.41.22c.38.2.65.42.65.81a.94.94,0,0,1-1,.9h0a2.08,2.08,0,0,1-.7-.19c-.07,0-.1.06-.13.15h-.09l-.06-.88h.11a.84.84,0,0,0,.85.78C12.7,38.64,13,38.49,13,38.14Z"></path></g></g></svg> 