<?xml version="1.0" encoding="UTF-8"?> <svg xmlns="http://www.w3.org/2000/svg" id="logo" viewBox="0 0 120 60"><defs><style>.cls-1{fill:#fff;}</style></defs><path class="cls-1" d="M26.72,3.28A14.71,14.71,0,1,1,12,17.71,14.7,14.7,0,0,1,26.72,3.28ZM36.86,25.22A1.84,1.84,0,0,0,37,25,12.23,12.23,0,0,0,39,15.62,12.39,12.39,0,0,0,34.6,8.29a13,13,0,0,0-4.92-2.56c-.49-.13-.5-.12-.62.38l-.15.67c-.15.63-.14.64.5.76a10.64,10.64,0,0,1,5.38,2.75A11.48,11.48,0,0,1,38,22.5,19.61,19.61,0,0,1,36.86,25.22Z"></path><path class="cls-1" d="M33.68,33.92A11.83,11.83,0,0,1,30.87,35a16.19,16.19,0,0,1-4.37.57,17.32,17.32,0,0,1-11-3.9A17.17,17.17,0,0,1,9.07,19.93a17.27,17.27,0,0,1,4.3-13.8,17,17,0,0,1,11.8-6A17.62,17.62,0,0,1,40.42,6.13a17.17,17.17,0,0,1,4.41,10.19,17.74,17.74,0,0,1-4.22,13.41c-.42.51-.89,1-1.35,1.45a2.41,2.41,0,0,0-.13,3.27q.27.33.57.63l4.38,4.37a2.47,2.47,0,0,0,3.76,0,5.51,5.51,0,0,0,.9-1,2.5,2.5,0,0,0-.48-3.21c-1.51-1.53-3-3-4.54-4.57a1.83,1.83,0,0,1-.32-.36.65.65,0,0,1,.46-1,3.38,3.38,0,0,1,.45,0q33,0,66.08,0c.21,0,.53-.12.61.16a1.94,1.94,0,0,1,0,1c0,.1-.16.1-.25.1h-60c-1.55,0-3.1-.07-4.65.06-.1,0-.25,0-.29.07s.09.18.16.26l3.42,3.4a2.82,2.82,0,0,1,.68.89.62.62,0,0,0,.69.41h13c.83,0,1,.25.82,1.08a.24.24,0,0,1-.28.22H51.16c-.6,0-.6,0-.63.57a3.15,3.15,0,0,1-.32,1.21c-.72,1.42-2.42,3.17-4.49,3a3.89,3.89,0,0,1-2.5-1.11c-1.67-1.66-3.35-3.33-5-5a3.89,3.89,0,0,1,0-5.53,17.83,17.83,0,0,0,3.56-4.93,16.11,16.11,0,0,0,1.52-9A16.32,16.32,0,0,0,34.76,3.39a15.68,15.68,0,0,0-9.16-2A16.46,16.46,0,0,0,14.36,6.8a16,16,0,0,0-4.24,9.05,16.54,16.54,0,0,0,5.45,14.92,16.43,16.43,0,0,0,9.87,4.34A16.88,16.88,0,0,0,33.57,34Z"></path><path class="cls-1" d="M72.83,11.14c-.85,1.64-1.56,3.33-2.28,5a.7.7,0,0,1-.78.51c-.94-.05-.78.14-1.19-.8C68,14.45,67.32,13,66.69,11.62a1,1,0,0,0-.32-.44c0,.43-.1.87-.12,1.31l-.18,4.32c0,.24,0,.48,0,.72s-.13.46-.46.44a7.85,7.85,0,0,0-1,0c-.3,0-.42-.09-.41-.4,0-.87.07-1.75.12-2.62.09-1.31.19-2.61.3-3.91.07-.89.18-1.77.26-2.66A.4.4,0,0,1,65.33,8c1.62.06,1.2-.31,2,1.18s1.38,2.92,2,4.41a1.87,1.87,0,0,0,.31.59,1,1,0,0,0,.29-.51c.76-1.78,1.56-3.53,2.44-5.25A.63.63,0,0,1,73.06,8c.2,0,.4,0,.61,0,.64,0,.66,0,.73.65.18,1.68.34,3.35.43,5,.07,1.26.15,2.52.24,3.79,0,.38-.09.55-.49.51s-.65,0-1,0-.41-.11-.42-.4c0-.8-.06-1.59-.08-2.39C73.09,13.83,73,12.49,72.83,11.14Z"></path><path class="cls-1" d="M76.26,13c0-1.48,0-3,0-4.45,0-.29.07-.46.39-.5a12,12,0,0,1,4.58.13,2.81,2.81,0,0,1,2.25,2.59,2.75,2.75,0,0,1-1.62,2.95c-.27.14-.26.26-.09.48a21.13,21.13,0,0,1,2.08,3.28c.24.46.22.49-.28.5s-.76,0-1.14,0a.61.61,0,0,1-.63-.39A28.78,28.78,0,0,0,80,14.73a1.09,1.09,0,0,0-1-.52c-.87,0-.8-.06-.81.82s0,1.62,0,2.43c0,.39-.14.53-.52.5a4.83,4.83,0,0,0-.85,0c-.42,0-.52-.14-.52-.54C76.27,15.94,76.26,14.45,76.26,13Zm1.88-1.88h0v1.25c0,.19,0,.32.27.33a6.58,6.58,0,0,0,2.12-.18,1.32,1.32,0,0,0,1-1.36,1.33,1.33,0,0,0-.91-1.42,4.44,4.44,0,0,0-2.11-.2c-.28,0-.39.13-.38.4S78.14,10.7,78.14,11.09Z"></path><path class="cls-1" d="M101.12,12.92c0-1.48,0-3,0-4.45,0-.39.13-.54.51-.51a7.37,7.37,0,0,0,.94,0c.33,0,.45.11.44.44,0,1,0,2,0,3,0,.39.1.55.52.53,1.07,0,2.14,0,3.2,0,.4,0,.51-.13.5-.51,0-1,0-2,0-3,0-.34.11-.49.47-.47a6.28,6.28,0,0,0,1,0c.37,0,.46.14.45.48,0,1.54,0,3.07,0,4.61s0,2.94,0,4.41c0,.4-.13.54-.52.5a7.22,7.22,0,0,0-.93,0c-.33,0-.45-.11-.45-.44q0-1.68,0-3.36c0-.58,0-.58-.58-.59h-3.15c-.35,0-.48.11-.48.46,0,1.15,0,2.3,0,3.44,0,.37-.12.52-.5.49a7.21,7.21,0,0,0-.93,0c-.35,0-.47-.11-.47-.47C101.13,16,101.12,14.45,101.12,12.92Z"></path><path class="cls-1" d="M57,54.57c-.44,1.56-.83,3-1.25,4.44-.27.93-.08.8-1.07.8s-.78.1-1-.77c-.6-2.29-1.19-4.59-1.79-6.89-.11-.43-.09-.45.36-.46a8,8,0,0,0,.85,0c.34,0,.46.13.53.45.34,1.64.71,3.27,1.06,4.9,0,.14.07.28.14.54l1-3.68c.14-.52.29-1,.41-1.56a.45.45,0,0,1,.51-.4c1.05,0,1.05,0,1.33,1,.38,1.37.74,2.74,1.11,4.1a1,1,0,0,0,.2.4c.13-.62.27-1.24.41-1.86.25-1.15.5-2.29.73-3.44.06-.3.18-.46.51-.43a8.81,8.81,0,0,0,.89,0c.3,0,.37.1.29.38-.42,1.57-.82,3.13-1.24,4.7-.23.88-.47,1.77-.69,2.66-.07.28-.2.41-.5.39a6.61,6.61,0,0,0-.89,0c-.3,0-.43-.11-.5-.39-.41-1.5-.83-3-1.25-4.49C57.14,54.86,57.1,54.77,57,54.57Z"></path><path class="cls-1" d="M84.69,11.64c0-1.07,0-2.13,0-3.2,0-.35.13-.49.48-.46s.62,0,.93,0,.4.16.4.45c0,1.44,0,2.89,0,4.33a17.23,17.23,0,0,0,.06,1.9,1.93,1.93,0,0,0,2,1.87,1.88,1.88,0,0,0,2.06-1.66,4.5,4.5,0,0,0,.1-1c0-1.8,0-3.61,0-5.42,0-.39.12-.54.51-.51s.68,0,1,0,.35.09.35.33c0,2.24.12,4.48-.08,6.71A3.34,3.34,0,0,1,89,18.11a5.65,5.65,0,0,1-2.08-.19,3.4,3.4,0,0,1-2.25-3.16c0-1,0-2.08,0-3.12Z"></path><path class="cls-1" d="M56.58,13c0-1.5,0-3,0-4.49,0-.38.11-.52.51-.51h5.5c.37,0,.52.11.49.48a4,4,0,0,0,0,.69c0,.36-.14.48-.48.47-1.2,0-2.4,0-3.6,0-.4,0-.56.11-.53.53a9.84,9.84,0,0,1,0,1.33c0,.4.14.5.51.49,1,0,2.08,0,3.12,0,.37,0,.49.13.49.49,0,1.3.13,1.07-1.07,1.09-.87,0-1.75,0-2.63,0-.31,0-.43.09-.42.42,0,.63,0,1.27,0,1.9,0,.38.1.52.5.51,1.28,0,2.56,0,3.84,0,.57,0,.6,0,.59.59,0,1.22.15,1-1,1-1.77,0-3.54,0-5.31,0-.39,0-.51-.14-.5-.52C56.59,16,56.58,14.46,56.58,13Z"></path><path class="cls-1" d="M52.53,7.73A5.89,5.89,0,0,1,55,8.21c.27.11.38.23.24.51a9.14,9.14,0,0,0-.33.87c-.09.27-.21.33-.48.2a4.27,4.27,0,0,0-2.2-.41c-.86,0-1.32.55-1.22,1.32a1.24,1.24,0,0,0,.68.85,9.37,9.37,0,0,0,1.59.7,7.46,7.46,0,0,1,1.27.62,2.77,2.77,0,0,1,1.22,2.88,2.43,2.43,0,0,1-1.87,2.16,7.06,7.06,0,0,1-4.79-.31c-.23-.1-.3-.24-.21-.47s.22-.59.31-.88.2-.34.47-.21a5.24,5.24,0,0,0,2,.49,3.36,3.36,0,0,0,1.44-.16,1.12,1.12,0,0,0,.43-1.87,3.57,3.57,0,0,0-1.38-.81,16,16,0,0,1-1.54-.62A2.66,2.66,0,0,1,49.2,9.54,2.63,2.63,0,0,1,50.86,8,4.22,4.22,0,0,1,52.53,7.73Z"></path><path class="cls-1" d="M97.11,7.73a5.9,5.9,0,0,1,2.29.44c.35.13.49.3.3.66s-.15.81-.44,1-.63-.19-1-.27a4.07,4.07,0,0,0-2-.08,1,1,0,0,0-.84.84,1.11,1.11,0,0,0,.45,1.1,4.15,4.15,0,0,0,1.14.6,16.57,16.57,0,0,1,1.79.76,3,3,0,0,1,.55,4.61,3.58,3.58,0,0,1-1.69.72,7.41,7.41,0,0,1-3.9-.4c-.51-.2-.52-.25-.33-.78.08-.21.16-.43.22-.65s.21-.32.48-.2a5.08,5.08,0,0,0,3,.43c.5-.09,1-.27,1.08-.83a1.27,1.27,0,0,0-.61-1.46,5.86,5.86,0,0,0-1.32-.61A8.8,8.8,0,0,1,95,13a2.57,2.57,0,0,1-1.52-2.59,2.62,2.62,0,0,1,1.69-2.4A4.33,4.33,0,0,1,97.11,7.73Z"></path><path class="cls-1" d="M80.63,57.22V55c0-1,0-1.91,0-2.87,0-.33.11-.45.44-.44,1.3,0,1.11-.17,1.11,1.07q0,3.26,0,6.51c0,.53,0,.49-.55.56A1.52,1.52,0,0,1,80,59c-.91-1.47-1.92-2.87-2.89-4.3l-.35-.48a.7.7,0,0,0-.08.45c0,1.55,0,3.11,0,4.66,0,.39-.13.51-.51.5-1.21,0-1,.16-1-1q0-3.27,0-6.52c0-.55,0-.56.57-.56,1.05,0,1.05,0,1.64.86l3.19,4.68Z"></path><path class="cls-1" d="M72,57.33c0-1.77,0-3.41,0-5,0-.59,0-.59.58-.59,1.09,0,1-.15,1,1,0,2.22,0,4.43,0,6.64,0,.41-.13.5-.53.54A1.56,1.56,0,0,1,71.33,59c-.9-1.45-1.9-2.84-2.87-4.26a1.67,1.67,0,0,0-.38-.47.68.68,0,0,0,0,.44q0,2.32,0,4.65c0,.37-.11.5-.49.49-1.24,0-1.06.17-1.07-1.07,0-2.17,0-4.35,0-6.52,0-.53,0-.54.55-.54,1.07,0,1.07,0,1.68.88l3,4.41Z"></path><path class="cls-1" d="M90.77,55.73c0-1.18,0-2.35,0-3.53,0-.37.1-.53.5-.52.84,0,1.68,0,2.51,0a2.53,2.53,0,0,1,1.49,4.6c-.24.17-.22.29-.09.51.5.88,1,1.77,1.48,2.65.17.29.11.36-.21.37-1.38,0-1.38,0-2-1.2Q94,57.78,93.55,57a1,1,0,0,0-1.14-.26c-.12.1-.09.24-.09.37,0,.76,0,1.52,0,2.27,0,.35-.11.48-.47.47-1.25,0-1.07.17-1.08-1.06C90.76,57.75,90.77,56.74,90.77,55.73Zm1.55-1.56h0V55c0,.22.09.31.31.31a5.75,5.75,0,0,0,1.17-.07,1.12,1.12,0,0,0,0-2.17,3.24,3.24,0,0,0-.52-.07c-1.16,0-1-.11-1,.91Z"></path><path class="cls-1" d="M83.8,55.72c0-1.19,0-2.38,0-3.56,0-.35.11-.48.46-.48,1.49,0,3,0,4.45,0,.34,0,.45.14.45.46,0,1.12.08.94-1,1-.78,0-1.57,0-2.35,0-.34,0-.46.12-.44.45a8.51,8.51,0,0,1,0,1c0,.28.11.39.39.38.64,0,1.29,0,1.94,0,.32,0,.43.13.42.43,0,1.17.07,1-.92,1-.47,0-.94,0-1.41,0-.29,0-.43.09-.42.39s0,.87,0,1.3.13.4.41.39c1,0,2,0,3,0,.4,0,.55.11.54.52,0,1,.08.89-.89.89-1.41,0-2.81,0-4.21,0-.39,0-.52-.12-.52-.5C83.81,58.12,83.8,56.92,83.8,55.72Z"></path><path class="cls-1" d="M36,55.89a5.34,5.34,0,0,1-.31,2.1,2.69,2.69,0,0,1-2.37,2,2.59,2.59,0,0,1-2.91-1.7,5.74,5.74,0,0,1,.07-4.86A2.55,2.55,0,0,1,33,51.93a2.61,2.61,0,0,1,2.46,1.48A4.91,4.91,0,0,1,36,55.89Zm-4.47,0A3.55,3.55,0,0,0,32,58.12a1.11,1.11,0,0,0,1.85,0,2.75,2.75,0,0,0,.48-1.35,4.92,4.92,0,0,0-.27-2.66,1.22,1.22,0,0,0-1.16-.79,1.18,1.18,0,0,0-1.12.77A3.49,3.49,0,0,0,31.48,55.85Z"></path><path class="cls-1" d="M48.84,55.43a5.57,5.57,0,0,1-.8,3.34,3,3,0,0,1-3.19,1.16,7,7,0,0,1-1.08-.31c-.26-.08-.32-.24-.18-.46a.08.08,0,0,0,0,0c.38-.82.38-.82,1.22-.6a1.75,1.75,0,0,0,2.38-1.24c0-.14.13-.31,0-.42s-.24.07-.36.11a2.51,2.51,0,0,1-3.45-1.52A2.64,2.64,0,0,1,45.24,52a2.58,2.58,0,0,1,3.25,1.61A4.56,4.56,0,0,1,48.84,55.43ZM46,55.76h.22c.92,0,1.19-.34,1-1.24a2.57,2.57,0,0,0-.2-.65,1,1,0,0,0-.67-.59,1.26,1.26,0,0,0-1.34.33,1.42,1.42,0,0,0-.2,1.55A1.07,1.07,0,0,0,46,55.76Z"></path><path class="cls-1" d="M26.19,59.82H24.13c-.31,0-.41-.11-.44-.42A3.84,3.84,0,0,1,25.51,56l1.06-.88a1.09,1.09,0,0,0,.45-1,.76.76,0,0,0-.66-.71,1.47,1.47,0,0,0-1.52.52c-.2.28-.38.3-.62.08a2,2,0,0,0-.23-.18c-.58-.43-.59-.49-.06-1a3.37,3.37,0,0,1,3.7-.48,2,2,0,0,1,.84,2.66A5,5,0,0,1,27,56.64a9.56,9.56,0,0,0-1.22,1.06,1.69,1.69,0,0,0-.21.31c-.19.36-.13.48.29.48h2.43c.35,0,.48.11.47.46,0,1,0,.86-.84.86Z"></path><path class="cls-1" d="M85.11,24.66c.27-.8.52-1.57.78-2.35,0-.15.09-.31.13-.46.07-.3.15-.52.54-.52s.54.16.64.51c.27.91.56,1.82.91,2.74a.46.46,0,0,0,.2-.4c.21-1,.4-1.92.59-2.89a.69.69,0,0,1,1-.5c.15.07.13.18.11.31a39.12,39.12,0,0,1-1.19,4.74c-.09.26-.28.3-.51.29s-.57.08-.7-.31c-.27-.8-.55-1.6-.83-2.41a4.14,4.14,0,0,0-.15-.41c-.17.07-.16.22-.2.34-.29.8-.58,1.6-.84,2.41-.13.41-.42.36-.73.38s-.43-.13-.52-.4a39.18,39.18,0,0,1-1.15-4.54c-.05-.27,0-.41.32-.42.65,0,.68,0,.81.63.2,1,.4,1.9.61,2.85A.63.63,0,0,0,85.11,24.66Z"></path><path class="cls-1" d="M40.57,55.31c0,.94,0,1.88,0,2.83,0,.34.12.47.45.43h.24c.6,0,.6,0,.6.62s0,.63-.63.63h-3c-.35,0-.51-.11-.47-.46v-.08c0-.71,0-.71.71-.71s.59,0,.59-.61c0-1.24,0-2.48,0-3.72,0-.42,0-.44-.41-.26l-.57.31c-.09.05-.2.14-.29.13-.47-.07-.42-.56-.63-.84s-.08-.29.1-.39c.63-.34,1.24-.72,1.89-1a2.48,2.48,0,0,1,1.27-.05c.22,0,.18.24.18.4C40.57,53.45,40.57,54.38,40.57,55.31Z"></path><path class="cls-1" d="M101.63,20.77a4.33,4.33,0,0,1,1.48.13,2.33,2.33,0,0,1,1.68,2.27,4.46,4.46,0,0,1,0,1A2.29,2.29,0,0,1,103.13,26a5.94,5.94,0,0,1-2.52.12c-.26,0-.37-.15-.37-.42,0-1.5,0-3,0-4.49,0-.34.15-.46.46-.47Zm-.33,2.7v1.46c0,.15,0,.3.19.36a2,2,0,0,0,1.92-.66,2.15,2.15,0,0,0,0-2.31c-.41-.71-1.14-.67-1.84-.65-.23,0-.29.15-.29.35Z"></path><path class="cls-1" d="M95.54,23.46V21.23c0-.22,0-.42.3-.43a7.25,7.25,0,0,1,2.37.08,1.63,1.63,0,0,1,1,2.44,1,1,0,0,1-.42.43c-.38.15-.29.33-.1.6.32.44.6.92.89,1.39.16.27.08.37-.24.4a.94.94,0,0,1-1.09-.59,9,9,0,0,0-.7-1.08.61.61,0,0,0-.58-.3c-.25,0-.37.1-.37.36s0,.76,0,1.14-.2.47-.55.47-.54-.05-.52-.46C95.56,24.94,95.54,24.2,95.54,23.46Zm1-1c0,.81,0,.82.52.81.84,0,1.19-.23,1.2-.79s-.31-.83-1.16-.83C96.59,21.66,96.59,21.66,96.59,22.47Z"></path><path class="cls-1" d="M62.56,23.49c0-.75,0-1.51,0-2.26,0-.26.07-.44.34-.45a8.68,8.68,0,0,1,2.22.06,1.54,1.54,0,0,1,1.3,1.27,1.5,1.5,0,0,1-.75,1.72c-.26.14-.15.26,0,.41a10.66,10.66,0,0,1,1,1.53c.13.25.1.35-.21.38a1,1,0,0,1-1.13-.58,10.28,10.28,0,0,0-.75-1.15.64.64,0,0,0-.76-.21c-.28.06-.16.33-.17.51s0,.6,0,.89c0,.51,0,.51-.51.54s-.52-.14-.5-.52C62.58,24.92,62.56,24.2,62.56,23.49Zm1.62-1.85c-.21.1-.58-.13-.6.32s0,.7,0,1.05c0,.16.07.26.23.26a3.05,3.05,0,0,0,1-.07.77.77,0,0,0,0-1.47A5.58,5.58,0,0,0,64.18,21.64Z"></path><path class="cls-1" d="M87.84,36.33c0-.73,0-1.46,0-2.18,0-.28.08-.45.37-.47a6.52,6.52,0,0,1,2.33.1,1.44,1.44,0,0,1,1.11,1.16,1.51,1.51,0,0,1-.62,1.7c-.29.19-.29.31-.09.56a11.16,11.16,0,0,1,.91,1.43c.13.25.09.35-.22.38a.92.92,0,0,1-1.08-.55,9.65,9.65,0,0,0-.72-1.12.65.65,0,0,0-.65-.29c-.24,0-.35.1-.35.34,0,.41,0,.83,0,1.25s-.26.36-.52.37-.49,0-.48-.38C87.85,37.87,87.84,37.1,87.84,36.33Zm1.77-1.8c-.74,0-.78,0-.78.63,0,.26,0,.51,0,.77s0,.29.25.28a9.24,9.24,0,0,0,.92-.1.69.69,0,0,0,.6-.74.71.71,0,0,0-.6-.79A3.21,3.21,0,0,0,89.61,34.53Z"></path><path class="cls-1" d="M64.94,55.75c0,1.2,0,2.4,0,3.61,0,.35-.12.47-.47.46-1.36,0-1.15.2-1.16-1.15,0-2.15,0-4.29,0-6.44,0-.53,0-.55.55-.54,1.24,0,1.06-.18,1.07,1.07C64.94,53.76,64.94,54.75,64.94,55.75Z"></path><path class="cls-1" d="M76,23.49c0,.74,0,1.48,0,2.22,0,.43-.25.43-.55.43s-.53,0-.51-.43,0-1,0-1.45c0-.3-.11-.42-.41-.41H73.12c-.31,0-.4.12-.4.41,0,.5,0,1,0,1.49s-.22.4-.5.39-.52,0-.51-.37c0-1.55,0-3.1,0-4.65,0-.41.28-.34.53-.35s.49,0,.48.37,0,.89,0,1.33.09.42.4.41c.49,0,1,0,1.49,0,.26,0,.37-.11.36-.37,0-.44,0-.89,0-1.33s.19-.42.48-.41.58,0,.57.42C76,22,76,22.72,76,23.49Z"></path><path class="cls-1" d="M78.05,35.66v1.26a2.06,2.06,0,0,1-2.67,2.21,1.77,1.77,0,0,1-1.56-1.66c-.12-1.14,0-2.29,0-3.44,0-.45.33-.36.6-.38s.47.05.46.39c0,1,0,2,0,2.92a1.16,1.16,0,0,0,.61,1.18A1.07,1.07,0,0,0,77,37.07c0-1,0-1.92,0-2.87a.58.58,0,0,1,.91-.5c.16.08.15.24.15.38Z"></path><path class="cls-1" d="M108.59,39.07c-.41.07-.59-.12-.72-.48-.28-.8-.29-.79-1.15-.79a.85.85,0,0,1-.16,0c-.79-.13-1.36.05-1.48,1,0,.29-.84.45-1,.24s0-.2,0-.3a47.6,47.6,0,0,1,1.89-4.76c.14-.31.39-.28.65-.29s.47,0,.6.28q1.07,2.34,1.9,4.77C109.23,39.22,108.79,39,108.59,39.07Zm-2-4.11h-.11c-.23.59-.46,1.17-.68,1.76-.06.15,0,.23.17.23H107c.15,0,.25-.06.19-.22C107,36.13,106.79,35.55,106.57,35Z"></path><path class="cls-1" d="M72.64,39.07c-.33.07-.51-.12-.64-.48-.34-1-.15-.77-1.12-.79H70.6c-1,0-1,0-1.37.93a.88.88,0,0,1-1.08.28c-.1-.1-.05-.2,0-.3A47.77,47.77,0,0,1,70,33.94c.15-.33.42-.28.68-.29a.53.53,0,0,1,.59.32c.69,1.53,1.31,3.1,1.87,4.69C73.3,39,73.22,39.07,72.64,39.07Zm-2-4.11-.12,0-.66,1.73c0,.13,0,.24.15.24h1.13c.13,0,.22-.07.17-.21Z"></path><path class="cls-1" d="M61.28,26.14c-.34.09-.55-.1-.64-.48,0-.14-.11-.27-.15-.41s-.22-.34-.48-.33H58.56a.4.4,0,0,0-.47.33l-.1.27c-.24.64-.24.63-.92.63-.3,0-.38-.1-.27-.39.37-1,.72-2,1.1-2.91.24-.59.52-1.16.75-1.75.13-.33.37-.34.66-.34s.51,0,.65.34q1,2.29,1.85,4.66C61.94,26.13,61.91,26.14,61.28,26.14Zm-1.93-4.06h-.13c-.21.57-.43,1.15-.65,1.72-.08.2,0,.27.21.27h1c.18,0,.29-.06.21-.26C59.79,23.23,59.57,22.66,59.35,22.08Z"></path><path class="cls-1" d="M52.47,23.48c0-.74,0-1.49,0-2.23,0-.33.1-.49.47-.49.87,0,1.75,0,2.63,0,.37,0,.4.19.41.49s-.1.44-.42.43c-.55,0-1.11,0-1.66,0-.26,0-.36.09-.37.35,0,.86,0,.86.81.86h1.05c.34,0,.33.23.34.47s0,.43-.35.42H53.92c-.27,0-.4.08-.4.37,0,1.28-.14,1.06,1,1.08h1.22c.36,0,.37.22.37.48s-.06.44-.38.43q-1.45,0-2.91,0c-.29,0-.38-.14-.37-.4Z"></path><path class="cls-1" d="M94.44,26.13c-.33.08-.48-.12-.61-.46-.33-.87-.1-.75-1.11-.76-.33,0-.67,0-1,0a.41.41,0,0,0-.47.33c-.06.21-.14.41-.21.62a.38.38,0,0,1-.35.27c-.79.08-.84,0-.57-.73.53-1.41,1.07-2.82,1.69-4.2a.69.69,0,0,1,.76-.43c.36,0,.49.18.62.46.63,1.42,1.2,2.86,1.73,4.32C95.12,26.11,95.1,26.13,94.44,26.13Zm-1.91-4.07H92.4c-.23.61-.47,1.22-.69,1.83,0,.14.06.2.18.2H93c.15,0,.24-.07.18-.23C93,23.25,92.75,22.65,92.53,22.06Z"></path><path class="cls-1" d="M82.62,26.12c-.33.08-.49-.12-.62-.46-.32-.85-.1-.75-1.06-.75-.35,0-.7,0-1,0a.4.4,0,0,0-.47.34c0,.1-.07.2-.11.3-.19.57-.43.7-1,.58-.31-.07-.16-.27-.11-.41.43-1.22.88-2.43,1.39-3.62.15-.33.32-.65.45-1s.37-.34.66-.34a.57.57,0,0,1,.62.34c.68,1.51,1.27,3.06,1.84,4.61C83.27,26.09,83.22,26.13,82.62,26.12Zm-2-2c.14,0,.29,0,.44,0,.32,0,.36-.12.26-.39l-.53-1.35c0-.1,0-.24-.17-.25s-.14.14-.18.24c-.13.32-.25.65-.38,1C79.76,24.14,79.74,24.09,80.64,24.09Z"></path><path class="cls-1" d="M96.93,39.07c-.33.06-.51-.13-.63-.47-.29-.82-.31-.81-1.19-.81h-.24c-1,0-1,0-1.37.89a.86.86,0,0,1-1,.28c-.11-.09-.08-.19,0-.3C93,37.08,93.62,35.5,94.32,34c.13-.3.38-.24.62-.25s.51,0,.64.29c.25.61.54,1.21.79,1.82.35.89.69,1.78,1,2.68C97.59,39,97.55,39.07,96.93,39.07ZM95,35h-.12l-.66,1.72c-.07.18,0,.29.19.29h1.09c.17,0,.25-.09.19-.26A18.51,18.51,0,0,0,95,35Z"></path><path class="cls-1" d="M50.25,20.68a2.6,2.6,0,0,1,1.13.2c.37.14.19.37.12.59s-.14.42-.45.28A2.29,2.29,0,0,0,50,21.59c-.29,0-.55.11-.63.41a.58.58,0,0,0,.35.7c.34.17.69.3,1,.45a1.62,1.62,0,0,1,1.12,1.91,1.38,1.38,0,0,1-1.17,1.13,3.79,3.79,0,0,1-2.16-.12c-.32-.1-.42-.26-.29-.6s.22-.45.58-.29a2.35,2.35,0,0,0,1.31.17c.3-.05.59-.15.65-.51s-.14-.55-.4-.72a6.28,6.28,0,0,0-1-.43c-1-.42-1.3-1-1.12-1.85A1.58,1.58,0,0,1,50,20.68Z"></path><path class="cls-1" d="M107.14,20.68a3,3,0,0,1,1.25.19c.35.13.24.35.14.59s-.15.44-.48.28a2.24,2.24,0,0,0-1.15-.14.57.57,0,0,0-.53.42.53.53,0,0,0,.24.6,2.44,2.44,0,0,0,.68.35,8.13,8.13,0,0,1,.85.38,1.48,1.48,0,0,1,.77,1.6,1.37,1.37,0,0,1-1.1,1.21,3.75,3.75,0,0,1-2.34-.12c-.44-.17-.22-.43-.15-.69s.25-.28.49-.19a2.45,2.45,0,0,0,1.46.17.61.61,0,0,0,.54-.48.63.63,0,0,0-.32-.69,3.33,3.33,0,0,0-.5-.25c-.28-.12-.56-.21-.83-.34a1.44,1.44,0,0,1-.89-1.67,1.55,1.55,0,0,1,1.44-1.21A3.28,3.28,0,0,1,107.14,20.68Z"></path><path class="cls-1" d="M80.54,39.16A3.64,3.64,0,0,1,79.19,39c-.36-.11-.36-.32-.25-.63s.22-.4.55-.26A2.32,2.32,0,0,0,81,38.2a.54.54,0,0,0,.48-.42.63.63,0,0,0-.23-.68,3.53,3.53,0,0,0-.5-.28c-.27-.12-.55-.21-.82-.33a1.44,1.44,0,0,1-1-1.6,1.4,1.4,0,0,1,1.22-1.28,3.25,3.25,0,0,1,1.9.15c.29.11.28.28.17.51s-.11.51-.48.36a2.48,2.48,0,0,0-1.11-.16.6.6,0,0,0-.59.41.57.57,0,0,0,.28.66,6,6,0,0,0,1.21.54,1.57,1.57,0,0,1,1,1.89,1.41,1.41,0,0,1-1.11,1.1A2.4,2.4,0,0,1,80.54,39.16Z"></path><path class="cls-1" d="M69.53,20.67a3,3,0,0,1,1.21.22c.42.15.22.43.16.7s-.25.28-.49.18a2.35,2.35,0,0,0-1-.17A1.47,1.47,0,0,0,68,22.78a3.12,3.12,0,0,0,0,1.36,1.4,1.4,0,0,0,1.43,1.17,2.66,2.66,0,0,0,1.15-.16c.23-.11.36,0,.41.22s.28.46-.08.66a2.73,2.73,0,0,1-4.08-2.18,3.19,3.19,0,0,1,.38-2A2.43,2.43,0,0,1,69.53,20.67Z"></path><path class="cls-1" d="M84.45,36.78v-1.7c0-.52,0-.52-.55-.53h-.73c-.31,0-.34-.17-.34-.42s0-.47.34-.47h3.47c.34,0,.49.11.49.47s-.18.44-.5.44c-1.12,0-1.12,0-1.12,1.12s0,1.94,0,2.91c0,.43-.21.48-.56.48s-.53-.08-.52-.47C84.47,38,84.45,37.39,84.45,36.78Z"></path><path class="cls-1" d="M98.2,36.34c0-.72,0-1.45,0-2.18,0-.35.08-.53.47-.51s.53.06.53.53c0,1.15,0,2.29,0,3.44,0,.36.1.51.48.49s1,0,1.53,0,.41.21.41.5-.07.46-.4.46H98.59c-.3,0-.39-.14-.39-.42C98.21,37.88,98.2,37.11,98.2,36.34Z"></path><path class="cls-1" d="M102.26,36.34c0-.75,0-1.51,0-2.26,0-.4.22-.43.52-.43s.54,0,.54.41c0,1.53,0,3.07,0,4.61,0,.4-.25.4-.54.4s-.53,0-.52-.43C102.27,37.88,102.26,37.11,102.26,36.34Z"></path></svg> 