<?xml version="1.0" encoding="UTF-8"?> <svg xmlns="http://www.w3.org/2000/svg" id="logo" viewBox="0 0 120 60"><defs><style>.cls-1,.cls-2{fill:#fff;}.cls-1{opacity:0.8;}</style></defs><path class="cls-1" d="M29.58,27.13a13.75,13.75,0,0,1,1.47,1.28A44,44,0,0,1,38.19,37a23.86,23.86,0,0,1,3.38,8.08,10.53,10.53,0,0,1-.17,5.29,6.4,6.4,0,0,1-4,4.12,11.83,11.83,0,0,1-5.78.58,27.58,27.58,0,0,1-8.48-2.52,45.46,45.46,0,0,1-10.64-6.84A42.12,42.12,0,0,1,3.36,35.1,24.77,24.77,0,0,1,.44,28.24a11.44,11.44,0,0,1-.21-5.33,6.8,6.8,0,0,1,5.08-5.26,13.4,13.4,0,0,1,5.91-.17,31,31,0,0,1,7.62,2.4,3.1,3.1,0,0,0,.46.15c-.25,1.47-.48,2.94-.75,4.41s-.57,2.84-.83,4.26c-.32,1.79-.61,3.59-.93,5.38-.39,2.18-.81,4.36-1.21,6.54-.08.44,0,.54.44.54,2.82,0,5.65,0,8.47,0a3,3,0,0,0,3.09-2.53c.45-2.47.84-4.95,1.27-7.43C29.08,29.84,29.24,28.47,29.58,27.13Z"></path><path class="cls-2" d="M29.58,27.13c-.34,1.34-.5,2.71-.73,4.06-.43,2.48-.82,5-1.27,7.43a3,3,0,0,1-3.09,2.53c-2.82,0-5.65,0-8.47,0-.45,0-.52-.1-.44-.54.4-2.18.82-4.36,1.21-6.54.32-1.79.61-3.59.93-5.38.26-1.42.57-2.84.83-4.26s.5-2.94.75-4.41a16.67,16.67,0,0,0,.52-2.43c.2-.92.34-1.86.51-2.8.12-.61.11-.63-.51-.63-3.41,0-6.81,0-10.22,0-.42,0-.55-.1-.46-.53.24-1.18.45-2.36.67-3.54.19-1,.37-2,.57-3a2.88,2.88,0,0,1,2.78-2.31H43.58c.52,0,.5,0,.41.54-.38,2-.76,4.08-1.12,6.13a3,3,0,0,1-3.19,2.71H32.27c-.61,0-.58,0-.67.61-.18,1.16-.39,2.31-.59,3.46-.28,1.61-.55,3.21-.82,4.82l-.6,3.46A1,1,0,0,0,29.58,27.13Z"></path><path class="cls-2" d="M68.58,36.91a3.36,3.36,0,0,0,.49-1.51c.36-1.54.67-3.1,1-4.65.12-.53.33-.73.67-.66s.47.35.35.91l-1.41,6.62c-.1.48-.21,1-.29,1.44s-.29.66-.71.65-.59-.23-.68-.63c-.46-2-.94-4-1.42-6,0-.11,0-.26-.19-.26s-.13.17-.16.28L65,38.15c-.07.32-.16.63-.21,1a.62.62,0,0,1-.64.6.63.63,0,0,1-.71-.58c-.32-1.54-.66-3.08-1-4.62-.25-1.21-.5-2.41-.76-3.62-.09-.45,0-.73.37-.8s.56.12.65.56c.41,1.9.81,3.81,1.22,5.71a1.13,1.13,0,0,0,0,.18c0,.12,0,.3.19.3s.13-.18.16-.28l1.2-5.16c.07-.29.12-.58.2-.86s.35-.47.71-.47a.58.58,0,0,1,.64.5c.38,1.59.73,3.2,1.1,4.8C68.32,35.88,68.46,36.4,68.58,36.91Z"></path><path class="cls-2" d="M115.78,7.62a.77.77,0,0,0-.11.56v5.7c0,.49-.17.7-.55.68s-.51-.31-.51-.68c0-2.73,0-5.47,0-8.2,0-.36,0-.7.46-.78a.75.75,0,0,1,1,.52q1.23,2.85,2.49,5.69c.08.18.08.53.35.47s.09-.37.09-.56c0-1.83,0-3.66,0-5.48,0-.31.06-.57.41-.64a.5.5,0,0,1,.63.45,2.44,2.44,0,0,1,0,.27v8.11c0,.34,0,.71-.42.82s-.72,0-.94-.53L116,8.18C116,8,115.88,7.84,115.78,7.62Z"></path><path class="cls-2" d="M85.88,22.59c0,1.36,0,2.71,0,4.06,0,.37-.07.67-.47.74a.7.7,0,0,1-.82-.46L83,23.35c-.34-.78-.69-1.57-1-2.36-.06-.11-.07-.29-.25-.24s-.09.2-.09.31v5.48c0,.25,0,.52-.19.7s-.33.23-.53.12a.54.54,0,0,1-.35-.48c0-.22,0-.44,0-.67V18.59c0-.35,0-.69.45-.79s.71,0,.93.53l2.5,5.7c0,.1.09.19.13.28s.07.15.16.13.1-.11.1-.18,0-.24,0-.35c0-1.8,0-3.6,0-5.4a.69.69,0,0,1,.21-.61.55.55,0,0,1,.59-.06.46.46,0,0,1,.24.48Z"></path><path class="cls-2" d="M55.67,22.53V18.61c0-.63.15-.79.8-.78a14.21,14.21,0,0,1,2.35.08,2.39,2.39,0,0,1,1.93,2.76A2.19,2.19,0,0,1,60,22.2c-.23.2-.19.32,0,.49a2.69,2.69,0,0,1-.89,4.48,2.12,2.12,0,0,1-.83.12h-2c-.56,0-.7-.14-.7-.72v-4Zm1,2.07c0,.4,0,.8,0,1.2s.12.45.44.44.71,0,1.07,0a1.51,1.51,0,0,0,1.61-1.43A1.67,1.67,0,0,0,58.34,23c-.42,0-.84,0-1.25,0s-.4.13-.39.4S56.7,24.18,56.7,24.6Zm0-4.22h0c0,.34,0,.69,0,1s.14.53.52.51.74,0,1.11,0a1.38,1.38,0,0,0,1.33-1.15A1.4,1.4,0,0,0,58.82,19a5.23,5.23,0,0,0-1.89-.11c-.22,0-.22.21-.22.37C56.7,19.64,56.7,20,56.7,20.38Z"></path><path class="cls-2" d="M82.54,9.77v-4c0-.61.16-.78.75-.78.76,0,1.52,0,2.28,0A2.57,2.57,0,0,1,88,7a2.62,2.62,0,0,1-1.32,3c-.41.2-.49.38-.26.8.49.92.92,1.88,1.37,2.83a.68.68,0,0,1,0,.75.58.58,0,0,1-1-.2c-.56-1.14-1.11-2.28-1.64-3.44a.61.61,0,0,0-.66-.44c-1,0-.92-.1-.93.94,0,.88,0,1.75,0,2.63,0,.36-.08.66-.52.68s-.55-.21-.55-.69c0-1.37,0-2.73,0-4.1Zm1.07-2.16c0,.44,0,.89,0,1.33,0,.22.09.34.32.34.56,0,1.13,0,1.69,0A1.57,1.57,0,0,0,87,7.51,1.59,1.59,0,0,0,85.47,6C85,6,84.46,6,84,6c-.25,0-.35.09-.35.34C83.61,6.78,83.6,7.19,83.61,7.61Z"></path><path class="cls-2" d="M79.59,34.93v-4c0-.63.13-.76.76-.76h2a2.57,2.57,0,0,1,2.58,2,2.67,2.67,0,0,1-1.35,3c-.36.17-.41.33-.24.66.47.93.91,1.88,1.36,2.81a1.15,1.15,0,0,1,.14.51.46.46,0,0,1-.39.47.5.5,0,0,1-.61-.32c-.34-.69-.67-1.39-1-2.08-.21-.46-.44-.91-.63-1.37a.59.59,0,0,0-.69-.43H81.3c-.64,0-.64,0-.64.63v2.72a1.35,1.35,0,0,1,0,.35c-.07.3-.23.56-.57.52s-.49-.24-.49-.61C79.6,37.7,79.59,36.31,79.59,34.93Zm1.07-2.14c0,.42,0,.83,0,1.25s.1.39.39.38c.44,0,.89,0,1.33,0a1.47,1.47,0,0,0,1.53-1.21,1.59,1.59,0,0,0-1-1.87A6,6,0,0,0,81,31.19c-.3,0-.39.12-.38.4S80.66,32.39,80.66,32.79Z"></path><path class="cls-2" d="M71.15,47.27c0,1.35,0,2.7,0,4,0,.37-.07.67-.47.75a.71.71,0,0,1-.81-.48c-.35-.79-.71-1.59-1.06-2.39-.53-1.19-1-2.38-1.57-3.57-.06-.14-.11-.33-.28-.28s-.09.23-.09.36c0,1.88,0,3.77,0,5.66,0,.22,0,.44-.21.59a.47.47,0,0,1-.77-.31,1.71,1.71,0,0,1,0-.32V43.27c0-.35,0-.68.44-.75a.72.72,0,0,1,.88.49q1.26,2.9,2.53,5.79c.07.17.11.46.31.42s.12-.33.12-.51V43.18c0-.23,0-.45.23-.59a.51.51,0,0,1,.51,0c.21.1.25.29.25.52Z"></path><path class="cls-2" d="M86.9,34.88V31c0-.64.16-.8.78-.8s1.31,0,2,0a2.53,2.53,0,0,1,2.56,2.57V37.1a2.46,2.46,0,0,1-2.3,2.48c-.8.05-1.61,0-2.41,0-.45,0-.59-.19-.59-.7Zm1.06,0c0,1.07,0,2.14,0,3.21,0,.38.13.49.49.47s.77,0,1.16,0A1.54,1.54,0,0,0,91.2,37c0-1.41,0-2.82,0-4.23a1.51,1.51,0,0,0-1-1.45,6.16,6.16,0,0,0-1.76-.13c-.37,0-.5.11-.49.48C88,32.74,88,33.8,88,34.87Z"></path><path class="cls-2" d="M113.08,14a.46.46,0,0,1-.38.52.49.49,0,0,1-.64-.33c-.16-.51-.34-1-.47-1.53a.5.5,0,0,0-.58-.46c-.86,0-1.72,0-2.59,0a.41.41,0,0,0-.48.34c-.13.49-.32,1-.47,1.47s-.34.62-.72.51-.43-.38-.29-.81c.35-1.16.71-2.32,1.08-3.47.51-1.62,1-3.24,1.53-4.86a.61.61,0,0,1,.63-.51.65.65,0,0,1,.74.49L112.81,13A4.27,4.27,0,0,1,113.08,14Zm-3.33-2.86h.84c.46,0,.51-.08.38-.5-.23-.73-.46-1.46-.68-2.19l-.38-1.19c0-.09-.07-.2-.2-.2a.19.19,0,0,0-.1.13c-.38,1.21-.74,2.42-1.12,3.63-.07.23,0,.31.24.31Z"></path><path class="cls-2" d="M57.67,4.88c.45,0,.68.14.78.48.38,1.24.78,2.48,1.17,3.72.45,1.42.89,2.85,1.34,4.27,0,.19.11.37.16.56a.46.46,0,0,1-.3.61c-.27.1-.58.09-.7-.26-.17-.5-.34-1-.47-1.52a.59.59,0,0,0-.68-.53c-.83,0-1.66,0-2.49,0a.46.46,0,0,0-.51.38c-.13.48-.3,1-.45,1.44s-.4.63-.74.5-.37-.51-.27-.83c.46-1.52,1-3,1.42-4.54C56.29,8,56.65,6.82,57,5.64,57.14,5.25,57.25,4.84,57.67,4.88ZM57.83,7l-.12.09c-.46,1.23-.79,2.51-1.19,3.76-.07.25.09.32.3.32h2c.29,0,.35-.11.25-.39-.23-.69-.42-1.38-.64-2.07S58,7.59,57.83,7Z"></path><path class="cls-2" d="M95.67,13.93c0,.38-.11.57-.4.62a.51.51,0,0,1-.63-.35c-.18-.55-.37-1.1-.52-1.66-.06-.24-.17-.32-.39-.32H91a.4.4,0,0,0-.43.36c-.13.45-.28.9-.42,1.36,0,.1-.07.19-.11.29a.49.49,0,0,1-.69.29.47.47,0,0,1-.29-.65c.39-1.24.77-2.49,1.15-3.73q.73-2.34,1.46-4.68a.67.67,0,0,1,.73-.57c.38,0,.56.2.68.57.85,2.75,1.73,5.5,2.59,8.24A1.07,1.07,0,0,1,95.67,13.93ZM92.3,11.17c.3,0,.59,0,.89,0s.47-.15.36-.48c-.35-1.14-.71-2.28-1.06-3.43,0-.09-.06-.18-.16-.19s-.15.09-.17.17l-1.08,3.57c-.09.27,0,.36.28.36Z"></path><path class="cls-2" d="M78.05,39.06a.51.51,0,0,1-.42.62.45.45,0,0,1-.56-.32c-.18-.5-.35-1-.48-1.52-.09-.34-.24-.51-.61-.5-.83,0-1.66,0-2.5,0a.43.43,0,0,0-.51.36c-.12.5-.33,1-.47,1.48s-.29.56-.66.48-.48-.33-.35-.77c.3-1,.6-2,.91-3l1.52-4.82a2.47,2.47,0,0,0,.15-.46.64.64,0,0,1,.68-.57.69.69,0,0,1,.71.56c.19.59.36,1.19.55,1.78l2,6.37C78,38.91,78,39,78.05,39.06ZM74.7,32.14c-.42,1.36-.8,2.6-1.19,3.84-.08.26,0,.33.25.33h2c.26,0,.32-.13.24-.38-.24-.73-.44-1.47-.7-2.2A6.77,6.77,0,0,0,74.7,32.14Z"></path><path class="cls-2" d="M61.45,39.14a.46.46,0,0,1-.42.54c-.33.08-.54-.15-.64-.43-.15-.44-.27-.9-.39-1.35s-.24-.59-.7-.56c-.8,0-1.6,0-2.4,0a.48.48,0,0,0-.55.39c-.14.5-.31,1-.46,1.49-.1.32-.3.53-.65.46s-.48-.39-.36-.78L57.34,31c.23-.76.39-.94.83-.92.6,0,.64.52.77.94.56,1.79,1.13,3.57,1.7,5.36q.39,1.23.75,2.46A2.65,2.65,0,0,1,61.45,39.14Zm-3.32-7c-.07.15-.1.19-.12.25-.37,1.18-.74,2.37-1.12,3.56-.1.32.1.35.33.35h1.87c.35,0,.39-.12.27-.44-.23-.65-.39-1.33-.62-2A12.24,12.24,0,0,0,58.13,32.15Z"></path><path class="cls-2" d="M88,22.58c0-1.31,0-2.62,0-3.92,0-.69.15-.83.85-.83h3.7a1,1,0,0,1,.35,0,.52.52,0,0,1,.43.59.46.46,0,0,1-.51.45c-1.11,0-2.23,0-3.34,0-.31,0-.43.06-.43.39,0,.74,0,1.48,0,2.23,0,.3.09.41.41.4.69,0,1.37,0,2.06,0,.35,0,.61.11.64.51s-.2.55-.65.55c-.67,0-1.34,0-2,0-.32,0-.46.06-.45.41,0,.83,0,1.67,0,2.5,0,.3.11.38.4.37,1.07,0,2.14,0,3.21,0a.68.68,0,0,1,.63.34.48.48,0,0,1-.05.5.48.48,0,0,1-.5.23h-4.1c-.49,0-.64-.17-.64-.7C88,25.26,88,23.92,88,22.58Z"></path><path class="cls-2" d="M72.72,14.56a2.62,2.62,0,0,1-2.61-1.32,2.34,2.34,0,0,1-.28-1.16c0-.34.16-.55.49-.56a.5.5,0,0,1,.57.54A1.43,1.43,0,0,0,72,13.44a1.79,1.79,0,0,0,2.14-.6,1.72,1.72,0,0,0-.67-2.29c-.69-.42-1.41-.76-2.11-1.15a2.32,2.32,0,0,1-1.2-3A2.2,2.2,0,0,1,71.65,5a3,3,0,0,1,2.79.45A2.06,2.06,0,0,1,75.22,7c0,.28-.06.52-.37.59a.53.53,0,0,1-.66-.38A4.84,4.84,0,0,0,74,6.66,1.43,1.43,0,0,0,72.67,6a1.49,1.49,0,0,0-1.45.68,1.28,1.28,0,0,0,.53,1.8c.5.31,1,.56,1.56.85a3.3,3.3,0,0,1,1.84,1.66C75.81,12.82,74.82,14.7,72.72,14.56Z"></path><path class="cls-2" d="M72.56,27.41a2.61,2.61,0,0,1-2.71-1.93c0-.1,0-.21,0-.31,0-.52.1-.79.45-.83s.55.19.61.71a1.34,1.34,0,0,0,1,1.17A1.92,1.92,0,0,0,73.69,26a1.64,1.64,0,0,0-.18-2.52,11.71,11.71,0,0,0-1.58-.9c-.33-.18-.66-.34-1-.55a2.21,2.21,0,0,1-1-2.52,2.42,2.42,0,0,1,2-1.73,2.73,2.73,0,0,1,2.61.88,1.86,1.86,0,0,1,.48,1.17c0,.31-.09.57-.45.6a.52.52,0,0,1-.61-.49A1.33,1.33,0,0,0,73,18.87a1.63,1.63,0,0,0-1.84.66,1.16,1.16,0,0,0,.13,1.41,5.89,5.89,0,0,0,1.76,1.11,10.21,10.21,0,0,1,1.15.68,2.66,2.66,0,0,1,.92,3.06,2.41,2.41,0,0,1-2.38,1.62Z"></path><path class="cls-2" d="M75.92,49.65c-.43,0-.86,0-1.3,0a.47.47,0,0,0-.54.4c-.12.48-.29,1-.44,1.44s-.37.6-.71.48-.37-.41-.28-.72c.37-1.2.73-2.4,1.11-3.6.49-1.58,1-3.16,1.48-4.75a.65.65,0,0,1,.72-.52c.38,0,.54.22.64.56.56,1.82,1.14,3.63,1.71,5.45.3.95.6,1.89.89,2.84.1.31.09.6-.27.74s-.6,0-.74-.48-.33-.95-.44-1.44c-.09-.34-.28-.41-.58-.4S76.33,49.65,75.92,49.65Zm0-1c.29,0,.57,0,.85,0s.51-.11.39-.49c-.33-1-.62-2-1-3-.07-.22,0-.61-.32-.6s-.19.39-.26.59c-.34,1-.65,2.06-1,3.09-.09.3,0,.49.34.46Z"></path><path class="cls-2" d="M96.61,30.07a2.54,2.54,0,0,1,2.56,1.59,1.62,1.62,0,0,1,.09.57c0,.29-.1.5-.41.54a.49.49,0,0,1-.6-.4,1.53,1.53,0,0,0-2-1.21,1.33,1.33,0,0,0-1.12,1,1.2,1.2,0,0,0,.44,1.32,12.31,12.31,0,0,0,2,1.14,2.78,2.78,0,0,1,1.72,2.06c.28,2.1-.93,3.11-2.76,3a2.52,2.52,0,0,1-2.37-1.32,2.33,2.33,0,0,1-.29-1.19.49.49,0,0,1,.54-.52.45.45,0,0,1,.51.49,1.36,1.36,0,0,0,.88,1.32,2,2,0,0,0,2-.12,1.62,1.62,0,0,0,.12-2.27,5.88,5.88,0,0,0-1.49-1c-.36-.2-.74-.37-1.1-.58a2.29,2.29,0,0,1-1.24-2.61,2.44,2.44,0,0,1,2.09-1.81A3,3,0,0,1,96.61,30.07Z"></path><path class="cls-2" d="M99,24.87a1.49,1.49,0,0,0-.87-1.51c-.77-.45-1.57-.85-2.33-1.31a2.25,2.25,0,0,1-1-2.57,2.54,2.54,0,0,1,2-1.66,2.7,2.7,0,0,1,2.88,1.11,2,2,0,0,1,.29.88c0,.31,0,.58-.39.65a.51.51,0,0,1-.65-.45,1.59,1.59,0,0,0-2.28-1,1.27,1.27,0,0,0-.23,2.26,17.73,17.73,0,0,0,1.91,1.05,2.92,2.92,0,0,1,1.56,1.51,2.6,2.6,0,0,1-1.16,3.36,3.07,3.07,0,0,1-3.79-1,2.41,2.41,0,0,1-.31-1.28.48.48,0,0,1,.52-.5.47.47,0,0,1,.53.48c0,1.42,1.75,1.85,2.75,1.28A1.21,1.21,0,0,0,99,24.87Z"></path><path class="cls-2" d="M107.11,24.85c.13,2-1.55,2.75-3.11,2.52a2.52,2.52,0,0,1-2.15-1.57,3,3,0,0,1-.15-.83.52.52,0,0,1,.45-.62c.35,0,.54.16.61.51a1.71,1.71,0,0,0,2.4,1.39,1.54,1.54,0,0,0,.6-2.42,2.79,2.79,0,0,0-.89-.67l-1.92-1a2.28,2.28,0,0,1-1-2.65,2.5,2.5,0,0,1,2-1.66,2.71,2.71,0,0,1,2.78,1.07,2.12,2.12,0,0,1,.31.87c.06.31,0,.59-.32.69A.52.52,0,0,1,106,20a1.3,1.3,0,0,0-.84-1.07c-1.14-.39-2.29.15-2.23,1.27a1.4,1.4,0,0,0,.83,1.19c.65.36,1.31.69,2,1.05A2.4,2.4,0,0,1,107.11,24.85Z"></path><path class="cls-2" d="M68,8.91C68,10,68,11,68,12a2.69,2.69,0,1,1-5.38-.29c.08-2.05,0-4.1,0-6.15,0-.5.16-.71.53-.71s.52.22.52.72v6.24A1.63,1.63,0,0,0,65,13.51a1.66,1.66,0,0,0,1.91-1,1.33,1.33,0,0,0,.07-.56V5.76c0-.12,0-.24,0-.36a.49.49,0,0,1,.55-.51.47.47,0,0,1,.5.54C68,6.59,68,7.75,68,8.91Z"></path><path class="cls-2" d="M68,21.73c0,1,0,2.05,0,3.07a2.61,2.61,0,0,1-2.42,2.6,2.66,2.66,0,0,1-2.85-2,2.12,2.12,0,0,1,0-.44V18.45c0-.29,0-.57.38-.65s.64.12.64.61v6A1.79,1.79,0,0,0,64.29,26a1.58,1.58,0,0,0,1.79.23A1.46,1.46,0,0,0,67,24.8c0-2.13,0-4.25,0-6.38,0-.44.22-.69.59-.64a.53.53,0,0,1,.46.6C68,19.5,68,20.61,68,21.73Z"></path><path class="cls-2" d="M92.44,42.5a2.4,2.4,0,0,1,2.47,1.72,1.74,1.74,0,0,1,0,.39.49.49,0,0,1-1,.15,1.59,1.59,0,0,0-2.15-1.18,1.29,1.29,0,0,0-1,.91,1.22,1.22,0,0,0,.33,1.27,5.94,5.94,0,0,0,1.36.84l1.35.76a2.35,2.35,0,0,1,1.14,2.23,2.18,2.18,0,0,1-1.4,2.26c-1.42.52-3.5.17-3.94-1.66a2.62,2.62,0,0,1-.07-.62.46.46,0,0,1,.52-.48.47.47,0,0,1,.51.45,1.82,1.82,0,0,0,2.74,1.32,1.63,1.63,0,0,0,.23-2.42,5.6,5.6,0,0,0-1.5-.95c-.36-.21-.74-.39-1.1-.59a2.29,2.29,0,0,1-1.21-2.58,2.46,2.46,0,0,1,2.28-1.82Z"></path><path class="cls-2" d="M55.69,47.36v-4.1c0-.65.11-.76.75-.76H60.1c.37,0,.68.08.68.52s-.31.53-.67.53c-1,0-2,0-2.94,0-.37,0-.5.13-.49.49,0,.79,0,1.58,0,2.37,0,.32.12.46.44.45h1a.44.44,0,0,1,.49.45.47.47,0,0,1-.47.54,4.82,4.82,0,0,1-.93,0c-.42,0-.58.09-.57.54,0,1,0,2,0,3,0,.25,0,.52-.28.65s-.72,0-.72-.52V47.36Z"></path><path class="cls-2" d="M97.22,9.66c0-1.38,0-2.76,0-4.15,0-.48.24-.7.64-.61s.4.34.4.65c0,2.39,0,4.78,0,7.17v.35c0,.31.12.41.43.41.88,0,1.76,0,2.63,0,.5,0,.74.18.74.51s-.3.55-.74.55H97.94c-.55,0-.72-.18-.72-.73Z"></path><path class="cls-2" d="M98.52,47.68c0-1.25,0-2.49,0-3.74,0-.37-.12-.51-.49-.48a9.57,9.57,0,0,1-1.07,0,.46.46,0,0,1-.49-.51.48.48,0,0,1,.53-.53h4a.47.47,0,0,1,.54.51.48.48,0,0,1-.53.52,8.87,8.87,0,0,1-1,0c-.37,0-.49.11-.48.48,0,2.44,0,4.87,0,7.31,0,.29,0,.62-.36.72s-.63-.1-.63-.55C98.52,50.17,98.52,48.93,98.52,47.68Z"></path><path class="cls-2" d="M80.21,47.19c0-1.4,0-2.79,0-4.19,0-.45.21-.6.61-.52s.36.3.36.57c0,1.77,0,3.53,0,5.3,0,.71,0,1.42,0,2.14,0,.41.12.58.56.57.89,0,1.78,0,2.67,0,.35,0,.57.14.58.47a.51.51,0,0,1-.54.53h-3.7c-.42,0-.54-.29-.53-.67Z"></path><path class="cls-2" d="M80.89,6,79.42,6c-.41-.09-.3.22-.3.41,0,2.35,0,4.71,0,7.06,0,.31,0,.62-.06.93l0,0c-.75,0-.75,0-.75-.82V6.47c0-.35,0-.35-.29-.45A11.61,11.61,0,0,1,76.4,6a.1.1,0,0,0-.14-.1l-.08-.12.09-.7A.34.34,0,0,1,76.54,5,23.17,23.17,0,0,0,79,5a8.14,8.14,0,0,0,1.71,0,.44.44,0,0,1,.47.48A2.06,2.06,0,0,1,80.89,6Z"></path><path class="cls-2" d="M78.24,22.62c0,1.37,0,2.73,0,4.1,0,.36-.08.63-.47.68s-.57-.27-.57-.66c0-2.76,0-5.53,0-8.29a1.1,1.1,0,0,1,0-.18.49.49,0,0,1,.58-.48c.33,0,.44.23.44.55C78.23,19.77,78.24,21.19,78.24,22.62Z"></path><path class="cls-2" d="M103.71,9.72c0-1.4,0-2.8,0-4.19,0-.37.1-.62.5-.64s.54.19.54.65q0,4.2,0,8.38c0,.44-.19.66-.56.64s-.48-.3-.47-.65C103.72,12.51,103.71,11.11,103.71,9.72Z"></path><path class="cls-2" d="M62.4,47.19c0-1.39,0-2.79,0-4.18,0-.37.09-.63.49-.63s.5.27.5.62v8.38c0,.37-.11.61-.52.6s-.48-.26-.47-.6C62.41,50,62.4,48.59,62.4,47.19Z"></path><path class="cls-2" d="M86.32,47.15c0-1.38,0-2.76,0-4.14,0-.37.09-.63.5-.63s.5.26.5.62q0,4.19,0,8.37c0,.37-.11.62-.52.61s-.48-.25-.48-.6C86.32,50,86.32,48.56,86.32,47.15Z"></path><path class="cls-2" d="M78,6c.28.1.29.1.29.45v7.17c0,.79,0,.79.75.82-.55.28-.88.09-.88-.52q0-3.67,0-7.34A.71.71,0,0,0,78,6Z"></path><path class="cls-2" d="M79.05,14.42c0-.31.06-.62.06-.93,0-2.35,0-4.71,0-7.06,0-.19-.11-.5.3-.41-.22.14-.17.36-.17.56v7.14C79.25,14,79.28,14.23,79.05,14.42Z"></path><path class="cls-2" d="M80.75,5A8.14,8.14,0,0,1,79,5a23.17,23.17,0,0,1-2.5,0,1.25,1.25,0,0,1,.69-.06h3C80.44,4.91,80.6,4.86,80.75,5Z"></path><path class="cls-2" d="M76.27,5.06l-.09.7A.46.46,0,0,1,76.27,5.06Z"></path><path class="cls-2" d="M80.89,6a2.06,2.06,0,0,0,.33-.55A.41.41,0,0,1,80.89,6Z"></path><path class="cls-2" d="M76.26,5.88a.1.1,0,0,1,.14.1C76.31,6,76.27,6,76.26,5.88Z"></path></svg> 