<?xml version="1.0" encoding="UTF-8"?> <svg xmlns="http://www.w3.org/2000/svg" xmlns:xlink="http://www.w3.org/1999/xlink" viewBox="0 0 405.51 172.21"><defs><style>.e{fill:#f47424;}.e,.f,.g,.h,.i,.j,.k,.l,.m,.n,.o,.p,.q,.r,.s,.t,.u,.v,.w,.x{fill-rule:evenodd;}.f{fill:#f38bb1;}.y{letter-spacing:.23em;}.g{fill:#fdc787;}.h{fill:#b61f62;}.i{fill:#961b51;}.a`{letter-spacing:.25em;}.aa{fill:#fee582;}.j{fill:#649f42;}.ab{letter-spacing:.25em;}.k{fill:#e83393;}.ac,.ad{fill:#fffeff;}.ad{font-family:Montserrat-ExtraLight, Montserrat;font-size:22.97px;}.l{fill:#ffcd05;}.m{fill:#680922;}.n{fill:#7f1416;}.o{fill:#0489ab;}.ae{letter-spacing:.26em;}.af{clip-path:url(#d);}.ag{fill:none;}.p{fill:#84301a;}.q{fill:#f68921;}.r{fill:#535e29;}.s{fill:#92c84b;}.ah{letter-spacing:.26em;}.t{fill:#d3ab2a;}.u{fill:#fff7d5;}.ai{letter-spacing:.26em;}.v{fill:#056781;}.w{fill:#b56f29;}.x{fill:#f89d55;}</style><clipPath id="d"><path class="ag" d="M297.56,.24h30.01c.82,0,1.58,.44,1.99,1.16l15.43,27.22c.88,1.55,3.12,1.54,3.99-.01l15.23-27.2c.4-.72,1.17-1.17,2-1.17h29.42c1.81,0,2.9,2,1.92,3.52l-29.21,45.46c-.49,.76-.48,1.74,.02,2.5l32.16,48.7c1,1.52-.09,3.55-1.91,3.55h-30.48c-.79,0-1.53-.41-1.95-1.09l-17.86-29.06c-.89-1.45-3.01-1.45-3.9,0l-17.86,29.06c-.42,.68-1.15,1.09-1.95,1.09h-30.26c-1.82,0-2.91-2.03-1.91-3.55l32.6-49.25c.5-.76,.51-1.75,0-2.52L295.65,3.78c-1-1.52,.1-3.54,1.91-3.54Z"></path></clipPath></defs><g id="a"></g><g id="b"><g id="c"><text class="ad" transform="translate(1.74 143.3)"><tspan class="ai" x="0" y="0">IDENTI</tspan><tspan class="ae" x="114.5" y="0">T</tspan><tspan class="ah" x="133.13" y="0">Y + </tspan><tspan class="a`" x="195.45" y="0">E</tspan><tspan class="y" x="216.47" y="0">X</tspan><tspan class="ab" x="236.26" y="0">P</tspan><tspan class="ah" x="258.29" y="0">RESSION</tspan><tspan class="ai" x="101.72" y="22.96">INDU</tspan><tspan class="a`" x="187.89" y="22.96">S</tspan><tspan class="ah" x="207.43" y="22.96">TRIES</tspan></text><g><path class="ac" d="M0,6.61c0-1.26,.02-2.57,.07-3.92l.22-1.02C.48,.8,.99,.32,1.82,.22c1.02-.1,1.57-.15,1.67-.15H24.54c.58,0,1.11,.05,1.6,.15,.58,.15,1.02,.46,1.31,.94,.34,.63,.53,1.14,.58,1.53,.05,3.44,.07,5.28,.07,5.52V90.68c0,4.65-.03,7.6-.07,8.86,0,.44-.1,.97-.29,1.6-.24,.77-.75,1.23-1.53,1.38-.97,.19-1.89,.29-2.76,.29-5.71,0-12.17-.02-19.38-.07-.24,0-.97-.05-2.18-.15-1.07-.15-1.65-.8-1.74-1.96-.05-1.11-.07-1.84-.07-2.18-.05-3.29-.07-6.44-.07-9.44V6.61ZM5.3,84c-.19-.05-.34,0-.44,.15-.19,.44-.07,.63,.36,.58l.29-.36-.22-.36Zm1.23-4.14c.29,.05,.46,.02,.51-.07,.1-.05,.05-.1-.15-.15-.05,0-.39,.12-1.02,.36,.58-1.74,.92-2.76,1.02-3.05,.05-.24-.05-.48-.29-.73-.24-.29-.48-.41-.73-.36-.39,0-.65,.22-.8,.65-.34,1.26-.05,2.4,.87,3.41,.34-.05,.53-.07,.58-.07Zm-1.31-38.04l-.07,.07,.07-.07Zm2.61,20.84c-.53,.05-.61,.27-.22,.65,.1,.1,.24,.1,.44,0l.15-.36-.36-.29Zm.15-42.54l-.15,.22,.22,.07-.07-.29Zm1.53,73.04l-.29,.22,.29,.15v-.36Zm2.25-53.58c-.34-.53-.53-.82-.58-.87-.24-.34-.56-.46-.94-.36-.34,.1-.51,.39-.51,.87v3.19c.05,1.21,.63,2.06,1.74,2.54l.44,.22-.07,.07c-.29-.92-.32-2.37-.07-4.36v-1.31Zm1.52,28.97c-.19-.05-.36-.02-.51,.07-.97,.44-1.53,1.09-1.67,1.96,0,.05-.15,1.69-.44,4.94-.05,.48,.1,.73,.44,.73,.19,0,.31-.12,.36-.36,.24-.77,.48-1.64,.73-2.61,.05-.34,.24-.75,.58-1.23,.39-.53,.63-.9,.73-1.09,.05-.05,.19-.51,.44-1.38-.05-.58-.27-.92-.65-1.02Zm-1.81,22c-.39-.19-.56-.07-.51,.36,0,.19,.1,.29,.29,.29,.05,0,.17-.07,.36-.22l-.15-.44Zm.07-58.81c.15,.77,.58,1.23,1.31,1.38,.63,.15,.99,.24,1.09,.29,.48,.29,.8,.29,.94,0,.05-.15,.05-.51,0-1.09,0-.15-.05-.31-.15-.51-1.21-1.55-2.2-2.59-2.98-3.12-.15-.1-.32-.1-.51,0-.19,.1-.27,.24-.22,.44,0,.15,.15,.65,.44,1.52,.05,.68,.07,1.04,.07,1.09Zm.65-23.96s-.1-.12-.15-.22c-.05-.05-.1-.1-.15-.15-.1-.05-.22-.15-.36-.29-.19-.15-.32-.24-.36-.29-.05,0-.07,.05-.07,.15,0,.05-.02,.1-.07,.15,.44,.1,.75,.17,.94,.22-.05,.48,.02,.63,.22,.44Zm-.22,48.21c.05,.53,.27,.63,.65,.29,.15-.1,.17-.24,.07-.44-.05-.1-.29-.36-.73-.8-.19-.24-.32-.36-.36-.36l-.36-.29c.39,.24,.65,.44,.8,.58-.05,.63-.07,.97-.07,1.02Zm1.31-37.75c0-.39-.17-.68-.51-.87-.39-.15-.7-.05-.94,.29-.19,.34-.24,.68-.15,1.02,.1,.39,.34,.61,.73,.65,.63-.05,.92-.41,.87-1.09Zm-1.38,77.9c.39,.82,.87,1.04,1.45,.65,.05,0,.34-.19,.87-.58,.44-.92,.65-1.4,.65-1.45,.24-.58,.15-.75-.29-.51-.05,0-.1,.15-.15,.44,0,.19-.02,.46-.07,.8,0,.39-.02,.65-.07,.8-1.11-.05-1.94-.07-2.47-.07l.07-.07Zm.15-14.45c.34,1.02,.6,1.77,.8,2.25h-.15c-.34-.97-.61-1.69-.8-2.18l.15-.07Zm5.23-20.47c.58-.1,1.23-.39,1.96-.87,.63-.44,.97-1.06,1.02-1.89,0-.19-.05-.36-.15-.51-.24-.34-.56-.39-.94-.15-1.4,.82-2.01,1.21-1.81,1.16-.63,.14-1.21,.53-1.74,1.16-.19,.15-.68,.7-1.45,1.67-.24,.19-.39,.29-.44,.29,0,.05-.05,.19-.15,.44l.29-.36s.07-.22,.22-.51c1.98-.29,3.05-.44,3.19-.44Zm-2.03,27.59c-.1-.39-.34-.53-.73-.44-.44,.15-.58,.41-.44,.8,.1,.39,.34,.53,.73,.44,.44-.15,.58-.41,.44-.8Zm.07-67.59c-.39-.1-.73-.05-1.02,.15-.24,.19-.22,.51,.07,.94,.44,.73,1.06,1.36,1.89,1.89,.29,.05,.46,.07,.51,.07,.44,.05,.75,.05,.94,0,.34-.05,.22-.46-.36-1.23-.05-.53-.1-.92-.15-1.16,.92-.1,1.43-.15,1.52-.15,.48-.15,.53-.39,.15-.73-.15-.15-.29-.15-.44,0-.1,.05-.48,.36-1.16,.94-1.16-.44-1.81-.68-1.96-.73Zm.15,17.71l-.36,.44c-.15,.15-.07,.29,.22,.44,.05-.44,.07-.75,.07-.94v-.36l.07,.44Zm.8-14.67c.1-.15,.29-.36,.58-.65,.29-.24,.51-.44,.65-.58-.29,.24-.7,.65-1.23,1.23Zm1.02,4.43l-.44-.87-.29,.22c.39,.24,.65,.41,.8,.51l-.07,.15Zm-.29,21.49l-.22-.15v.29l.22-.15Zm3.41-11.54c.44,.19,.73,.1,.87-.29,.1-.39-.02-.7-.36-.94-.39-.24-.73-.24-1.02,0,0,.05-.07,.22-.22,.51,.1,.29,.34,.53,.73,.73Zm-.51,37.54c.63,.73,.97,1.14,1.02,1.23,.15,.15,.31,.22,.51,.22,.24,.05,.39,.02,.44-.07,.05-.39-.15-.65-.58-.8-.39-.15-.9-.31-1.52-.51l.15-.07Zm1.09-24.68s.19-.07,.44-.22c-.34-.05-.61,.1-.8,.44-.15,0-.19,.17-.15,.51,0,.29,.07,.56,.22,.8,.05,.39,.22,.65,.51,.8,.15,.1,.27,.05,.36-.14,.29-.34-.02-.53-.94-.58,0-.15-.03-.39-.07-.73v-.8c.29,0,.44-.02,.44-.07Zm-.36,35.87c.15-.82,.19-1.31,.15-1.45l-.29,.36c0,.1,.1,.44,.29,1.02l-.15,.07Zm.15-56.56l-.07-.07,.07,.07Zm.94,33.54l.36-.29-.29-.15-.07,.44Zm1.45,28.75l.22,.29c.19-.15,.29-.24,.29-.29l-.22-.22s-.15,.12-.29,.22ZM31.94,14.01V3.48c0-.19,.1-.92,.29-2.18,.15-.58,.56-.92,1.23-1.02,1.02-.15,1.55-.22,1.6-.22C44.21,.02,49.56,.02,51.11,.07c8.18,.19,15.54,2.73,22.07,7.62,6.24,4.69,10.65,10.72,13.21,18.08,1.35,3.87,2.03,7.87,2.03,11.98,0,2.52-.17,5.08-.51,7.7-.24,1.69-.7,3.48-1.38,5.37-4.26,11.71-12.15,19.7-23.67,23.96-4.16,1.5-8.3,2.25-12.42,2.25h-14.96c-.19-.05-.92-.17-2.18-.36-.58-.05-.94-.41-1.09-1.09-.15-.77-.22-1.14-.22-1.09-.1-1.31-.15-2.42-.15-3.34v-17.13c0-1.5,.1-2.61,.29-3.34,.19-.77,.68-1.26,1.45-1.45,.87-.15,1.43-.22,1.67-.22,1.4-.05,3.34-.07,5.81-.07h5.81c1.55,0,3.02-.05,4.43-.15,.92-.05,1.96-.34,3.12-.87,1.89-.82,3.39-2.13,4.5-3.92,.82-1.31,1.38-2.86,1.67-4.65,.05-.58,.05-1.14,0-1.67-.68-4.11-2.71-6.99-6.1-8.64-.97-.48-1.86-.75-2.69-.8-1.79-.1-3.44-.15-4.94-.15-1.4-.05-3.24-.07-5.52-.07h-5.59c-.73,0-1.43-.15-2.11-.44-1.07-.39-1.62-1.04-1.67-1.96-.1-1.6-.15-2.88-.15-3.85v-7.77h.07Zm8.86,54.45l.07,.29-.15-.22,.07-.07Zm8.71-47.34c-.1-.19-.22-.29-.36-.29-.53-.15-.65,0-.36,.44,.05,.05,.19,.12,.44,.22l.29-.36Zm3.63,42.18c.19,.48,.39,.51,.58,.07,.1-.15,.07-.29-.07-.44l-.36-.07-.15,.44Zm1.45-45.81l.15-.36s-.1-.02-.15-.07c-.1-.05-.17-.07-.22-.07-.29,.34-.22,.51,.22,.51Zm2.4,3.19c-.1-.19-.22-.29-.36-.29-.44,.1-.51,.32-.22,.65l.44,.07c.1-.24,.15-.39,.15-.44Zm4.86-5.08c.24,.48,.48,.48,.73,0,.05-.15,0-.29-.15-.44h-.44l-.15,.44Zm4.72,47.92c-.15,.34-.27,.61-.36,.8-.63,.34-1.04,.68-1.23,1.02-.15,.39-.05,.7,.29,.94,.15,.15,.29,.22,.44,.22,.48,0,.7-.22,.65-.65,0-.15-.07-.68-.22-1.6,.34-.68,.58-1.21,.73-1.6h.94c.44-.05,.77-.07,1.02-.07l-.07,.36-.07-.29c-.53,.15-1.11,.15-1.74,0-.05,.19-.17,.48-.36,.87Zm1.53-15.54l-.29,.22,.36,.22-.07-.44Zm2.61-14.81l.22,.29c.05-.19-.07-.39-.36-.58-.63-1.74-.99-2.73-1.09-2.98-.1-.19-.32-.46-.65-.8-.15-.15-.32-.19-.51-.15-.34,.1-.46,.36-.36,.8,.15,.77,.48,1.38,1.02,1.81l1.74,1.16v.44Zm.51-14.23c-.29,.34-.24,.63,.15,.87,.77,.53,1.45,.82,2.03,.87,.19,0,.36-.05,.51-.15,.29-.34,.22-.63-.22-.87-.97-.58-1.62-.87-1.96-.87l-.51,.15Zm3.78,31.87c-1.6,.15-2.47,.24-2.61,.29-.19,.05-.36,.22-.51,.51-.1,.29-.1,.56,0,.8,.19,.34,.48,.53,.87,.58,.05,0,.89-.17,2.54-.51v.07c-.15-.82-.27-1.43-.36-1.81l.07,.07Zm.58-19.89c.44-.34,.82-.68,1.16-1.02,.44-.48,.34-.97-.29-1.45-.87-.63-1.43-.51-1.67,.36-.24,.58-.39,1.09-.44,1.52-.05,.44,.17,.68,.65,.73,.34-.05,.53-.1,.58-.15Zm2.61,19.75c.87-.29,1.35-.46,1.45-.51,.1-.05,.24-.17,.44-.36,.29-.34,.31-.65,.07-.94-.24-.29-.51-.24-.8,.15-.48,.58-.82,1.16-1.02,1.74l-.15-.07Zm1.52-17.21c-1.11,.15-1.57,.77-1.38,1.89,.05,.24,.12,.41,.22,.51,.15,.15,.29,.22,.44,.22,.48,.05,.75-.12,.8-.51,0-.29-.02-1.02-.07-2.18l-.07-.44,.07,.51Zm1.96,6.53c-1.16,.73-1.6,1.02-1.31,.87-.29,.1-.46,.17-.51,.22-.77,.53-.85,1.14-.22,1.82,.24,.29,.58,.34,1.02,.15,.44-.19,.58-.48,.44-.87l-.8-1.38c.63-.44,1.09-.75,1.38-.94v.15Z"></path><path class="ac" d="M125.17,54.45c0,1.99,.02,3.27,.07,3.85,.34,5.76,2.78,10.31,7.33,13.65,1.4,1.02,3.05,1.84,4.94,2.47,1.02,.34,1.69,.61,2.03,.8,.63,.34,.97,.75,1.02,1.23,.1,1.21,.15,1.77,.15,1.67,.05,7.16,.07,14.35,.07,21.56,0,.1-.07,.65-.22,1.67-.1,.82-.61,1.28-1.52,1.38-1.36,.15-2.64,.1-3.85-.15-12.78-2.52-22.77-8.93-29.98-19.24-3.15-4.55-5.47-9.92-6.97-16.12-.73-6.97-1.09-10.84-1.09-11.62,.05-4.16,.07-15.03,.07-32.6,0-1.84-.02-4.72-.07-8.64V5.81c0-.68,.05-1.6,.15-2.76,.05-.58,.36-1.23,.94-1.96,.19-.24,.48-.44,.87-.58,.29-.1,.65-.15,1.09-.15,7.94-.05,15.15-.07,21.64-.07l1.6,.15c.82,.1,1.33,.58,1.53,1.45,.19,.58,.29,1.67,.29,3.27,0,.73-.03,7.55-.07,20.47v28.82Zm-3.63-2.54c-.29,.24-.44,.7-.44,1.38-.53-.29-1.31-.7-2.32-1.23,.34-.68,.56-1.38,.65-2.11,.15-.73-.19-.94-1.02-.65-.97,.34-1.5,.51-1.6,.51-.34,0-1.62,.07-3.85,.22l.36-.44c-.1,.15,0,0,.29-.44,.29-.34,.34-.65,.15-.94-.15-.19-.39-.27-.73-.22-.29,0-.53,.1-.73,.29-.05,.1-.48,.65-1.31,1.67-1.65,.19-2.71,.32-3.19,.36-.63,.1-1.23-.17-1.81-.8-.87-.92-1.45-1.98-1.74-3.19,.87,.24,2.01,.32,3.41,.22,.82,.15,1.6,.15,2.32,0l.51-.29c1.06-.92,1.35-1.89,.87-2.9-.1-.1-.56-.89-1.38-2.4l-.15,.07h1.6c.82-.1,1.38-.48,1.67-1.16,.53-1.35,.73-1.84,.58-1.45,.29-.77,.9-1.4,1.81-1.89,.73,1.45,1.11,2.25,1.16,2.4,.29,.48,.7,.77,1.23,.87h1.09c-1.11,1.31-1.69,2.01-1.74,2.11-.48,.58-.53,1.26-.15,2.03,.05,.19,.22,.51,.51,.94,.39,.68,.85,.82,1.38,.44,1.55-.97,1.96-2.2,1.23-3.7-.34-.63-.77-1.19-1.31-1.67-.15-.39-.36-.94-.65-1.67-.29-.77-.51-1.35-.65-1.74,1.26-.48,1.93-.75,2.03-.8,.29-.15,.73-.48,1.31-1.02,.48-.48,.56-.99,.22-1.53-.1-.15-.29-.46-.58-.94-.24-.39-.44-.7-.58-.94-.68-1.31-.77-2.54-.29-3.7,.34-.82,.7-1.86,1.09-3.12,0-.1-.02-.46-.07-1.09-.05-.24-.19-.46-.44-.65-.29-.19-.56-.27-.8-.22-.29,.15-.8,.32-1.53,.51-.68,.24-1.21,.41-1.6,.51,1.02-1.69,1.57-2.61,1.67-2.76,.44-.77,.6-1.62,.51-2.54-.1-.68-.48-.99-1.16-.94-.34,.05-.53,.07-.58,.07-.29,.1-.61,.24-.94,.44-.58,.29-.92,.39-1.02,.29-.1-.05-.19-.48-.29-1.31,.34-.58,.51-.89,.51-.94,.24-1.16-.05-2.13-.87-2.9-.34-.29-.65-.24-.94,.15-.29,.34-.34,.68-.15,1.02,.1,.19,.63,1.11,1.6,2.76-1.02,.82-1.57,1.28-1.67,1.38-.29,.29-.41,.63-.36,1.02,.15,1.16,.65,2.08,1.53,2.76,.1,.05,.87,.53,2.32,1.45-1.74,1.5-2.69,2.32-2.83,2.47-.87,.77-.92,1.74-.15,2.9,.29,.44,.6,.51,.94,.22,.05-.1,.15-.24,.29-.44,.15-.24,.24-.39,.29-.44,.1-.15,.24-.22,.44-.22,.39,0,.65,.19,.8,.58,.19,.44,.31,2.03,.36,4.79-.68-.1-1.04-.15-1.09-.15-.39,0-.75,.03-1.09,.07-1.31,.15-2.11,.73-2.4,1.74-.15,.48-.41,.65-.8,.51-.15-.05-.22-.19-.22-.44,.05-1.06-.46-1.94-1.52-2.61,.97-1.31,1.38-2.49,1.23-3.56-.1-.87,.1-1.94,.58-3.19,.39-.87,.53-1.77,.44-2.69-.05-.34-.19-.65-.44-.94-.19-.34-.48-.44-.87-.29-.19,.05-.34,.15-.44,.29-.29,.48-.34,.99-.14,1.53,.19,.58,.73,1.31,1.6,2.18-.63,.15-.97,.22-1.02,.22-.77,.19-1.28,.65-1.52,1.38-.63,1.79-.48,3.29,.44,4.5,0,.05,.07,.22,.22,.51-.39,.53-.85,.77-1.38,.73-.77-.05-1.67-.15-2.69-.29-.15-.05-.48-.17-1.02-.36-.92-.39-1.19-.99-.8-1.82,.63-1.26,1.14-2.25,1.52-2.98,.15-.29,.39-.77,.73-1.45,.39-.63,.65-1.09,.8-1.38,.39-.77,.34-1.64-.15-2.61-.48-.87-1.09-1.14-1.82-.8-1.06,.44-1.91,.44-2.54,0-.19-.1-.41-.05-.65,.15-.24,.24-.36,.51-.36,.8,0,.68,.17,1.38,.51,2.11,.87,1.94,.8,3.66-.22,5.15-.77,1.16-.82,2.4-.15,3.7,.48,.87,.75,1.91,.8,3.12-.48,.44-.75,.65-.8,.65-.29,.44-.36,.92-.22,1.45,.05,.15,.12,.32,.22,.51,.1,.19,.15,.34,.15,.44-.19,.48-.32,.77-.36,.87v.36c.15-.1,.24-.29,.29-.58,0-.29,.02-.48,.07-.58,.39-1.84,.56-2.9,.51-3.19,.73,.73,1.11,1.11,1.16,1.16,.48,.48,.82,.73,1.02,.73,.24,0,.6-.27,1.09-.8,.29-.39,.6-.56,.94-.51,.48,.1,.65,.36,.51,.8-.19,.77-.22,2.06-.07,3.85,.05,.68-.15,1.38-.58,2.11-.19,.34-.48,.77-.87,1.31-.48,.73-.8,1.19-.94,1.38-.97,.82-1.53,1.28-1.67,1.38-.19,.15-.32,.27-.36,.36-.63,1.55-.58,2.93,.15,4.14,.1,.19,.24,.29,.44,.29,1.26-.29,2.13-.39,2.61-.29,.63,.15,1.09,.39,1.38,.73-.05-.05,.24,.41,.87,1.38l-.07-.07c.63,.15,.97,.22,1.02,.22,.58,.1,1.02-.12,1.31-.65,.24-.48,.41-1.16,.51-2.03,.15-1.02,.29-1.69,.44-2.03,.24,0,.6,.02,1.09,.07h1.09c-.1,.97-.15,1.5-.15,1.6-.05,.68,.07,1.33,.36,1.96v-.07c-.53,.77-.82,1.38-.87,1.81-.05,.44,.05,.75,.29,.94,.29,.24,.6,.29,.94,.15,.34-.15,.65-.31,.94-.51,.39-.29,1.06-1.09,2.03-2.4,.44-.63,1.16-1.11,2.18-1.45,.39,.87,.6,1.36,.65,1.45,.29,.53,.65,.9,1.09,1.09,.44,.19,.94,.17,1.52-.07v-1.23c-.15-.73-.34-1.14-.58-1.23Zm-2.69,14.59l.51,.94c.48,.53,.99,.58,1.52,.15,.82-.68,1.35-1.6,1.6-2.76,.05-.24-.03-.51-.22-.8-.19-.29-.41-.46-.65-.51-.39,0-.7,.15-.94,.44-1.5,1.89-2.13,2.76-1.89,2.61,.05-.97,.07-1.5,.07-1.6,0-.97-.27-1.79-.8-2.47-.1-.1-.58-.63-1.45-1.6l1.31-2.25-.15,.07c.68,.05,1.06,.1,1.16,.15l.51-.07c.44,0,.75-.17,.94-.51,.15-.34,.1-.68-.15-1.02-.34-.53-.9-.85-1.67-.94-.77-.1-1.36,.05-1.74,.44-.34,.29-.48,.41-.44,.36-.29,.53-.8,1.16-1.52,1.89-.82,.82-1.36,1.45-1.6,1.89-1.11-.73-1.69-1.14-1.74-1.23,.24,.24-.44-.34-2.03-1.74l-.44-.29c-.92-.53-1.57-.44-1.96,.29-.48,.97-1.4,1.26-2.76,.87l.07-.07c-.1,1.31-.17,2.3-.22,2.98v-.15c1.02,.1,1.84,.34,2.47,.73,.19,.15,.48,.36,.87,.65,.39,.24,.68,.44,.87,.58,.44,.34,.9,.24,1.38-.29,.63-.68,1.19-1.06,1.67-1.16,.73-.19,1.31-.6,1.74-1.23,1.31,.24,2.47,.24,3.49,0-.15,1.26-.1,2.44,.15,3.56-.97,.1-1.5,.17-1.6,.22-.48,.1-.56,.34-.22,.73,.1,.1,.24,.07,.44-.07,.15-.1,.58-.41,1.31-.94,1.31,1.4,2.01,2.13,2.11,2.18Zm-14.3-51.84c.29,.44,.58,.44,.87,0,.1-.15,.12-.29,.07-.44-.1-.44-.34-.58-.73-.44-.39,.24-.46,.53-.22,.87Zm2.98,60.99c.1-.68,.15-1.04,.15-1.09,.05-.24,.05-.44,0-.58-.1-.24-.22-.34-.36-.29-.34,.15-.39,.44-.15,.87,0,.1,.15,.44,.44,1.02-.63,.24-.97,.36-1.02,.36-.92,.39-.99,.92-.22,1.6,.53,.53,.87,.97,1.02,1.31,.19,.48,.44,.97,.73,1.45,.24,.29,.58,.39,1.02,.29,.34-.1,.56-.34,.65-.73,.19-.87,.24-1.79,.15-2.76-.05-.92-.68-1.4-1.89-1.45h-.51Zm-1.16-8.2c.15,.1,.24,.17,.29,.22,.53,.73,1.31,.97,2.32,.73,.44-.15,.63-.41,.58-.8-.05-.15-.19-.22-.44-.22-.97-.05-1.84,.07-2.61,.36,.1-.34,.05-.44-.15-.29Zm1.31-20.84c.58-.63,.99-.94,1.23-.94s.63,.32,1.16,.94h-2.4Zm.15-39.06c0,.39,.15,.7,.44,.94,.68,.48,1.33,.75,1.96,.8,.39,0,.7-.17,.94-.51,.24-.34,.27-.68,.07-1.02-.48-.77-1.14-1.16-1.96-1.16-.97,0-1.45,.32-1.45,.94Zm2.18,6.24c-.1-.15-.24-.22-.44-.22-.44-.05-.63,.12-.58,.51,.05,.39,.27,.53,.65,.44,.44-.15,.56-.39,.36-.73Zm3.34,39.5v0Zm.07,28.75c-.05,1.02,.29,2.47,1.02,4.36l-.07-.15c.63-.29,.97-.68,1.02-1.16,.1-.58-.05-1.09-.44-1.53-.15-.15-.68-.63-1.6-1.45l.07-.07Zm3.19-1.45c0,.19,.07,.34,.22,.44,.15,.15,.27,.19,.36,.15,.39-.19,.46-.46,.22-.8-.05-.05-.32-.27-.8-.65-.24-1.64-.36-2.54-.36-2.69-.19-.87-.9-1.33-2.11-1.38-.15,0-.32,.07-.51,.22-.34,.39-.34,.73,0,1.02,.87,.77,1.57,1.55,2.11,2.32,.05,.05,.39,.19,1.02,.44-.1,.58-.15,.9-.15,.94Zm.07-8.49c.1,.68,.29,1.19,.58,1.52,.24,.29,.56,.41,.94,.36,.77-.05,1.11-.41,1.02-1.09-.1-.63-.19-1.16-.29-1.6-.29-.82-.85-1.21-1.67-1.16-1.4,.05-2.57,.46-3.49,1.23-.15,.1-.24,.24-.29,.44-.1,.19-.12,.36-.07,.51,.05,.44,.29,.63,.73,.58,.19-.05,1.06-.27,2.61-.65l-.07-.15Zm2.25-65.49c-1.21-.63-2.4-.39-3.56,.73-.29,.29-.41,.61-.36,.94,.19,1.02,.48,2.08,.87,3.19l.73,.73c0,.44,.15,.68,.44,.73,.53,.1,.65-.07,.36-.51-.19-.24-.48-.29-.87-.15,1.55-2.32,2.42-3.6,2.61-3.85,.39-.68,.29-1.33-.29-1.96l.07,.15Zm-1.16,30.06h-2.32c.29-.53,.7-1.28,1.23-2.25l-.15-.07c.34,.48,.75,.9,1.23,1.23v1.09Zm0-1.16v.07c-.29-.53-.7-.94-1.23-1.23l.15,.07c0-.15-.02-.34-.07-.58v-.65c.68,.44,1.06,1.21,1.16,2.32Zm-1.09,36.59l.07,.15-.07-.15Zm1.96,15.97c-.39-.34-.58-.27-.58,.22-.05,.19,.02,.32,.22,.36,.05,0,.19-.05,.44-.15l-.07-.44Zm.15-81.31l.15-.15-.07-.15-.07,.29Zm2.32,74.34c-.1-.19-.22-.34-.36-.44-.48-.19-.75-.02-.8,.51,0,.39,.22,.61,.65,.65,.48-.05,.65-.29,.51-.73Zm-.22-66.65h-.36l.14,.29,.22-.29Zm11.18,76.38l.44-.07c.73-.19,1.11-.65,1.16-1.38,0-.05-.03-.36-.07-.94-.05-.68-.1-1.02-.15-1.02-.15-.63-.48-.97-1.02-1.02-.05,0-.56,.05-1.52,.15,.68-3,1.04-4.55,1.09-4.65,.39-.53,.15-.9-.73-1.09-1.16-.29-1.94-.65-2.32-1.09l-.07,.07c.77-.34,1.48-1.09,2.11-2.25l.07,.07c-1.79-1.11-3.66-1.11-5.59,0,0-.53-.03-1.28-.07-2.25,.63-.29,1.04-.58,1.23-.87,.24-.34,.22-.63-.07-.87-.15-.15-.29-.22-.44-.22-.48,0-1.06,.29-1.74,.87-1.5,.97-2.61,1.69-3.34,2.18l-.15-.15c1.31,.53,1.98,.8,2.03,.8,.77,.29,1.64,.41,2.61,.36,.34,1.31,.51,2.01,.51,2.11,.1,1.4-.36,2.52-1.38,3.34-.34,.24-.48,.34-.44,.29-.19,.19-.29,.34-.29,.44-.1,.44,.1,.65,.58,.65,2.13,.05,3.8,.58,5.01,1.6,0,.05,.48,.22,1.45,.51,.29,.82,.87,1.38,1.74,1.67,.39,.15,.7,.24,.94,.29-.87,1.07-1.38,1.91-1.53,2.54l-.07-.07Zm-9.87-36.45c-.15-.15-.34-.34-.58-.58-.29-.29-.51-.51-.65-.65h1.23v1.23Zm1.09,33.18c-.58,.63-.92,1.48-1.02,2.54-.05,.63,.24,1.14,.87,1.52,.63,.44,1.26,.53,1.89,.29,.24-.1,.41-.31,.51-.65,.1-.29,.07-.53-.07-.73-.15-.24-.53-.73-1.16-1.45-.53-.63-.9-1.16-1.09-1.6l.07,.07Zm2.25-12.12c-.15-.15-.34-.36-.58-.65-.29-.24-.51-.44-.65-.58,.29,.24,.7,.65,1.23,1.23Zm2.9,16.05l-.15-.29-.15,.22,.29,.07Zm.87,4.43l-.29-.22-.07,.29,.36-.07Zm6.24-.58s.22-.05,.51-.15c.68-.24,.97-.68,.87-1.31-.15-.68-.56-1.02-1.23-1.02-.87,0-1.57,.19-2.11,.58-.34,.24-.46,.58-.36,1.02,.05,.39,.27,.63,.65,.73,.05,0,.22,.05,.51,.15h1.16Zm1.52-7.33c.1-.24,.12-.39,.07-.44l-.29-.15c-.05,.1-.12,.22-.22,.36,.15,.1,.29,.17,.44,.22Zm51.11-56.27v25.99c-.05,5.66-1.07,11.06-3.05,16.19-4.36,11.08-11.88,19.31-22.58,24.68-3.44,1.69-7.45,3-12.05,3.92-.58,.15-1.69,.24-3.34,.29-1.6,.05-2.44-.7-2.54-2.25v-22.07c0-.63,.02-1.19,.07-1.67,.15-.77,.58-1.33,1.31-1.67,.05-.05,.56-.27,1.52-.65,1.6-.63,2.44-.97,2.54-1.02,4.94-2.27,8.18-6.29,9.73-12.05,.15-.53,.24-1.26,.29-2.18,.05-1.79,.07-3.63,.07-5.52,0,2.28,0-13.58,0-47.55-.05-.97-.05-1.89,0-2.76,0,.05,.02-.31,.07-1.09,.15-1.16,.75-1.79,1.81-1.89,.97-.1,1.52-.15,1.67-.15h20.98c.53,0,1.09,.07,1.67,.22,.53,.1,.94,.41,1.23,.94,.29,.48,.44,.8,.44,.94,.1,1.4,.15,2.71,.15,3.92V31.73Zm-37.39,55.47c-.1,.29-.17,.51-.22,.65l.07,.07c.15-.68,.24-1.19,.29-1.53l.07,.07c-.05,.15-.12,.39-.22,.73Zm3.78,6.24c-.24-.29-.53-.36-.87-.22-.63,.19-.7,.63-.22,1.31,.1,.15,.24,.24,.44,.29,.39,.1,.65-.05,.8-.44,.19-.34,.15-.65-.15-.94Zm-.58-14.96l.51,.07c.58,.77,.89,1.19,.94,1.23,.29,.29,.6,.24,.94-.15,.1-.15,.15-.29,.15-.44,0-.44-.19-.7-.58-.8-.1,0-.61,.07-1.52,.22-.44-.53-.58-.58-.44-.15Zm1.45,4.65l1.16,1.16c.39,.24,1.19,.32,2.4,.22l.29-.22c-.1,.15-.17,.22-.22,.22-1.21-.1-2.06-.15-2.54-.15-.53-.53-.92-.92-1.16-1.16l.07-.07Zm2.11,6.75c-.63,.58-.92,1.19-.87,1.81,.05,.48,.24,.7,.58,.65,.19-.05,.29-.19,.29-.44s-.03-.94-.07-2.11l.07,.07Zm6.75-1.38s-.07,.1-.07,.15l.07-.15Zm.44-32.16l-.22-.36-.22,.36h.44Zm.87-23.09c-.15,1.4-.27,2.45-.36,3.12,.05,.05-.03,.17-.22,.36-.15,.19-.12,.36,.07,.51l.07-1.02c1.55-.15,2.42-.24,2.61-.29,.44-.1,.51-.39,.22-.87-.24-.48-1.07-1.09-2.47-1.82h.07Zm-.15-23.31l.36,.07-.15-.36-.22,.29Zm.94,59.9c.48-.39,.75-.6,.8-.65,.15-.1,.22-.24,.22-.44,0-.24-.07-.39-.22-.44-.39-.05-.61,.15-.65,.58,0,.15-.02,.48-.07,1.02l-.07-.07Zm.8-19.53c-.44-.24-.63-.12-.58,.36,.05,.19,.17,.29,.36,.29l.36-.22-.15-.44Zm-.29,11.04c0,.19,.05,.36,.15,.51,.39,.44,.85,.63,1.38,.58,.39-.05,.6-.29,.65-.73,0-.19-.05-.34-.15-.44-.34-.39-.82-.58-1.45-.58-.39,.05-.58,.27-.58,.65Zm.8-31.07l.15,.44s.1-.1,.15-.15c.1-.1,.17-.15,.22-.15-.05-.63-.22-.68-.51-.15Zm.51-5.59c-.39-.14-.51,0-.36,.44,.05,.19,.15,.27,.29,.22,.05,0,.15-.1,.29-.29l-.22-.36Zm.36,28.39h1.6c.53-.05,.99-.29,1.38-.73,.15-.19,.22-.36,.22-.51-.05-.44-.29-.63-.73-.58-.48,.05-.82,.15-1.02,.29-.48,.29-.94,.82-1.38,1.6l-.07-.07Zm.22,23.6l-.22,.15,.22-.22v.07Zm.36-64.47l.22-.29-.29-.07,.07,.36Zm.36,45.3l-.36,.15,.15,.36s.17-.05,.36-.15l-.15-.36Zm.58-11.76l-.15-.29-.15,.29h.29Zm.07-29.91l.15-.36-.36,.07,.22,.29Zm1.23,12.05c-.44-.1-.73,0-.87,.29-.15,.19-.17,.34-.07,.44,.34,.44,.8,.53,1.38,.29,.05,0,.15-.15,.29-.44-.1-.29-.34-.48-.73-.58Zm-.36-21.42c-.05,.24,0,.39,.15,.44,.44,.29,.63,.17,.58-.36l-.36-.29-.36,.22Zm1.6,34.41c.29,.05,.46,.05,.51,0,.48-.24,.46-.51-.07-.8-.24-.1-.58-.22-1.02-.36l-.22,.44c.15,.34,.41,.58,.8,.73Zm1.81-9.87c-.73,.05-1.31,.39-1.74,1.02-.34,.58-.22,1.04,.36,1.38,.73,.44,1.38,.41,1.96-.07,.39-.39,.58-.75,.58-1.09-.1-.92-.48-1.33-1.16-1.23Zm-.65,49.01l-.36,.22,.29,.36,.36-.29-.29-.29Zm.44-4.57l-.51,.15c.19-.15,.31-.24,.36-.29l.15,.15Zm3.34-28.9l-.07-.07,.07,.07Zm.51,17.5c-.44,.05-.51,.27-.22,.65,.1,.15,.24,.15,.44,0l.15-.36-.36-.29Zm.51-37.75c-.34-.39-.61-.39-.8,0-.1,.15-.12,.32-.07,.51,.1,.48,.34,.63,.73,.44,.15-.1,.22-.24,.22-.44,.05-.19,.02-.36-.07-.51Zm1.02-14.01c.48,.19,.75,.05,.8-.44,.05-.29-.12-.58-.51-.87-.39-.24-.7-.22-.94,.07-.05,.05-.1,.22-.14,.51,.14,.34,.41,.58,.8,.73Zm1.82,19.09l.36,.07-.15-.29-.22,.22Zm1.38-11.76l-.07,.29,.29-.07-.22-.22Z"></path><path class="ac" d="M196.9,24.9c0-.34,.02-1.43,.07-3.27,0-.48,.22-.75,.65-.8,.34,0,.65,.17,.94,.51,.63,.77,.97,1.19,1.02,1.23,9.49,13.7,17.06,24.61,22.72,32.74,.44,.68,1.11,1.77,2.03,3.27,.34,.63,.53,1.33,.58,2.11,.05,1.02,.07,1.77,.07,2.25v34.85c0,.97-.05,1.69-.15,2.18-.05,.34-.22,.87-.51,1.6-.19,.48-.61,.8-1.23,.94-.77,.19-1.5,.29-2.18,.29h-19.89c-.29,0-1.04-.07-2.25-.22-1.02-.1-1.6-.73-1.74-1.89-.05-.82-.07-1.19-.07-1.09-.05-1.21-.07-2.32-.07-3.34V24.9ZM221.07,.15c.48,.05,.97,.29,1.45,.73,.44,.44,.82,.85,1.16,1.23,.77,1.07,1.53,2.11,2.25,3.12,2.18,3.15,5.18,7.45,9,12.92,4.31,6.2,7.31,10.5,9,12.92,1.35,1.94,5.06,7.21,11.11,15.83,4.55,6.49,8.23,11.79,11.04,15.9,7.5,10.7,12.78,18.25,15.83,22.65,1.84,2.71,2.86,4.36,3.05,4.94,.19,.63,.29,2.57,.29,5.81,0,.97-.05,2.42-.15,4.36-.05,.39-.17,.75-.36,1.09-.24,.39-.51,.61-.8,.65-.92,.29-1.65,.44-2.18,.44h-19.31c-.53,0-1.09-.07-1.67-.22-.34-.1-.65-.27-.94-.51-.44-.39-.82-.8-1.16-1.23-.53-.68-1.28-1.72-2.25-3.12-10.16-14.62-27.23-39.08-51.18-73.4-2.71-3.87-4.72-6.75-6.03-8.64-.19-.29-.46-.68-.8-1.16-.39-.58-.63-.97-.73-1.16-.48-.68-.73-1.35-.73-2.03,0-3.15,.02-6.1,.07-8.86,0-.34,.07-.7,.22-1.09,.34-.58,.75-.92,1.23-1.02,1.06-.15,1.79-.22,2.18-.22l9.37-.07c6.2,.1,9.87,.15,11.04,.15Zm-19.89,78.77l.22,.22,.07-.29-.29,.07Zm1.16-4.57c-.34,.34-.27,.53,.22,.58l.22-.36-.44-.22Zm6.68-15.54c-.68,.29-1.11,.56-1.31,.8-.29,.39-.27,.7,.07,.94,.15,.15,.31,.22,.51,.22,.39,0,.65-.17,.8-.51,.1-.24,.05-.75-.15-1.52l.07-.36v.44Zm.87-6.53l-.36,.15,.36,.22v-.36Zm.07-3.85l.15-.22-.07,.29-.07-.07Zm2.11,26.64c.24-.1,.36-.17,.36-.22l.22-.29c-.24,.05-.41,.24-.51,.58l-.07-.07Zm5.45-56.48c-.58-.63-.92-.99-1.02-1.09-.15-.15-.29-.22-.44-.22-.29-.05-.44,0-.44,.15-.1,.39,.07,.63,.51,.73,.15,.05,.63,.19,1.45,.44h-.07Zm-1.38,37.39c-.24,.58-.36,.9-.36,.94l-.07,.51s.17-.53,.36-1.45h2.11l-.07-.07c-.63,.34-1.28,.36-1.96,.07Zm1.31-50.89c.05,.1,.1,.15,.15,.15l-.15-.15Zm3.34,1.96c-.05,.1-.1,.17-.15,.22,.29,.1,.46,.15,.51,.15l.15-.36c.1,0-.05-.07-.44-.22,0,.05-.02,.12-.07,.22Zm2.98,31.22c-.19-.34-.48-.51-.87-.51-.44,0-.63,.22-.58,.65,.05,.39,.27,.63,.65,.73,.39,.1,.68-.02,.87-.36-.05-.29-.07-.46-.07-.51Zm-.58,6.39l-.29-.22-.07,.36,.36-.15Zm1.6-9.15l.15,.36,.36-.15-.15-.36c-.19,.1-.32,.15-.36,.15Zm2.18-15.03c0,.19,.07,.34,.22,.44,.44,.24,.92,.46,1.45,.65,.15,.05,.29,0,.44-.15,.29-.24,.27-.53-.07-.87-.44-.44-1.16-.68-2.18-.73,.05,.05,.1,.27,.15,.65Zm9.73,23.74h-.36c.1-.39,.05-.7-.14-.94-.29-.34-.53-.31-.73,.07-.1,.1-.07,.24,.07,.44,.19,.24,.48,.36,.87,.36,.39,.44,.48,.46,.29,.07Zm2.61,16.63l-.22,.22,.29,.07-.07-.29Zm2.47-21.49c.29-.29,.36-.6,.22-.94-.19-.48-.46-.58-.8-.29-.29,.24-.36,.56-.22,.94,.05,0,.17,.12,.36,.36l.44-.07Zm1.09,25.85c.34-.19,.34-.1,0,.29,.63,.73,.97,1.14,1.02,1.23,.1,.15,.24,.27,.44,.36,.44,.19,.75,.12,.94-.22,.19-.29,.1-.58-.29-.87-.34-.29-1.02-.41-2.03-.36-.05-.24-.07-.39-.07-.44Zm1.31-18.3l-.29-.22-.07,.29,.36-.07Zm2.03-4.72c-.48,0-.58,.17-.29,.51l.36-.15-.07-.36Zm2.03,3.12c-.19,0-.32,.07-.36,.22-.24,.44-.17,.73,.22,.87,.34,.19,.58,.05,.73-.44,.05-.44-.15-.65-.58-.65Zm1.45,17.5c.63-.1,.97-.15,1.02-.15,.58-.15,.68-.34,.29-.58-.1-.05-.24,0-.44,.15-.15,.1-.41,.34-.8,.73l-.07-.15Zm1.6-9.15l.15,.44,.22-.36-.36-.07Zm1.52,19.02c-.39-.19-.68-.07-.87,.36-.19,.39-.1,.7,.29,.94,.39,.19,.68,.07,.87-.36,.19-.39,.1-.7-.29-.94Zm1.45-11.76l.15,.44c.24-.1,.36-.17,.36-.22l-.15-.36-.36,.15Zm.73,4.36l-.36-.07,.15,.36,.22-.29Zm2.18,12.27c-1.02,.34-1.36,1.06-1.02,2.18,.19,.73,.63,.9,1.31,.51,.58-.29,.94-.68,1.09-1.16,0-.15,.05-.68,.15-1.6,.44-1.06,.46-1.91,.07-2.54,.05-.97,.07-1.5,.07-1.6-.1-.82-.53-1.33-1.31-1.52h-1.02l-.65-.65c-.44-.34-.63-.27-.58,.22,0,.1,.12,.17,.36,.22,.05,0,.36,.05,.94,.15-.48,.87-.73,1.33-.73,1.38-.24,.53-.19,1.02,.15,1.45,.29,.48,.73,.7,1.31,.65l1.52-.36c0,1.21-.02,2.11-.07,2.69-.53-.19-1.07-.19-1.6,0Zm3.56,7.91c-.92-.19-1.74-.58-2.47-1.16-.15-.1-.61-.36-1.38-.8-.39-.19-.73-.15-1.02,.15-.05,.1-.05,.27,0,.51,.05,.24,.12,.61,.22,1.09,.1,.48,.17,.82,.22,1.02,.1,.63,.41,1.04,.94,1.23,.39,.15,.92,.29,1.6,.44,.82,.15,1.5,.7,2.03,1.67-.82-.15-2.28-.07-4.36,.22-.68,.1-.75,.53-.22,1.31l.36,.44c.87,.77,2.15,1.4,3.85,1.89,.1,.05,.27,.02,.51-.07,.73-.24,.97-.68,.73-1.31-.05-.15-.39-1.02-1.02-2.61,.97-.29,1.64-.75,2.03-1.38,.73-1.26,1.11-2.01,1.16-2.25,1.02,.58,1.67,.87,1.96,.87,.53,0,.94-.29,1.23-.87,.19-.34,.19-.68,0-1.02-.24-.39-.56-.53-.94-.44,.19-.05-.53,.48-2.18,1.6-1.99-.34-3.07-.51-3.27-.51Zm24.68-44.14v34.85c0,2.32-.07,3.78-.22,4.36-.15,.44-.41,.68-.8,.73-.39,.05-.7-.07-.94-.36-.29-.29-.53-.56-.73-.8-.24-.39-.77-1.16-1.6-2.32-2.03-2.95-5.35-7.72-9.95-14.3-4.31-6.2-7.62-10.96-9.95-14.3-.87-1.26-1.4-2.01-1.6-2.25-1.4-1.89-2.08-3.94-2.03-6.17v-14.37c0-6.97,.02-13.79,.07-20.47,0-.82,.05-2.11,.15-3.85,.05-1.11,.63-1.72,1.74-1.81l1.6-.15h20.47s.6,.05,1.67,.15c1.06,.1,1.67,.7,1.81,1.81,.1,.92,.17,1.45,.22,1.6V41.31h.07Zm-26.43,28.24c-.29,.34-.24,.58,.15,.73,.19,.1,.34,.07,.44-.07,.24-.29,.17-.53-.22-.73l-.36,.07Zm3.49,27.23c-.29-.34-.51-.58-.65-.73-.73-.15-1.4-.12-2.03,.07l-.15-.07c1.02-.05,1.77-.07,2.25-.07,.63,.63,1.09,1.09,1.38,1.38l-.07,.07c-.15-.15-.39-.36-.73-.65Zm-.58-18.3c-.87,.82-1.33,1.55-1.38,2.18-.05,.48,.1,.8,.44,.94-.15-.05,.53,.15,2.03,.58,.77,.19,1.14-.02,1.09-.65-.1-1.16-.39-2.18-.87-3.05h-1.31Zm-.73-48.06c0,.19,.1,.29,.29,.29,.44,0,.58-.17,.44-.51l-.44-.07-.29,.29Zm3.12-3.7c.24-.97,.41-1.82,.51-2.54,.1-.48-.12-.68-.65-.58-.15,.05-.27,.15-.36,.29-.58,.82-.77,1.65-.58,2.47,.1,.39,.34,.61,.73,.65l.36-.29Zm-.87-9.44l-.22,.36,.44,.07-.22-.44Zm3.85,78.41c-.05-.19-.22-.48-.51-.87-.39-.48-.87-.56-1.45-.22-.58,.34-.75,.77-.51,1.31,.15,.39,.29,.7,.44,.94,.34,.44,.8,.61,1.38,.51,.05,0,.39-.07,1.02-.22,.77,.68,1.4,1.02,1.89,1.02,1.11-.05,2.15,.24,3.12,.87,.92,.63,1.96,.75,3.12,.36,.39-.15,.63-.41,.73-.8,.1-.48,0-.85-.29-1.09-.97-.82-1.89-1.4-2.76-1.74-.68-.24-1.19-.48-1.52-.73-.15-.1-.29-.41-.44-.94-.05-.15,0-.29,.15-.44,.15-.24,.29-.34,.44-.29,1.69,.48,3.02,1.06,3.99,1.74l1.02,.44c.19,.1,.44,.05,.73-.15,.29-.19,.46-.41,.51-.65,.05-.39-.1-.68-.44-.87-.24-.15-.58-.31-1.02-.51-.48-.24-.8-.41-.94-.51-.73-.39-1.16-.94-1.31-1.67-.19-.97-.7-1.72-1.52-2.25-.34-.24-.68-.31-1.02-.22-1.45,.39-2.47,1.11-3.05,2.18-1.02-.1-1.57-.14-1.67-.14-.58-.05-.75,.14-.51,.58,.1,.1,.27,.12,.51,.07,.15-.05,.65-.24,1.52-.58,.39,2.23-.07,4.36-1.38,6.39-.15-.92-.22-1.43-.22-1.52Zm-.51-84.8c-.1-.44-.34-.63-.73-.58-.39,.05-.63,.29-.73,.73-.19,.68-.39,1.36-.58,2.03-.1,.48,.05,.77,.44,.87,.34,.14,.68,.1,1.02-.15,.58-.39,.85-1.02,.8-1.89-.1-.63-.17-.97-.22-1.02Zm-.65,21.56c0-.48-.02-.82-.07-1.02,.63-.29,.97-.44,1.02-.44,.48-.34,.46-.58-.07-.73-.15,0-.29,.1-.44,.29-.1,.19-.27,.51-.51,.94,.29,.58,.31,1.21,.07,1.89,.24,.29,.53,.44,.87,.44l.07-.15c.05-.15,.05-.22,0-.22-.24-.15-.56-.15-.94,0v-1.02Zm4.21-11.4c.48,.05,.75-.15,.8-.58,0-.15-.1-.29-.29-.44-1.11-.77-2.3-1.06-3.56-.87-.39,.05-.61,.29-.65,.73-.05,.44,.12,.7,.51,.8,.1,.05,.6,.12,1.52,.22,1.06,.1,1.62,.15,1.67,.15Zm-.22,57.65c.19-.1,.34-.19,.44-.29,.19-.29,.1-.56-.29-.8-1.07-.82-1.99-1.28-2.76-1.38l.07-.07c-.1,.92-.07,1.69,.07,2.32-.24,.1-.39,.15-.44,.15l-.29,.22c-.24,.24-.02,.1,.65-.44,.73,.39,1.57,.48,2.54,.29Zm-1.45-51.55c-.48,.19-.56,.46-.22,.8,.44,.48,.9,.53,1.38,.15l.07-.51c-.29-.53-.7-.68-1.23-.44Zm.44-11.33l-.15,.44,.36,.07c.29-.39,.22-.56-.22-.51Zm3.05,69.33c.05,.1,.12,.24,.22,.44,.1,.19,.17,.34,.22,.44l.22-.22c-.19-.15-.44-.34-.73-.58-.34-.29-.82-.73-1.45-1.31-.19-.92-.36-1.43-.51-1.52-.34-.39-.63-.34-.87,.15-.15,.19-.12,.36,.07,.51,.1,.05,.58,.32,1.45,.8,.63,.58,1.09,1.02,1.38,1.31Zm1.09-38.48l.36,.07c-.1-.29-.34-.41-.73-.36-.39-1.31-1.14-2.03-2.25-2.18,.05-.44-.07-.73-.36-.87-.05,0-.12,.03-.22,.07l-.15,.15c.15,.34,.44,.51,.87,.51,.48,.73,1.23,1.48,2.25,2.25l.22,.36Zm.8-6.68c.58,.24,.94,.63,1.09,1.16,1.11,3.73,1.62,5.49,1.52,5.3,.24,.53,.65,.9,1.23,1.09,.19,.05,.34,0,.44-.15,.19-.15,.24-.29,.15-.44-1.11-1.74-1.4-3.51-.87-5.3,.05-.1,.05-.27,0-.51,0-.63-.15-1.16-.44-1.6-.1-.1-.22-.24-.36-.44-.15-.19-.24-.34-.29-.44-.53-.77-.85-1.23-.94-1.38-.29-.63-1.07-.92-2.32-.87l-.15-.15,.22,.07c-.1,1.84-.17,3-.22,3.49l-.44-.22c-.1-.05-.24-.15-.44-.29-.44-.19-.7-.1-.8,.29-.1,.29,.02,.58,.36,.87,.39,.34,.68,.39,.87,.14,.05,0,.17-.29,.36-.87,.63,.15,.97,.22,1.02,.22Zm-.58,41.02c-.48-.1-.77,.07-.87,.51,0,.15,.02,.32,.07,.51,.19,.39,.48,.53,.87,.44,.39-.1,.58-.34,.58-.73-.05-.44-.27-.68-.65-.73Zm.51-69.19c-.44,.05-.7,.24-.8,.58,0,.05,.05,.1,.15,.15,.1,.1,.17,.15,.22,.15,.34-.19,.46-.51,.36-.94l.44,.07h-.36Zm4.72,9.08c-1.74-.48-2.78-.77-3.12-.87-.15,0-.34,.03-.58,.07-.39,.15-.58,.41-.58,.8-.05,.39,.15,.63,.58,.73,1.31,.24,2.49-.02,3.56-.8l.15,.07Zm-2.4,11.11c.05-.58,.07-.99,.07-1.23,1.06-.1,1.62-.15,1.67-.15,1.21-.19,1.48-.87,.8-2.03-.05-.05-.56-.82-1.52-2.32,.48,.1,.63,.02,.44-.22l-.36,.29c-.68,.73-1.02,1.69-1.02,2.9,0,.05,.05,.58,.15,1.6l-.51,.07c-.77,.34-.9,.85-.36,1.53,0,.05,.22,.29,.65,.73,.48,.82,.75,1.26,.8,1.31,.39,.44,.63,.36,.73-.22,0-.19-.07-.34-.22-.44-.15-.15-.61-.31-1.38-.51,0-.29,.02-.73,.07-1.31Zm1.09-23.6l.51-.15c.39-.15,.6-.39,.65-.73,.15-.63-.15-.99-.87-1.09-.48-.05-.7,.15-.65,.58,0,.19,.15,.7,.44,1.53l-.07-.15Zm1.23,55.83l-.22,.07,.22-.15v.07Zm1.96-7.12c.19,0,.29-.12,.29-.36,.05-.44-.15-.63-.58-.58-.05,0-.15,.12-.29,.36-.05,.48,.15,.68,.58,.58Z"></path></g><g class="af"><path class="o" d="M326.68,25.21l13.14-13.41-2.24,10.93,8.96-4.75,18.83-4.18-.55-.89-19.48,3.33,16.92-7.48-4-6.49-14.53,2.42,9.56-10.49-1.17-1.89-23.64,15.38,9.25-21.24-21.5,28.49,.86-6.65-14.61,25.15-1.41,.42,3.4,4.98,19.27-20.68-1.24,11.31,4.18-4.27Z"></path><path class="i" d="M317.09,8.29l3.7-6.37-2.85-.21-.85,6.58Z"></path><path class="s" d="M362.26,8.76l26.46-11.56-30.46,5.08,4,6.49Z"></path><path class="s" d="M391.78,15.56l-7.06-6.05-19.9,3.4,26.97,2.65Z"></path><path class="p" d="M366.22,34.69l19.86,12.72-6.88-11.16-12.98-1.56Z"></path><path class="v" d="M326.68,25.21l.98,2.79,9.92-5.26,2.24-10.93-13.14,13.41Z"></path><path class="q" d="M317.25,111.35l-.66-12.51-8.86-13.91-1.53,11.3,1.28,7.7,9.77,7.42Z"></path><path class="f" d="M345.45,54.53l-8.72-1.84-5.14,7.28,8.94,5.04,4.92-10.48Z"></path><path class="w" d="M398.21,55.19l-12.14-7.77,4.19,6.79,7.95,.98Z"></path><path class="aa" d="M344.97,29.94l-14.67,5.57-1.09-3.12,15.77-2.45Z"></path><path class="i" d="M310.84-23.19l-17.14,4.95,24.92-1.77-23.15,11.84,21.56-6.01-9.54,12.2,12.02-8.31-1.56,12.01,2.85,.21,9.14-15.73-17.93-14.1-7.63,2.39,6.47,2.31Z"></path><path class="j" d="M347.27-15.56l4.85,7.87,7.1-4.62-5.93,6.51,4.97,8.07,30.46-5.08-26.46,11.56,2.56,4.15,3.18,.31,16.73-3.72,7.06,6.05,16.68,1.64-12.33,2.09,16.15,13.84,.66-11.26c-6.78-10.65-14.44-22.61-14.44-22.61l-.46,1.41-13.15-10.07,.18,4.06-28.98-12.55,11.66,1.59-7.12-5.04-3.4-1.05-6.75,.93,1.36,4.99-4.57,.92Z"></path><path class="k" d="M260.03,22.85l27.33-16.16-24.12,3.37,28.12-19.62-17.25,2.12,13.75-11.25-10.55,.69,7.58-7.27,1.35-1.29,6.78-3,8.58,3.06-11.34,5.42,14.12-4.43,6.47,2.31-17.14,4.95,24.92-1.77-23.15,11.84,21.56-6.01-9.54,12.2,12.02-8.31-1.56,12.01-.85,6.58-14.61,25.15-1.4,.42-4.56-6.68-1.6,8.53-12.77,3.83,3.77-4.37,5.66-.98s-1.82-.34-4.15-.78l8.56-9.94-6.02-.1h0l-24.77-.42-5.16-.09h0Zm29.94,.51h0Z"></path><path class="t" d="M294.05,59.35l2.47-11.66,17.67-12.55,13.47-7.14-.98-2.79-4.18,4.27,1.24-11.31-19.27,20.68-3.4-4.98-6.16,1.84-5.82,31.07,4.95-7.42Z"></path><path class="v" d="M328.48,7.69l23.64-15.38-4.85-7.87-15.58,3.14-1.77-1.39-9.14,15.73-3.7,6.37-.86,6.65,21.5-28.49-9.25,21.24Z"></path><path class="i" d="M317.09,8.29l3.7-6.37-2.85-.21-.85,6.58Z"></path><path class="s" d="M362.26,8.76l26.46-11.56-30.46,5.08,4,6.49Z"></path><path class="s" d="M391.78,15.56l-7.06-6.05-19.9,3.4,26.97,2.65Z"></path><path class="w" d="M365.37,13.8l13.83,22.45,26.51,3.19-4.5-4.25,5.5,1-26.24-14.25,15.67-2.66-4.35-3.73-26.97-2.65,.55,.89Z"></path><path class="r" d="M406.71,36.19l-5.5-1,4.5,4.25-26.51-3.19,6.88,11.16,12.14,7.77-7.95-.98,6.92,11.23,2.49,.52,4.13-21.26,7.62,2.93,.86-14.51-16.15-13.84-15.67,2.66,26.24,14.25Z"></path><path class="p" d="M366.22,34.69l19.86,12.72-6.88-11.16-12.98-1.56Z"></path><path class="e" d="M379.2,36.25l-14.39-23.34-18.27,5.08-8.96,4.75-.58,2.85,25.1-6.54-16.65,35.48,37.42,7.89-2.9-9.48,10.3,1.27-4.19-6.79-19.86-12.72,12.98,1.56Z"></path><path class="x" d="M336.99,25.59l.58-2.85-9.92,5.26,1.54,4.4,15.77-2.45-14.67,5.57,.86,2.45-18.03,7.6-5.48,16.44,12.72-15.73,23.86-4.06-18.2,6.72-16.08,24.74,15.2-17.32,6.43,3.62,5.14-7.28,8.72,1.84,16.65-35.48-25.1,6.54Z"></path><path class="v" d="M362.26,8.76l-16.92,7.48,19.48-3.33-2.56-4.15Z"></path><path class="v" d="M326.68,25.21l.98,2.79,9.92-5.26,2.24-10.93-13.14,13.41Z"></path><path class="u" d="M321.8,33.54l-16.44,9.19-8.84,22.09,3.53,38.35,9.47,12.43,17.5,3.15-9.78-7.42-9.77-7.42-1.28-7.7-4.72-28.3,9.25-25,19.57-7.43-1.09-3.12-7.41,1.15Z"></path><path class="l" d="M327.66,27.99l-13.47,7.14-17.67,12.55-2.47,11.66-1.94,37.47,3-9.19,5.13,22.8,1.77-2.83,1.3,6.89,6.23,1.12-9.47-12.43-3.53-38.35,8.84-22.09,16.44-9.19,7.41-1.15-1.54-4.4Z"></path><path class="g" d="M301.48,67.94l4.72,28.3,1.53-11.3,8.86,13.91-.87-16.41,15.86-22.46-6.43-3.62-15.2,17.32,16.08-24.74,18.2-6.72-23.86,4.06-12.72,15.73,5.48-16.44,18.03-7.6-.86-2.45-19.57,7.43-9.25,25Z"></path><path class="q" d="M317.25,111.35l-.66-12.51-8.86-13.91-1.53,11.3,1.28,7.7,9.77,7.42Z"></path><path class="k" d="M322.23,107.68l1-6,4.75,7,2.75-6.5,6,11.75,1.5-36.25,19,22.25,1.5-10,5.75,4.75s-.5-10-.5-10c0,0,6.75,7.5,6.5,6.5-.25-1-7-22-7-22l25.75,14-6.35-20.76-37.42-7.89-4.92,10.48-8.94-5.04-15.86,22.46,.87,16.41,5.63,8.84Z"></path><path class="h" d="M323.23,101.68l-1,6-5.63-8.84,.66,12.51,9.78,7.42,16.51,2.97,33.94-8.2-.51-22.86,17.35,2.87,4.84-24.91-1.97-3.2-14.32-3.02,6.35,20.76-25.75-14s6.75,21,7,22c.25,1-6.5-6.5-6.5-6.5,0,0,.49,9.99,.5,10l-5.75-4.75-1.5,10-19-22.25-1.5,36.25-6-11.75-2.75,6.5-4.75-7Z"></path><path class="f" d="M345.45,54.53l-8.72-1.84-5.14,7.28,8.94,5.04,4.92-10.48Z"></path><path class="p" d="M397.19,65.44l-6.92-11.23-10.3-1.27,2.9,9.48,14.32,3.02Z"></path><path class="w" d="M398.21,55.19l-12.14-7.77,4.19,6.79,7.95,.98Z"></path><path class="n" d="M394.32,93.55l-1.02,5.27,4.25,18.6,7.19-6.89-1.64-24.67,7.82,1.86-11.76-19.08-4.84,24.91Z"></path><path class="m" d="M377.48,113.54l13.6-3.29,2.22-11.43,1.02-5.27-17.35-2.87,.51,22.86Z"></path><path class="n" d="M377.63,120.15l13.06,3.84,6.86-6.57-4.25-18.6-2.22,11.43-13.6,3.29,.15,6.61Z"></path><path class="aa" d="M344.97,29.94l-14.67,5.57-1.09-3.12,15.77-2.45Z"></path><polyline class="k" points="292.1 96.82 295.11 87.63 300.23 110.43 290.18 104.59"></polyline></g></g></g></svg> 